<?xml version="1.0" encoding="utf-8"?>
<!-- Generator: Adobe Illustrator 27.8.0, SVG Export Plug-In . SVG Version: 6.00 Build 0)  -->
<svg version="1.1" id="_x2014_ÎÓÈ_x5F_1" xmlns="http://www.w3.org/2000/svg" xmlns:xlink="http://www.w3.org/1999/xlink"
	 x="0px" y="0px" viewBox="0 0 5000 5000" style="enable-background:new 0 0 5000 5000;" xml:space="preserve">
<style type="text/css">
	.st0{fill:#D60B52;}
	.st1{fill:#D50853;}
	.st2{fill:#FFFFFF;}
	.st3{fill:none;}
</style>
<g>
	<path class="st0" d="M2473-2510.3c4.1,1.3,8.3,1.9,12.8,1.9h1.3c4.5,0,8.8-0.6,12.9-1.9c17.8-5.5,30.6-22,30.6-41.6v-147.7
		c0-19.6-12.8-36.1-30.6-41.6c-4.1-1.3-8.4-1.9-12.9-1.9h-1.3c-4.5,0-8.8,0.6-12.8,1.9c-17.8,5.5-30.5,22-30.5,41.6v147.7
		C2442.4-2532.4,2455.2-2515.8,2473-2510.3z"/>
	<path class="st0" d="M1719.7-2508.4h0.9c24.1,0,43.6-19.5,43.6-43.6v-147.5c0-24.1-19.5-43.6-43.6-43.6h-0.9
		c-24.1,0-43.6,19.5-43.6,43.6v147.5C1676.1-2527.9,1695.6-2508.4,1719.7-2508.4z"/>
	<path class="st0" d="M1500.3-1671.5V-2349h1208.5v296.4c28.6,1.9,56,7.4,81.5,16.1v-437c0-58-47.3-105.4-105.3-105.4h-117.3v27
		c0,44.5-36.1,80.6-80.6,80.6h-1.3c-44.5,0-80.5-36.2-80.5-80.6v-27H1802v27c0,44.5-36.3,80.6-80.8,80.6h-1.3
		c-44.5,0-80.3-36.2-80.3-80.6v-27h-117.6c-58,0-105.6,47.4-105.6,105.4v778.7c0,58,47.6,105.5,105.6,105.5h863.9
		c-11.6-25.5-20-52.9-24.6-82.1H1500.3z"/>
	<path class="st0" d="M1771.9-2151.8c0-51.9-42.1-94.1-94.1-94.1l0,0c-51.9,0-94.1,42.1-94.1,94.1l0,0c0,51.9,42.1,94.1,94.1,94.1
		l0,0C1729.8-2057.7,1771.9-2099.8,1771.9-2151.8L1771.9-2151.8z"/>
	<rect x="1867.6" y="-2245.8" class="st0" width="188.1" height="188.1"/>
	<rect x="1583.8" y="-1962.9" class="st0" width="188.1" height="188.1"/>
	<rect x="1867.6" y="-1962.9" class="st0" width="188.1" height="188.1"/>
	<rect x="2151.3" y="-1962.9" class="st0" width="188.1" height="188.1"/>
	<rect x="2151.3" y="-2245.8" class="st0" width="188.1" height="188.1"/>
	<rect x="2435.1" y="-2245.8" class="st0" width="188.1" height="188.1"/>
	<path class="st0" d="M2691.7-2009.7c-160.6,0-290.8,130.2-290.8,290.8s130.2,290.8,290.8,290.8s290.8-130.2,290.8-290.8
		S2852.3-2009.7,2691.7-2009.7z M2691.7-1491.6c-125.3,0-227.2-101.9-227.2-227.2s101.9-227.2,227.2-227.2
		c125.3,0,227.2,101.9,227.2,227.2S2817-1491.6,2691.7-1491.6z"/>
	<path class="st0" d="M2832.2-1725.8h-127v-149c0-12.5-10.2-22.7-22.7-22.7c-12.5,0-22.7,10.2-22.7,22.7v191.3
		c0,12.5,7,21.4,33,21.4h139.5c17.6,0,31.8-14.2,31.8-31.8C2864-1711.5,2849.7-1725.8,2832.2-1725.8z"/>
</g>
<g>
	<polygon class="st1" points="5643.4,-2270.1 5459.5,-2270.1 5459.5,-2378.7 5155.9,-2378.7 5155.9,-2270.1 4660.3,-2270.1 
		4660.3,-604.6 5959.4,-604.6 5959.4,-1990 	"/>
	<polygon class="st2" points="5846.3,-708.1 4773.4,-708.1 4773.4,-2166.6 5660.4,-2166.6 5661.8,-1990 5846.3,-1990 	"/>
	<g>
		<path class="st1" d="M5442.4-1815c-2.3,0-4.7,0.4-7.2,1.2l-7.4,2.4l0.4-7.8c0.8-16.9-15.2-35.3-28.1-43.3
			c-10.7,3.5-54.7,16.8-103.5,16.8c0,0,0,0,0,0c-37.7,0-68.8-8-92.6-23.8c-5,6.1-14.7,20.4-13.5,38.4l0.5,8.3l-7.8-2.8
			c-1.4-0.5-3-0.8-4.6-0.8c-4.2,0-9.4,1.9-12.6,6.9c0,0.2,0,0.4,0,0.5c0,1.4,0.4,81.9,30.8,150.3c22.5,50.7,65.6,94.8,115.8,94.8
			c56,0,98.7-52.8,121.2-109.8c19-48.3,24.3-99.5,25.8-121.2C5457.1-1808.6,5451.5-1815,5442.4-1815z"/>
		<path class="st1" d="M5400.7-1868.4c0,0-125.6,44-197.6-8.2c0,0-19.8,18.9-18,45.9c-9.9-3.6-23.6,1.5-26.9,16.2
			c0,0-21.7-139.5,69.6-144.3c49.2-52.8,250.7-60,238.3,154.3c0,0-9.9-21.6-32.4-14.4C5434.4-1838.8,5415.9-1860,5400.7-1868.4z"/>
		<path class="st1" d="M5683-1402.5c-4.7-31-24.9-55.8-51.6-67.7c0.1,0,0.1,0,0.2,0c0,0-176.7-93.7-324.8-91.5
			c-131.7,2-285.1,74.9-317.4,91c-27.3,11.7-48,36.8-52.8,68.3l-0.6,14.5h356.8l18.1-67.6c0.7-2.8,1.4-5.1,2.1-7h-17.3
			c-9.6,0-17.3-7.8-17.3-17.3v-36.1c0-9.6,7.8-17.3,17.3-17.3h17.3h17.3c9.6,0,17.3,7.8,17.3,17.3v36.1c0,9.6-7.8,17.3-17.3,17.3
			H5313c0.7,1.9,1.4,4.3,2.1,7l18.1,67.6h350.4L5683-1402.5z"/>
	</g>
	<g>
		<path class="st1" d="M5708.2-1177h-796.7c-12.5,0-22.6-10.1-22.6-22.6c0-12.5,10.1-22.6,22.6-22.6h796.7
			c12.5,0,22.6,10.1,22.6,22.6C5730.8-1187.1,5720.7-1177,5708.2-1177z"/>
		<path class="st1" d="M5708.2-1069.5h-796.7c-12.5,0-22.6-10.1-22.6-22.6c0-12.5,10.1-22.6,22.6-22.6h796.7
			c12.5,0,22.6,10.1,22.6,22.6C5730.8-1079.7,5720.7-1069.5,5708.2-1069.5z"/>
		<path class="st1" d="M5708.2-962.1h-796.7c-12.5,0-22.6-10.1-22.6-22.6s10.1-22.6,22.6-22.6h796.7c12.5,0,22.6,10.1,22.6,22.6
			S5720.7-962.1,5708.2-962.1z"/>
		<path class="st1" d="M5708.2-854.6h-796.7c-12.5,0-22.6-10.1-22.6-22.6s10.1-22.6,22.6-22.6h796.7c12.5,0,22.6,10.1,22.6,22.6
			S5720.7-854.6,5708.2-854.6z"/>
	</g>
</g>
<g>
	<g>
		<g>
			<g>
				<g>
					<g>
						<path class="st0" d="M9352.4,758.6H8319.5c-24.8,0-44.9-20.1-44.9-44.9s20.1-44.9,44.9-44.9h1032.9
							c24.8,0,44.9,20.1,44.9,44.9S9377.2,758.6,9352.4,758.6z"/>
					</g>
					<g>
						<path class="st0" d="M9181,538.8h-690.1c-24.8,0-44.9-20.1-44.9-44.9c0-24.8,20.1-44.9,44.9-44.9H9181
							c24.8,0,44.9,20.1,44.9,44.9C9225.9,518.7,9205.8,538.8,9181,538.8z"/>
					</g>
					<g>
						<path class="st0" d="M9289.2,978.4h-906.5c-24.8,0-44.9-20.1-44.9-44.9c0-24.8,20.1-44.9,44.9-44.9h906.5
							c24.8,0,44.9,20.1,44.9,44.9C9334.1,958.3,9314,978.4,9289.2,978.4z"/>
					</g>
					<g>
						<path class="st0" d="M9289.2,1198.2h-906.5c-24.8,0-44.9-20.1-44.9-44.9c0-24.8,20.1-44.9,44.9-44.9h906.5
							c24.8,0,44.9,20.1,44.9,44.9C9334.1,1178.1,9314,1198.2,9289.2,1198.2z"/>
					</g>
					<g>
						<path class="st0" d="M8906.5,1418h-523.8c-24.8,0-44.9-20.1-44.9-44.9c0-24.8,20.1-44.9,44.9-44.9h523.8
							c24.8,0,44.9,20.1,44.9,44.9C8951.4,1397.9,8931.3,1418,8906.5,1418z"/>
					</g>
					<g>
						<path class="st0" d="M8734.4,1637.9h-351.7c-24.8,0-44.9-20.1-44.9-44.9c0-24.8,20.1-44.9,44.9-44.9h351.7
							c24.8,0,44.9,20.1,44.9,44.9C8779.3,1617.8,8759.2,1637.9,8734.4,1637.9z"/>
					</g>
					<g>
						<path class="st0" d="M8734.4,1857.7h-351.7c-24.8,0-44.9-20.1-44.9-44.9c0-24.8,20.1-44.9,44.9-44.9h351.7
							c24.8,0,44.9,20.1,44.9,44.9C8779.3,1837.6,8759.2,1857.7,8734.4,1857.7z"/>
					</g>
				</g>
				<g>
					<path class="st0" d="M9050,2096.7h-987c-24.8,0-44.9-20.1-44.9-44.9v-1797c0-24.8,20.1-44.9,44.9-44.9h1546.5
						c24.8,0,44.9,20.1,44.9,44.9v967.4c0,24.8-20.1,44.9-44.9,44.9c-24.8,0-44.9-20.1-44.9-44.9V299.7H8107.8v1707.2H9050
						c24.8,0,44.9,20.1,44.9,44.9C9094.9,2076.6,9074.8,2096.7,9050,2096.7z"/>
				</g>
			</g>
		</g>
		<g>
			<g>
				<path class="st0" d="M9305.6,2243.8c-8.9,0-17.9-0.9-26.7-2.8c-35.4-7.5-65.1-29.6-83-59.4c-35.2,7.5-72.8-0.2-102.2-21.6
					c-29.3-21.3-47.4-53.6-51.7-88.1c-35.2-7.5-66.3-29.6-84.6-61.3c-18.1-31.3-21.5-68.2-11.4-101.4
					c-28.8-20.9-48.4-53.3-52.3-90.4c-3.8-36,8.1-71.1,30.8-97.3c-17.8-30.8-22.6-68.4-11-103.8c11.2-34.6,36.2-61.9,67.7-76.5
					c-3.7-35.3,7.2-71.5,32.1-99.2c23.8-26.4,57.5-41.7,93-42.3c11-33.8,35.7-62.5,69.8-77.6c32.6-14.5,70.4-14.4,102.2-0.9
					c23.7-26.4,58-42.5,95.3-42.5c36.2,0,69.7,15.4,93.5,40.7c32.2-14.4,71-15,104.5-0.1c33.1,14.7,57.5,42.5,68.9,75.4
					c0.1,0,0.2,0,0.2,0c36.3,0,71,15.5,95.2,42.4c24.2,26.9,35.2,62.2,32.3,96.8c32.6,14.4,58.5,42.1,70,77.6
					c11.2,34.4,6.9,71.2-9.9,101.6c23.8,26.4,36.3,62.2,32.4,99.3c-3.8,36-22.7,67.8-50.4,88.8c11,33.8,7.9,71.6-10.8,103.9
					c-17.9,31-47.9,52.7-82.2,60.7c-3.7,35.4-21.9,68.6-52.1,90.5c-28.8,20.8-65.2,28.7-99.7,22c-17.8,30.8-47.9,53.7-84.4,61.4
					c-35.3,7.5-72.1-0.6-100.3-20.4C9359.1,2234.8,9332.9,2243.8,9305.6,2243.8z M9222.4,2075.4c6.1,0,12.1,1.2,17.9,3.7
					c15.5,6.7,25.9,21.6,26.9,38.4c1.1,17.4,13.6,32,30.3,35.6c17.2,3.7,34.8-5.2,42.6-20.8c7.5-15.1,22.9-24.7,39.8-24.9
					c17.6,0.7,32.4,9.2,40.2,24.1c8,15.2,25.3,23.9,42.3,20.2c17.1-3.7,29.7-18.6,30.4-36.3c0.7-16.9,10.9-31.9,26.2-38.9
					c15.3-7,33.3-4.8,46.6,5.7c13.3,10.5,33,11.3,46.8,1.3c14.1-10.3,19.5-29,13-45.6c-6.2-15.7-3-33.6,8.1-46.2
					c11.2-12.6,28.6-17.9,44.8-13.7c16.8,4.2,34.7-3.1,43.2-17.9c8.8-15.2,6.1-34.5-6.6-46.9c-12.1-11.8-16.5-29.4-11.4-45.5
					c5.1-16.1,18.8-28,35.4-30.8c17.2-2.9,30.4-16.8,32.2-33.9c1.8-17.4-8.5-33.9-25.2-40.2c-15.8-5.9-27-20.2-28.9-37
					c-1.9-16.8,5.7-33.2,19.8-42.5c14.5-9.6,21-27.8,15.7-44.1c-5.4-16.8-22-26.4-39.7-26.5c-15.9,0-31.7-8.3-39.8-22.1
					c-8.6-14.5-9.5-32.6-0.4-46.9c9.3-14.7,7.8-33.9-3.6-46.6c-11.5-12.8-31.3-16.1-46.7-8.2c-15,7.8-33.1,6.6-46.8-3.2
					c-13.8-9.8-20.8-26.5-18.4-43.2c2.6-17.3-6.6-34.2-22.3-41.2c-15.8-7-35.2-2-46,11.5c-10.5,13.2-27.4,19.5-44.1,16.1
					c-16.5-3.4-29.8-15.7-34.3-31.9c-4.7-16.8-19.9-28.5-37.1-28.5c-17.5,0-32.9,12-37.3,29.2c-4.2,16.3-17.2,28.9-33.7,32.6
					c-16.5,3.7-33.6-2.2-44.4-15.2c-10.8-13-29.8-17.9-45.5-11c-16,7.1-25.2,24.3-22.2,41.9c2.8,16.6-4,33.4-17.6,43.5
					c-13.6,10-31.6,11.6-46.7,4.1c-15.3-7.6-34.7-4.1-46,8.5c-11.7,13-13.1,32.5-3.3,47.3c9.3,14.1,10,32.2,1.7,46.9
					c-8.3,14.7-24,23.2-41,22.8c0,0-0.1,0-0.1,0c-18.6,0-33.4,10.6-38.5,26.5c-5.4,16.7,1.2,35,16.2,44.6
					c14.2,9.1,22.2,25.3,20.6,42.1c-1.6,16.8-12.5,31.3-28.2,37.5c-16.2,6.4-26.3,22.8-24.5,39.9c1.8,17.5,15.4,31.5,33,34.1
					c16.7,2.5,30.6,14.2,36,30.1c5.4,16,1.3,33.7-10.5,45.7c-12.2,12.4-14.7,31.5-6.2,46.3c8.7,15.1,27.1,22.4,43.9,17.8
					c16.2-4.6,33.7,0.4,45.1,12.9c11.4,12.4,14.9,30.2,9,46c-6.1,16.4-0.6,34.8,13.3,45c13.9,10.1,34.1,9.2,47.4-1.7
					C9202,2078.9,9212.1,2075.4,9222.4,2075.4z"/>
			</g>
			<g>
				<path class="st0" d="M9377.1,2054.8c-161.9,0-293.6-131.7-293.6-293.6c0-161.9,131.7-293.6,293.6-293.6
					c161.9,0,293.6,131.7,293.6,293.6C9670.7,1923.1,9539,2054.8,9377.1,2054.8z M9377.1,1557.4c-112.4,0-203.8,91.4-203.8,203.8
					c0,112.4,91.4,203.8,203.8,203.8c112.4,0,203.8-91.4,203.8-203.8C9580.9,1648.8,9489.4,1557.4,9377.1,1557.4z"/>
			</g>
		</g>
		<g>
			<path class="st0" d="M9121.2,2500c-9.5,0-18.9-3-26.8-8.9c-13.1-9.8-19.9-25.9-17.7-42.1l43-313.5c3.4-24.6,25.8-41.7,50.6-38.4
				c24.6,3.4,41.8,26,38.4,50.6l-31.9,232.7l181.7-82.8c11.8-5.4,25.4-5.4,37.2,0l181.7,82.8l-31.9-232.7
				c-3.4-24.6,13.8-47.2,38.4-50.6c24.6-3.4,47.2,13.8,50.6,38.4l43,313.5c2.2,16.2-4.5,32.4-17.7,42.1
				c-13.2,9.8-30.6,11.6-45.4,4.8l-237.3-108.1L9139.8,2496C9133.8,2498.7,9127.5,2500,9121.2,2500z"/>
		</g>
	</g>
</g>
<g>
	<g>
		<path class="st1" d="M8559.5,4315.3c-119.9,0-222.7-103.3-276.5-221.9c-72.6-160-73.6-348.3-73.6-351.6
			c0-259.3,98.4-365.6,350.1-365.6c251.7,0,352,114,352,373.3c0,1.9-3.4,161.2-62.7,308.9
			C8795.2,4191.8,8693.1,4315.3,8559.5,4315.3z"/>
		<g>
			<g>
				<path class="st1" d="M7803.6,4883.3c0-47.7,39.1-86.8,86.8-86.8h631.1l31.9-119.2c2.4-8.9,4.7-16.4,7-22.8H8504
					c-31.1,0-56.4-25.2-56.4-56.4v-117.4c0-31.1,25.2-56.4,56.4-56.4h56.4h56.4c31.1,0,56.4,25.2,56.4,56.4v117.4
					c0,31.1-25.2,56.4-56.4,56.4h-56.4c2.2,6.3,4.6,13.8,7,22.8l31.9,119.2h599.3c47.7,0,86.8,39.1,86.8,86.8l-57.9,859.5H9477
					l-46.7-1026.6c-10.9-72.6-58.3-130.7-120.7-158.5h0.4c0,0-413.6-219.3-759.9-214.1c-308.1,4.6-667.1,175.3-742.6,212.9
					c-63.8,27.3-112.4,86.1-123.4,159.7l-43.9,1026.6h221.4L7803.6,4883.3z"/>
				<path class="st1" d="M9256.4,4909.3l-57.9,833.4H7890.5l-57.9-833.4c0-47.7,39.1-86.8,86.8-86.8h1250.2
					C9217.4,4822.5,9256.4,4861.6,9256.4,4909.3z"/>
			</g>
			<path class="st1" d="M9256.4,5824.4c0,8.7-10.4,15.7-23.2,15.7H7855.7c-12.8,0-23.2-7-23.2-15.7v-35.2c0-8.7,10.4-15.7,23.2-15.7
				h1377.6c12.8,0,23.2,7,23.2,15.7V5824.4z"/>
		</g>
		<line class="st3" x1="7774.7" y1="5742.8" x2="7745.8" y2="5742.8"/>
		<line class="st3" x1="9372.2" y1="5742.8" x2="9343.3" y2="5742.8"/>
	</g>
</g>
<path class="st0" d="M3560.6,1306.8H1439.4c-73.2,0-132.6,59.3-132.6,132.6v2121.2c0,73.2,59.3,132.6,132.6,132.6h2121.2
	c73.2,0,132.6-59.3,132.6-132.6V1439.4C3693.2,1366.2,3633.8,1306.8,3560.6,1306.8z M1439.4,3560.6V1568.1
	c0,73.2,59.3,132.6,132.6,132.6h397.7c73.2,0,132.6-59.3,132.6-132.6h1458.4v1992.5H1439.4z M3428,2234.8v1060.6
	c0,73.2-59.3,132.6-132.6,132.6H1704.5c-73.2,0-132.6-59.3-132.6-132.6V2234.8c0-73.2,59.3-132.6,132.6-132.6h928.4
	c0-1.1-0.3-2.2-0.3-3.3c0-73.2,59.3-132.6,132.6-132.6h397.7c73.2,0,132.6,59.3,132.6,132.6c0,1.1-0.3,2.2-0.3,3.3h0.3
	C3368.7,2102.3,3428,2161.6,3428,2234.8z"/>
</svg>
