<?xml version="1.0" encoding="utf-8"?>
<!-- Generator: Adobe Illustrator 27.8.0, SVG Export Plug-In . SVG Version: 6.00 Build 0)  -->
<svg version="1.1" id="Calque_1" xmlns="http://www.w3.org/2000/svg" xmlns:xlink="http://www.w3.org/1999/xlink" x="0px" y="0px"
	 viewBox="0 0 229.6 230.5" style="enable-background:new 0 0 229.6 230.5;" xml:space="preserve">
<style type="text/css">
	.st0{fill:#F7C5DA;}
	.st1{fill:#D60B53;}
	.st2{fill:#FFFFFF;}
</style>
<circle class="st0" cx="114.8" cy="115.3" r="114"/>
<circle class="st1" cx="114.8" cy="115.3" r="100.3"/>
<g id="XMLID_5854_">
	<path id="XMLID_5858_" class="st2" d="M182.9,69.2h-36v-22c0-2.9-2.8-5.2-6.4-5.2c-0.4,0-0.8,0-1.1,0.1c-0.4,0-0.7-0.1-1.1-0.1
		H89.8c-0.1,0-0.3,0-0.4,0s-0.3,0-0.4,0c-3.6,0-6.4,2.3-6.4,5.2v22h-36c-5.9,0-10.7,4.8-10.7,10.7v48.5c0,5.8,4.4,10.3,10.1,10.7
		v38.7c0,5.9,4.3,10.7,9.6,10.7h118.3c5.4,0,9.6-4.8,9.6-10.7v-38.7c5.6-0.4,10.1-5,10.1-10.7V80C193.7,74,188.8,69.2,182.9,69.2z
		 M87.9,47.6c0.3-0.1,0.8-0.3,1.3-0.3c0.1,0,0.3,0,0.4,0h0.1h48.5c0.1,0,0.3,0,0.4,0c0.4,0.1,0.8,0.1,1.2,0c0.7-0.1,1.3,0,1.7,0.1
		v26.5c-0.3,0.1-0.5,0.3-1.1,0.3c-0.5,0-0.9-0.1-1.1-0.3V53.8c0-1.5-1.2-2.7-2.7-2.7H92.7c-1.5,0-2.7,1.2-2.7,2.7v20.4
		c-0.3,0.1-0.5,0.3-1.1,0.3c-0.5,0-0.9-0.1-1.1-0.3L87.9,47.6L87.9,47.6z M134,56.5v12.7H95.4V56.3H134V56.5z M178.2,178
		c0,2.9-1.9,5.4-4.3,5.4H55.5c-2.4,0-4.3-2.4-4.3-5.4v-38.7h42.1v5c0,5.9,4.8,10.7,10.7,10.7h19.2c5.9,0,10.7-4.8,10.7-10.7v-5H178
		V178H178.2z M98.8,144.1V129c0-2.9,2.4-5.4,5.4-5.4h19.2c2.9,0,5.4,2.4,5.4,5.4v15.1c0,2.9-2.4,5.4-5.4,5.4h-19.3
		C101.2,149.5,98.8,147.1,98.8,144.1z M188.3,128.5c0,2.9-2.4,5.4-5.4,5.4H134v-5c0-5.9-4.8-10.7-10.7-10.7h-19.2
		c-5.9,0-10.7,4.8-10.7,10.7v5H46.5c-2.9,0-5.4-2.4-5.4-5.4V80.1c0-2.9,2.4-5.4,5.4-5.4h36c0.1,2.8,2.8,5.1,6.4,5.1
		c3.5,0,6.3-2.1,6.4-5.1h38.6c0.1,2.8,2.8,5.1,6.4,5.1c3.5,0,6.3-2.1,6.4-5.1h36c2.9,0,5.4,2.4,5.4,5.4
		C188.3,80.1,188.3,128.5,188.3,128.5z"/>
	<path id="XMLID_5855_" class="st2" d="M113.8,146c5.2,0,9.4-4.3,9.4-9.4c0-5.2-4.3-9.4-9.4-9.4s-9.4,4.3-9.4,9.4
		C104.3,141.7,108.6,146,113.8,146z M113.8,129.8c3.8,0,6.7,3.1,6.7,6.7c0,3.8-3.1,6.7-6.7,6.7c-3.8,0-6.7-3.1-6.7-6.7
		C107,132.9,110,129.8,113.8,129.8z"/>
</g>
</svg>
