<?xml version="1.0" encoding="utf-8"?>
<!-- Generator: Adobe Illustrator 27.8.0, SVG Export Plug-In . SVG Version: 6.00 Build 0)  -->
<svg version="1.1" id="Calque_1" xmlns="http://www.w3.org/2000/svg" xmlns:xlink="http://www.w3.org/1999/xlink" x="0px" y="0px"
	 viewBox="0 0 241.6 347.5" style="enable-background:new 0 0 241.6 347.5;" xml:space="preserve">
<style type="text/css">
	.st0{fill:none;stroke:#95C122;stroke-width:10;stroke-linecap:round;stroke-linejoin:round;stroke-miterlimit:10;}
</style>
<g>
	<polyline class="st0" points="158.3,304.1 158.3,345.3 80.5,345.3 80.5,304.1 	"/>
	<path class="st0" d="M148.5,221.4c0,15.9-13,28.7-29.1,28.7s-29.1-12.9-29.1-28.7c0-15.9,13-28.7,29.1-28.7
		S148.5,205.5,148.5,221.4z"/>
	<path class="st0" d="M186.4,118.2v41.4H55.2v-41.4c0-22.4,18.1-40.5,40.5-40.5H146C168.3,77.7,186.4,95.8,186.4,118.2z"/>
	<polyline class="st0" points="162.8,125.3 162.8,159.6 78.8,159.6 78.8,125.3 	"/>
	<path class="st0" d="M152.6,33.9c0,17.5-14.2,31.8-31.8,31.8C103.3,65.7,89,51.5,89,33.9c0-17.5,14.2-31.8,31.8-31.8
		C138.3,2.1,152.6,16.3,152.6,33.9z"/>
	<polygon class="st0" points="109.3,77.7 132.3,77.7 128.5,95.9 113.1,95.9 	"/>
	<polygon class="st0" points="113.1,95.9 107.9,144.4 112.9,159.6 128.7,159.6 133.7,144.4 128.5,95.9 	"/>
	<path class="st0" d="M179.5,297.6v47.7H59.3v-47.7c0-20.2,16.7-36.6,37.1-36.6c0.9,0,4.2,2.8,8,6.3c8.4,7.7,21.5,7.7,29.9,0
		c3.7-3.5,7-6.3,8-6.3c10.3,0,19.6,4.1,26.2,10.8C175.3,278.3,179.5,287.5,179.5,297.6z"/>
	<path class="st0" d="M179.5,320.6v-23.1c0-10.1-4.1-19.3-10.8-25.8c-6.6-6.6-15.9-10.8-26.2-10.8c-1,0-4.3,2.8-8,6.3
		c-8.5,7.7-21.5,7.7-29.9,0c-3.8-3.5-7.1-6.3-8-6.3c-20.5,0-37.1,16.4-37.1,36.6v23.1H2.2l23.7-161.1h189.8l23.7,161.1L179.5,320.6
		L179.5,320.6z"/>
</g>
</svg>
