<?xml version="1.0" encoding="utf-8"?>
<!-- Generator: Adobe Illustrator 27.8.0, SVG Export Plug-In . SVG Version: 6.00 Build 0)  -->
<svg version="1.1" id="Calque_1" xmlns="http://www.w3.org/2000/svg" xmlns:xlink="http://www.w3.org/1999/xlink" x="0px" y="0px"
	 viewBox="0 0 376.7 346.6" style="enable-background:new 0 0 376.7 346.6;" xml:space="preserve">
<style type="text/css">
	.st0{fill:#E61E57;}
</style>
<g>
	<path class="st0" d="M188.4,207.2c-3.4,0-6.1-2.7-6.1-6.1v-12.3c0-3.4,2.7-6.1,6.1-6.1c3.4,0,6.1,2.7,6.1,6.1v12.3
		C194.5,204.5,191.8,207.2,188.4,207.2"/>
	<path class="st0" d="M188.4,250.7c-3.4,0-6.1-2.7-6.1-6.1v-21.7c0-3.4,2.7-6.1,6.1-6.1c3.4,0,6.1,2.7,6.1,6.1v21.7
		C194.5,247.9,191.8,250.7,188.4,250.7"/>
	<path class="st0" d="M188.4,284.6c-3.4,0-6.1-2.7-6.1-6.1v-12.3c0-3.4,2.7-6.1,6.1-6.1c3.4,0,6.1,2.7,6.1,6.1v12.3
		C194.5,281.9,191.8,284.6,188.4,284.6"/>
	<path class="st0" d="M350.4,344.6h-324c-13.6,0-24.7-11.1-24.7-24.7V102.3c0-13.6,11.1-24.7,24.7-24.7h324
		c13.6,0,24.7,11.1,24.7,24.7v86.6c0,3.4-2.7,6.1-6.1,6.1s-6.1-2.7-6.1-6.1v-86.6c0-6.8-5.6-12.4-12.4-12.4h-324
		c-6.8,0-12.4,5.6-12.4,12.4v217.6c0,6.8,5.6,12.4,12.4,12.4h324c6.8,0,12.4-5.6,12.4-12.4v-41.4c0-3.4,2.7-6.1,6.1-6.1
		s6.1,2.7,6.1,6.1v41.4C375,333.5,364,344.6,350.4,344.6"/>
	<path class="st0" d="M236.3,190.7h-95.9c-16.2,0-32-3.3-46.8-9.7L5.4,142.5c-3.1-1.4-4.5-5-3.2-8.1s5-4.5,8.1-3.2l88.2,38.4
		c13.3,5.8,27.4,8.7,42,8.7h95.9c14.5,0,28.6-2.9,41.9-8.7l88.2-38.4c3.1-1.4,6.7,0.1,8.1,3.2c1.4,3.1-0.1,6.7-3.2,8.1l-88.2,38.4
		C268.3,187.4,252.5,190.7,236.3,190.7"/>
	<path class="st0" d="M279.6,89.9H97.2c-3.4,0-6.1-2.7-6.1-6.1V20c0-10.1,8.3-18.4,18.4-18.4h157.9c10.1,0,18.4,8.3,18.4,18.4v63.8
		C285.7,87.1,282.9,89.9,279.6,89.9 M103.3,77.6h170.1V20c0-3.4-2.7-6.1-6.1-6.1H109.4c-3.4,0-6.1,2.7-6.1,6.1V77.6z"/>
	<path class="st0" d="M246.6,89.9H130.1c-3.4,0-6.1-2.7-6.1-6.1V42.3c0-6.8,5.5-12.3,12.3-12.3h104.2c6.8,0,12.3,5.5,12.3,12.3v41.5
		C252.7,87.1,250,89.9,246.6,89.9 M136.3,77.6h104.2V42.3H136.3V77.6z"/>
	<path class="st0" d="M202.5,247.2h-28.2c-10.1,0-18.4-8.2-18.4-18.4v-44.3c0-3.4,2.7-6.1,6.1-6.1h52.7c3.4,0,6.1,2.7,6.1,6.1v44.3
		C220.9,239,212.6,247.2,202.5,247.2 M168.1,190.7v38.2c0,3.4,2.8,6.1,6.1,6.1h28.2c3.4,0,6.1-2.8,6.1-6.1v-38.2H168.1z"/>
	<path class="st0" d="M213.6,219h-50.4c-3.4,0-6.1-2.7-6.1-6.1s2.7-6.1,6.1-6.1h50.4c3.4,0,6.1,2.7,6.1,6.1S217,219,213.6,219"/>
	<path class="st0" d="M230.3,310.8h-76.5c-7.5,0-13.6-6.1-13.6-13.6v-84.4c0-3.4,2.7-6.1,6.1-6.1c3.4,0,6.1,2.7,6.1,6.1v84.4
		c0,0.7,0.6,1.3,1.3,1.3h76.5c3.4,0,6.1,2.7,6.1,6.1S233.7,310.8,230.3,310.8"/>
</g>
</svg>
