<?xml version="1.0" encoding="utf-8"?>
<!-- Generator: Adobe Illustrator 27.8.0, SVG Export Plug-In . SVG Version: 6.00 Build 0)  -->
<svg version="1.1" id="Calque_1" xmlns="http://www.w3.org/2000/svg" xmlns:xlink="http://www.w3.org/1999/xlink" x="0px" y="0px"
	 viewBox="0 0 240.7 195.1" style="enable-background:new 0 0 240.7 195.1;" xml:space="preserve">
<style type="text/css">
	.st0{fill:none;stroke:#F39208;stroke-width:10;stroke-linecap:round;stroke-linejoin:round;stroke-miterlimit:10;}
</style>
<g>
	<path class="st0" d="M130.5,93.4l51.7,51.7c3.7,3.7,3.7,9.7,0,13.4c-3.7,3.7-9.7,3.7-13.4,0l-20.2-20.2"/>
	<path class="st0" d="M148.6,138.4l20.2,20.2c3.7,3.7,3.7,9.7,0,13.4c-3.7,3.7-9.7,3.7-13.4,0l-20.2-20.2"/>
	<path class="st0" d="M135.1,151.8l20.2,20.2c3.7,3.7,3.7,9.7,0,13.4c-3.7,3.7-9.7,3.7-13.4,0l-20.2-20.2"/>
	<line class="st0" x1="53.1" y1="123.6" x2="39" y2="109.5"/>
	<path class="st0" d="M121.7,165.3l10.1,10.1c3.7,3.7,3.7,9.7,0,13.4c-1.9,1.9-4.3,2.8-6.8,2.8c-2.4,0-4.8-0.9-6.7-2.8l-11.4-11.4"
		/>
	<path class="st0" d="M108.9,175.4l-2,2l-11.4,11.4c-1.9,1.9-4.3,2.8-6.8,2.8c-2.4,0-4.8-0.9-6.7-2.8c-3.7-3.7-3.7-9.7,0-13.4
		l11.4-11.4l2-2c1.9-1.8,4.3-2.7,6.7-2.7s4.8,0.9,6.7,2.7C112.6,165.6,112.6,171.6,108.9,175.4z"/>
	<path class="st0" d="M104.7,152.7l-9.2,9.2l-2,2L82,175.4c-1.8,1.9-4.3,2.7-6.7,2.7c-2.4,0-4.8-0.9-6.7-2.7
		c-3.7-3.7-3.7-9.7,0-13.5L80,150.5l11.2-11.3c1.9-1.9,4.3-2.8,6.7-2.8c2.5,0,4.9,0.9,6.8,2.8C108.4,143,108.4,149,104.7,152.7z"/>
	<path class="st0" d="M91.2,139.2L80,150.5l-11.4,11.4c-1.9,1.9-4.3,2.8-6.7,2.8c-2.5,0-4.9-0.9-6.7-2.8c-3.7-3.7-3.7-9.7,0-13.4
		L66.5,137l11.3-11.3c1.9-1.9,4.3-2.7,6.7-2.7c2.5,0,4.9,0.9,6.7,2.7C94.9,129.5,94.9,135.5,91.2,139.2z"/>
	<path class="st0" d="M77.7,125.8L66.5,137l-11.4,11.4c-1.9,1.9-4.3,2.8-6.7,2.8c-2.5,0-4.8-0.9-6.7-2.8c-3.7-3.7-3.7-9.7,0-13.4
		l11.4-11.4l11.2-11.3c1.9-1.9,4.3-2.8,6.7-2.8c2.5,0,4.8,0.9,6.7,2.8C81.5,116,81.5,122,77.7,125.8z"/>
	<path class="st0" d="M151.2,59.5c-8.8-8.8-18-16-30.6-3.5l-18,18c-11.1,11.1-11.1,29.1,0,40.3c4.2,4.2,11.1,4.2,15.3,0l16.6-16.6
		l3.5,3.3l36.7,36.7l25.3-26.4L151.2,59.5z"/>
	<path class="st0" d="M155.7,6.1l-15.4,15.4c-3.2,3.2-3.2,8.3,0,11.5l69.2,69.2c3.2,3.2,8.3,3.2,11.5,0l15.4-15.4
		c3.2-3.2,3.2-8.3,0-11.5L167.2,6.1C164,2.9,158.9,2.9,155.7,6.1z"/>
	<path class="st0" d="M85,6.1l15.4,15.4c3.2,3.2,3.2,8.3,0,11.5l-69.2,69.2c-3.2,3.2-8.3,3.2-11.5,0L4.3,86.8
		c-3.2-3.2-3.2-8.3,0-11.5L73.5,6.1C76.7,2.9,81.8,2.9,85,6.1z"/>
	<line class="st0" x1="101.6" y1="47.4" x2="115.4" y2="61.2"/>
</g>
</svg>
