<?xml version="1.0" encoding="utf-8"?>
<!-- Generator: Adobe Illustrator 27.8.0, SVG Export Plug-In . SVG Version: 6.00 Build 0)  -->
<svg version="1.1" id="Calque_1" xmlns="http://www.w3.org/2000/svg" xmlns:xlink="http://www.w3.org/1999/xlink" x="0px" y="0px"
	 viewBox="0 0 229.6 230.5" style="enable-background:new 0 0 229.6 230.5;" xml:space="preserve">
<style type="text/css">
	.st0{fill:#F5B4D2;}
	.st1{fill:#A4195B;}
	.st2{fill:#FFFFFF;}
</style>
<circle class="st0" cx="114.8" cy="115.3" r="114"/>
<circle class="st1" cx="114.8" cy="115.3" r="100.3"/>
<g>
	<path class="st2" d="M103.6,82.8c-5.9,0-10.7-4.8-10.7-10.7c0-5.9,4.8-10.7,10.7-10.7c5.9,0,10.7,4.8,10.7,10.7
		C114.3,78,109.5,82.8,103.6,82.8z M103.6,66.3c-3.2,0-5.8,2.6-5.8,5.8c0,3.2,2.6,5.8,5.8,5.8c3.2,0,5.8-2.6,5.8-5.8
		C109.4,68.9,106.8,66.3,103.6,66.3z"/>
	<path class="st2" d="M121.3,108.2c-1.3,0-2.4-1.1-2.4-2.4v-9.6c0-3.6-2.9-6.5-6.5-6.5H94.9c-3.6,0-6.5,2.9-6.5,6.5v9.6
		c0,1.3-1.1,2.4-2.4,2.4s-2.4-1.1-2.4-2.4v-9.6c0-6.3,5.1-11.4,11.4-11.4h17.5c6.3,0,11.4,5.1,11.4,11.4v9.6
		C123.7,107.1,122.6,108.2,121.3,108.2z"/>
	<path class="st2" d="M96,108.2c-1.3,0-2.4-1.1-2.4-2.4v-3.4c0-1.3,1.1-2.4,2.4-2.4s2.4,1.1,2.4,2.4v3.4
		C98.4,107.1,97.3,108.2,96,108.2z"/>
	<path class="st2" d="M111.2,108.2c-1.3,0-2.4-1.1-2.4-2.4v-3.4c0-1.3,1.1-2.4,2.4-2.4s2.4,1.1,2.4,2.4v3.4
		C113.7,107.1,112.6,108.2,111.2,108.2z"/>
	<path class="st2" d="M135.8,117.3H71.4c-1.3,0-2.4-1.1-2.4-2.4c0-1.3,1.1-2.4,2.4-2.4h64.5c1.3,0,2.4,1.1,2.4,2.4
		C138.3,116.2,137.2,117.3,135.8,117.3z"/>
	<path class="st2" d="M135.8,130.1H71.4c-1.3,0-2.4-1.1-2.4-2.4c0-1.3,1.1-2.4,2.4-2.4h64.5c1.3,0,2.4,1.1,2.4,2.4
		C138.3,129,137.2,130.1,135.8,130.1z"/>
	<path class="st2" d="M143,142.8H71.4c-1.3,0-2.4-1.1-2.4-2.4c0-1.3,1.1-2.4,2.4-2.4H143c1.3,0,2.4,1.1,2.4,2.4
		C145.4,141.8,144.3,142.8,143,142.8z"/>
	<path class="st2" d="M129,155.6H71.4c-1.3,0-2.4-1.1-2.4-2.4c0-1.3,1.1-2.4,2.4-2.4H129c1.3,0,2.4,1.1,2.4,2.4
		C131.5,154.5,130.4,155.6,129,155.6z"/>
	<path class="st2" d="M127.7,168.4H71.4c-1.3,0-2.4-1.1-2.4-2.4c0-1.3,1.1-2.4,2.4-2.4h56.4c1.3,0,2.4,1.1,2.4,2.4
		C130.2,167.3,129.1,168.4,127.7,168.4z"/>
	<path class="st2" d="M141.5,184.9H57.6c-1.3,0-2.4-1.1-2.4-2.4v-127c0-1.3,1.1-2.4,2.4-2.4h92c1.3,0,2.4,1.1,2.4,2.4v83.9
		c0,1.3-1.1,2.4-2.4,2.4c-11,0-19.9,8.9-19.9,19.9c0,8.2,4.9,15.5,12.6,18.5c1.1,0.4,1.7,1.6,1.5,2.7
		C143.6,184,142.6,184.9,141.5,184.9z M60,180h73c-5.1-4.6-8.1-11.2-8.1-18.3c0-12.8,9.8-23.4,22.3-24.6V57.9H60V180z"/>
	<path class="st2" d="M149.6,186.4c-13.6,0-24.7-11.1-24.7-24.7c0-13.6,11.1-24.7,24.7-24.7c13.6,0,24.7,11.1,24.7,24.7
		C174.4,175.3,163.3,186.4,149.6,186.4z M149.6,141.8c-11,0-19.9,8.9-19.9,19.9s8.9,19.9,19.9,19.9s19.9-8.9,19.9-19.9
		C169.5,150.8,160.6,141.8,149.6,141.8z"/>
	<path class="st2" d="M147.4,173.4c-0.8,0-1.5-0.4-2-1l-8.7-11.9c-0.8-1.1-0.6-2.6,0.5-3.4c1.1-0.8,2.6-0.6,3.4,0.5l6.8,9.2
		l10.4-13.6c0.8-1.1,2.3-1.3,3.4-0.4c1.1,0.8,1.3,2.3,0.4,3.4l-12.4,16.1C148.9,173.1,148.2,173.4,147.4,173.4z"/>
	<path class="st2" d="M159.8,144.3c-0.4,0-0.8-0.1-1.1-0.3c-2.8-1.5-5.9-2.2-9-2.2c-1.3,0-2.4-1.1-2.4-2.4V57.9H67.7
		c-1.3,0-2.4-1.1-2.4-2.4v-9c0-1.3,1.1-2.4,2.4-2.4h92c1.3,0,2.4,1.1,2.4,2.4v95.4c0,0.8-0.4,1.6-1.2,2.1
		C160.7,144.2,160.2,144.3,159.8,144.3z M152.1,137.1c1.8,0.2,3.6,0.6,5.3,1.1V48.9H70.2v4.2h79.5c1.3,0,2.4,1.1,2.4,2.4V137.1z"/>
</g>
</svg>
