<?xml version="1.0" encoding="utf-8"?>
<!-- Generator: Adobe Illustrator 27.8.0, SVG Export Plug-In . SVG Version: 6.00 Build 0)  -->
<svg version="1.1" id="_x2014_ÎÓÈ_x5F_1" xmlns="http://www.w3.org/2000/svg" xmlns:xlink="http://www.w3.org/1999/xlink"
	 x="0px" y="0px" viewBox="0 0 5000 5000" style="enable-background:new 0 0 5000 5000;" xml:space="preserve">
<style type="text/css">
	.st0{fill:#D60B52;}
	.st1{fill:#D50853;}
	.st2{fill:#FFFFFF;}
</style>
<g>
	<path class="st0" d="M2819.4-2002.8c4.1,1.3,8.3,1.9,12.8,1.9h1.3c4.5,0,8.8-0.6,12.9-1.9c17.8-5.5,30.6-22,30.6-41.6v-147.7
		c0-19.6-12.8-36.1-30.6-41.6c-4.1-1.3-8.4-1.9-12.9-1.9h-1.3c-4.5,0-8.8,0.6-12.8,1.9c-17.8,5.5-30.5,22-30.5,41.6v147.7
		C2788.9-2024.8,2801.6-2008.3,2819.4-2002.8z"/>
	<path class="st0" d="M2066.1-2000.9h0.9c24.1,0,43.6-19.5,43.6-43.6V-2192c0-24.1-19.5-43.6-43.6-43.6h-0.9
		c-24.1,0-43.6,19.5-43.6,43.6v147.5C2022.5-2020.4,2042.1-2000.9,2066.1-2000.9z"/>
	<path class="st0" d="M1846.7-1164v-677.6h1208.5v296.4c28.6,1.9,56,7.4,81.5,16.1v-437c0-58-47.3-105.4-105.3-105.4h-117.3v27
		c0,44.5-36.1,80.6-80.6,80.6h-1.3c-44.5,0-80.5-36.2-80.5-80.6v-27h-603.4v27c0,44.5-36.3,80.6-80.8,80.6h-1.3
		c-44.5,0-80.3-36.2-80.3-80.6v-27h-117.6c-58,0-105.6,47.4-105.6,105.4v778.7c0,58,47.6,105.5,105.6,105.5h863.9
		c-11.6-25.5-20-52.9-24.6-82.1H1846.7z"/>
	<path class="st0" d="M2118.4-1644.2c0-51.9-42.1-94.1-94.1-94.1l0,0c-51.9,0-94.1,42.1-94.1,94.1v0c0,51.9,42.1,94.1,94.1,94.1l0,0
		C2076.2-1550.2,2118.4-1592.3,2118.4-1644.2L2118.4-1644.2z"/>
	<rect x="2214" y="-1738.3" class="st0" width="188.1" height="188.1"/>
	<rect x="1930.2" y="-1455.4" class="st0" width="188.1" height="188.1"/>
	<rect x="2214" y="-1455.4" class="st0" width="188.1" height="188.1"/>
	<rect x="2497.8" y="-1455.4" class="st0" width="188.1" height="188.1"/>
	<rect x="2497.8" y="-1738.3" class="st0" width="188.1" height="188.1"/>
	<rect x="2781.5" y="-1738.3" class="st0" width="188.1" height="188.1"/>
	<path class="st0" d="M3038.2-1502.2c-160.6,0-290.8,130.2-290.8,290.8s130.2,290.8,290.8,290.8s290.8-130.2,290.8-290.8
		S3198.8-1502.2,3038.2-1502.2z M3038.2-984.1c-125.3,0-227.2-101.9-227.2-227.2s101.9-227.2,227.2-227.2
		c125.3,0,227.2,101.9,227.2,227.2S3163.4-984.1,3038.2-984.1z"/>
	<path class="st0" d="M3178.6-1218.2h-127v-149c0-12.5-10.2-22.7-22.7-22.7c-12.5,0-22.7,10.2-22.7,22.7v191.3
		c0,12.5,7,21.4,33,21.4h139.5c17.6,0,31.8-14.2,31.8-31.8C3210.4-1204,3196.2-1218.2,3178.6-1218.2z"/>
</g>
<g>
	<polygon class="st1" points="2985.3,1367.7 2717.8,1367.7 2717.8,1209.8 2276,1209.8 2276,1367.7 1555.2,1367.7 1555.2,3790.2 
		3444.8,3790.2 3444.8,1775.1 	"/>
	<polygon class="st2" points="3280.3,3639.7 1719.7,3639.7 1719.7,1518.2 3009.9,1518.2 3012,1775.1 3280.3,1775.1 	"/>
	<g>
		<path class="st1" d="M2692.9,2029.6c-3.3,0-6.9,0.6-10.5,1.8l-10.8,3.4l0.5-11.3c1.1-24.6-22.1-51.3-40.8-62.9
			c-15.5,5.1-79.6,24.5-150.6,24.5c0,0,0,0,0,0c-54.8,0-100.1-11.6-134.8-34.6c-7.3,8.9-21.3,29.7-19.6,55.9l0.8,12l-11.3-4.1
			c-2.1-0.8-4.3-1.1-6.7-1.1c-6.1,0-13.6,2.8-18.4,10c0,0.3,0,0.5,0,0.8c0,2.1,0.6,119.1,44.8,218.6
			c32.8,73.7,95.4,137.9,168.5,137.9c81.4,0,143.6-76.8,176.3-159.7c27.6-70.3,35.4-144.7,37.5-176.4
			C2714.2,2039,2706.1,2029.6,2692.9,2029.6z"/>
		<path class="st1" d="M2632.1,1952c0,0-182.7,64-287.4-11.9c0,0-28.8,27.5-26.2,66.8c-14.4-5.2-34.3,2.2-39.2,23.6
			c0,0-31.5-203,101.2-210c71.6-76.8,364.7-87.3,346.6,224.4c0,0-14.4-31.4-47.1-21C2681.2,1995.1,2654.3,1964.2,2632.1,1952z"/>
		<path class="st1" d="M3042.8,2629.7c-6.8-45.1-36.2-81.2-75.1-98.5c0.1,0,0.2,0,0.3,0c0,0-257.1-136.3-472.4-133.1
			c-191.5,2.9-414.7,109-461.6,132.3c-39.7,17-69.9,53.5-76.8,99.3l-0.9,21h518.9l26.3-98.3c1.1-4,2.1-7.4,3.1-10.2h-25.2
			c-13.9,0-25.2-11.3-25.2-25.2v-52.5c0-13.9,11.3-25.2,25.2-25.2h25.2h25.2c13.9,0,25.2,11.3,25.2,25.2v52.5
			c0,13.9-11.3,25.2-25.2,25.2h-25.2c1,2.8,2,6.2,3.1,10.2l26.3,98.3h509.7L3042.8,2629.7z"/>
	</g>
	<g>
		<path class="st1" d="M3079.4,2957.7H1920.6c-18.2,0-32.9-14.7-32.9-32.9s14.7-32.9,32.9-32.9h1158.8c18.2,0,32.9,14.7,32.9,32.9
			S3097.6,2957.7,3079.4,2957.7z"/>
		<path class="st1" d="M3079.4,3114H1920.6c-18.2,0-32.9-14.7-32.9-32.9c0-18.2,14.7-32.9,32.9-32.9h1158.8
			c18.2,0,32.9,14.7,32.9,32.9C3112.3,3099.2,3097.6,3114,3079.4,3114z"/>
		<path class="st1" d="M3079.4,3270.2H1920.6c-18.2,0-32.9-14.7-32.9-32.9s14.7-32.9,32.9-32.9h1158.8c18.2,0,32.9,14.7,32.9,32.9
			S3097.6,3270.2,3079.4,3270.2z"/>
		<path class="st1" d="M3079.4,3426.5H1920.6c-18.2,0-32.9-14.7-32.9-32.9s14.7-32.9,32.9-32.9h1158.8c18.2,0,32.9,14.7,32.9,32.9
			S3097.6,3426.5,3079.4,3426.5z"/>
	</g>
</g>
</svg>
