<?xml version="1.0" encoding="utf-8"?>
<!-- Generator: Adobe Illustrator 27.8.0, SVG Export Plug-In . SVG Version: 6.00 Build 0)  -->
<svg version="1.1" id="Calque_1" xmlns="http://www.w3.org/2000/svg" xmlns:xlink="http://www.w3.org/1999/xlink" x="0px" y="0px"
	 viewBox="0 0 229.6 230.5" style="enable-background:new 0 0 229.6 230.5;" xml:space="preserve">
<style type="text/css">
	.st0{fill:#EBF0C7;}
	.st1{fill:#95C121;}
	.st2{fill:#FFFFFF;}
</style>
<circle class="st0" cx="114.8" cy="115.3" r="114"/>
<circle class="st1" cx="114.8" cy="115.3" r="100.3"/>
<g id="XMLID_5580_">
	<path id="XMLID_5589_" class="st2" d="M123.6,60.1c-5.8,0-11.6,0-17.4,0c-0.8,0-1.8,0-2.6,0c-22.1,0-44.4,0-66.5,0
		c-1.4,0-2.5,1.2-2.5,2.8c0,35.3,0,70.4,0,105.6c0,1.5,1.1,2.8,2.5,2.8c21.3,0,42.7,0,64,0c0,5.4,0,10.8,0,16c0,1.9,2.2,3.7,3.9,2.4
		c1.8-1.5,3.6-2.9,5.4-4.4c1.4-1.1,2.6-2.2,4-3.2c0.3-0.3,0.8-0.6,1.2-0.8c0.3,0.1,0.6,0.4,0.7,0.6c1.1,1.1,2.6,2.1,3.9,3.2
		c1.9,1.7,3.9,3.2,5.9,4.8c1.1,1,2.2,0.6,2.9-0.3c0.6-0.4,1-1.1,1-2.2c0-5.4,0-10.8,0-16c21,0,42,0,63.1,0c0.7,0,1.4-0.3,1.7-0.7
		c0,0,0,0,0.1-0.1l0,0c0.4-0.4,0.7-1.1,0.7-1.9c0-35.3,0-70.4,0-105.6c0-1.5-1.1-2.8-2.5-2.8c-21.8,0-43.7,0-65.7,0
		C125.9,60.1,124.8,60.1,123.6,60.1z M100.9,165.7c-20.5,0-40.9,0-61.4,0c0-33.3,0-66.6,0-100.1c20.5,0,40.9,0,61.4,0
		C100.9,99.1,100.9,132.4,100.9,165.7z M124.5,181.9c-2.6-2.2-5.3-4.3-7.9-6.5c-0.7-0.6-1.9-0.6-2.6,0c-2.6,2.2-5.4,4.4-8,6.5
		c0-38.7,0-77.4,0-116.2c0,0,0,0,0.1,0c5.8,0,11.6,0,17.4,0c0.3,0,0.7,0,1,0C124.5,104.5,124.5,143.2,124.5,181.9z M129.7,65.7
		c20.2,0,40.4,0,60.6,0c0,33.3,0,66.6,0,100.1c-20.2,0-40.4,0-60.6,0C129.7,132.4,129.7,99.1,129.7,65.7z"/>
	<path id="XMLID_5588_" class="st2" d="M51.1,92c12,0,24.1,0,36.1,0c2.2,0,2.2-3.7,0-3.7c-12,0-24.1,0-36.1,0
		C48.9,88.3,48.9,92,51.1,92z"/>
	<path id="XMLID_5587_" class="st2" d="M51.1,107.6c12,0,24.1,0,36.1,0c2.2,0,2.2-3.7,0-3.7c-12,0-24.1,0-36.1,0
		C48.9,103.9,48.9,107.6,51.1,107.6z"/>
	<path id="XMLID_5586_" class="st2" d="M51.1,123.3c12,0,24.1,0,36.1,0c2.2,0,2.2-3.7,0-3.7c-12,0-24.1,0-36.1,0
		C48.9,119.5,48.9,123.3,51.1,123.3z"/>
	<path id="XMLID_5585_" class="st2" d="M51.1,139c12,0,24.1,0,36.1,0c2.2,0,2.2-3.7,0-3.7c-12,0-24.1,0-36.1,0
		C48.9,135.3,48.9,139,51.1,139z"/>
	<path id="XMLID_5584_" class="st2" d="M178.7,88.3c-12,0-24.1,0-36.1,0c-2.2,0-2.2,3.7,0,3.7c12,0,24.1,0,36.1,0
		C181,92,181,88.3,178.7,88.3z"/>
	<path id="XMLID_5583_" class="st2" d="M178.7,103.9c-12,0-24.1,0-36.1,0c-2.2,0-2.2,3.7,0,3.7c12,0,24.1,0,36.1,0
		C181,107.6,181,103.9,178.7,103.9z"/>
	<path id="XMLID_5582_" class="st2" d="M178.7,119.5c-12,0-24.1,0-36.1,0c-2.2,0-2.2,3.7,0,3.7c12,0,24.1,0,36.1,0
		C181,123.3,181,119.5,178.7,119.5z"/>
	<path id="XMLID_5581_" class="st2" d="M178.7,135.3c-12,0-24.1,0-36.1,0c-2.2,0-2.2,3.7,0,3.7c12,0,24.1,0,36.1,0
		C181,139,181,135.3,178.7,135.3z"/>
</g>
</svg>
