<?xml version="1.0" encoding="UTF-8" standalone="no"?>
<svg
   version="1.1"
   id="Calque_1"
   x="0px"
   y="0px"
   viewBox="0 0 301.7 327.5"
   style="enable-background:new 0 0 301.7 327.5;"
   xml:space="preserve"
   sodipodi:docname="Boule_preinscrire_avec_icone.svg"
   inkscape:version="1.3 (0e150ed6c4, 2023-07-21)"
   xmlns:inkscape="http://www.inkscape.org/namespaces/inkscape"
   xmlns:sodipodi="http://sodipodi.sourceforge.net/DTD/sodipodi-0.dtd"
   xmlns="http://www.w3.org/2000/svg"
   xmlns:svg="http://www.w3.org/2000/svg"><defs
   id="defs16" /><sodipodi:namedview
   id="namedview16"
   pagecolor="#505050"
   bordercolor="#eeeeee"
   borderopacity="1"
   inkscape:showpageshadow="0"
   inkscape:pageopacity="0"
   inkscape:pagecheckerboard="0"
   inkscape:deskcolor="#505050"
   inkscape:zoom="3.5906117"
   inkscape:cx="226.70232"
   inkscape:cy="232.96866"
   inkscape:window-width="1920"
   inkscape:window-height="1051"
   inkscape:window-x="-9"
   inkscape:window-y="562"
   inkscape:window-maximized="1"
   inkscape:current-layer="Calque_1" />&#10;    <style
   type="text/css"
   id="style1">&#10;        .st0 { fill: #F5B4D2; }&#10;        .st1 { fill: #A4195B; }&#10;        .st2 { fill: none; stroke: #A4195B; stroke-width: 5; stroke-miterlimit: 10; }&#10;        .st3 { fill: none; }&#10;        .st4 { font-family: 'Poppins-Medium'; }&#10;        .st5 { font-size: 20px; }&#10;        .st6 { fill: #FFFFFF; }&#10;&#10;        .hover-effect:hover {&#10;            transform: scale(1.1); /* You can adjust the scale factor as needed */&#10;        }&#10;    </style>&#10;    <circle
   class="st0 hover-effect"
   cx="116.6"
   cy="116.7"
   r="114"
   id="circle1" />&#10;    <circle
   class="st1 hover-effect"
   cx="116.6"
   cy="130.4"
   r="100.3"
   id="circle2" />&#10;<line
   class="st2"
   x1="116.6"
   y1="222.4"
   x2="136.8"
   y2="324.5"
   id="line2" />&#10;<line
   class="st2"
   x1="135.3"
   y1="323.3"
   x2="299.3"
   y2="323.3"
   id="line3" />&#10;<rect
   x="143"
   y="302.2"
   class="st3"
   width="152.8"
   height="14.9"
   id="rect3" />&#10;<text
   class="st1 st4 st5"
   id="text3"
   style="font-size:18.6667px"
   x="142.74139"
   y="317.85672"><tspan
     style="font-style:normal;font-variant:normal;font-weight:bold;font-stretch:normal;font-size:18.6667px;font-family:Arial;-inkscape-font-specification:'Arial Bold'"
     id="tspan16">SE PRÉINSCRIRE</tspan></text>&#10;<g
   id="g16">&#10;	<g
   id="g15">&#10;		<path
   class="st6"
   d="M108.6,100.6c-5.6,0-10.3-4.5-10.3-10.3c0-5.6,4.5-10.3,10.3-10.3c5.6,0,10.3,4.5,10.3,10.3    C118.7,95.9,114.2,100.6,108.6,100.6z M108.6,84.7c-3.1,0-5.6,2.4-5.6,5.6s2.4,5.6,5.6,5.6s5.6-2.4,5.6-5.6    C114,87.1,111.6,84.7,108.6,84.7z"
   id="path3" />&#10;		<path
   class="st6"
   d="M125.4,124.7c-1.2,0-2.3-1-2.3-2.3v-9.1c0-3.5-2.8-6.3-6.3-6.3H100c-3.5,0-6.3,2.8-6.3,6.3v9.1    c0,1.2-1,2.3-2.3,2.3c-1.2,0-2.3-1-2.3-2.3v-9.1c0-5.9,4.9-10.8,10.8-10.8h16.8c5.9,0,10.8,4.9,10.8,10.8v9.1    C127.8,123.7,126.8,124.7,125.4,124.7z"
   id="path4" />&#10;		<path
   class="st6"
   d="M101.2,124.7c-1.2,0-2.3-1-2.3-2.3v-3.3c0-1.2,1-2.3,2.3-2.3c1.2,0,2.3,1,2.3,2.3v3.3    C103.5,123.7,102.5,124.7,101.2,124.7z"
   id="path5" />&#10;		<path
   class="st6"
   d="M115.8,124.7c-1.2,0-2.3-1-2.3-2.3v-3.3c0-1.2,1-2.3,2.3-2.3c1.2,0,2.3,1,2.3,2.3v3.3    C118.2,123.7,117.2,124.7,115.8,124.7z"
   id="path6" />&#10;		<path
   class="st6"
   d="M139.4,133.5H77.6c-1.2,0-2.3-1-2.3-2.3c0-1.2,1-2.3,2.3-2.3h61.7c1.2,0,2.3,1,2.3,2.3    C141.7,132.4,140.6,133.5,139.4,133.5z"
   id="path7" />&#10;		<path
   class="st6"
   d="M139.4,145.7H77.6c-1.2,0-2.3-1-2.3-2.3s1-2.3,2.3-2.3h61.7c1.2,0,2.3,1,2.3,2.3S140.6,145.7,139.4,145.7z"
   id="path8" />&#10;		<path
   class="st6"
   d="M146.2,158H77.6c-1.2,0-2.3-1-2.3-2.3s1-2.3,2.3-2.3h68.6c1.2,0,2.3,1,2.3,2.3S147.4,158,146.2,158z"
   id="path9" />&#10;		<path
   class="st6"
   d="M132.9,170.2H77.6c-1.2,0-2.3-1-2.3-2.3c0-1.2,1-2.3,2.3-2.3h55.1c1.2,0,2.3,1,2.3,2.3    C135.2,169.2,134.1,170.2,132.9,170.2z"
   id="path10" />&#10;		<path
   class="st6"
   d="M131.7,182.5H77.6c-1.2,0-2.3-1-2.3-2.3s1-2.3,2.3-2.3h53.9c1.2,0,2.3,1,2.3,2.3    C134,181.4,132.9,182.5,131.7,182.5z"
   id="path11" />&#10;		<path
   class="st6"
   d="M144.8,198.2H64.5c-1.2,0-2.3-1-2.3-2.3V74.4c0-1.2,0.9-2.3,2.3-2.3h88c1.2,0,2.3,1,2.3,2.3v80.3    c0,1.2-1,2.3-2.3,2.3c-10.5,0-19.1,8.6-19.1,19.1c0,7.9,4.7,14.9,12.1,17.7c1,0.3,1.6,1.6,1.4,2.6S145.9,198.2,144.8,198.2z     M66.8,193.5h69.8c-4.9-4.4-7.7-10.7-7.7-17.5c0-12.2,9.4-22.4,21.3-23.6V76.8H66.8V193.5z"
   id="path12" />&#10;		<path
   class="st6"
   d="M152.5,199.6c-13.1,0-23.6-10.7-23.6-23.6c0-13.1,10.7-23.6,23.6-23.6c13.1,0,23.6,10.7,23.6,23.6    C176.3,189.1,165.6,199.6,152.5,199.6z M152.5,157.1c-10.5,0-19.1,8.6-19.1,19.1s8.6,19.1,19.1,19.1s19.1-8.7,19.1-19.2    S163,157.1,152.5,157.1z"
   id="path13" />&#10;		<path
   class="st6"
   d="M150.4,187.2c-0.7,0-1.4-0.3-1.9-0.9l-8.2-11.4c-0.7-1-0.5-2.4,0.5-3.3c1-0.7,2.4-0.5,3.3,0.5l6.5,8.9    l10-12.9c0.7-1,2.3-1.2,3.3-0.3c1,0.7,1.2,2.3,0.3,3.3l-11.9,15.2C151.8,186.8,151.1,187.2,150.4,187.2z"
   id="path14" />&#10;		<path
   class="st6"
   d="M162.3,159.4c-0.3,0-0.7,0-1-0.2c-2.8-1.4-5.6-2.1-8.6-2.1c-1.2,0-2.3-1-2.3-2.3v-78H74.1    c-1.2,0-2.3-1-2.3-2.4v-8.6c0-1.2,1-2.3,2.3-2.3h88c1.2,0,2.3,1,2.3,2.3v91.3c0,0.9-0.3,1.6-1,1.9    C163.2,159.2,162.6,159.4,162.3,159.4z M154.9,152.6c1.7,0.2,3.5,0.5,5.1,1V68.1H76.6v4h76.1c1.2,0,2.3,1,2.3,2.3V152.6z"
   id="path15" />&#10;	</g>&#10;</g>&#10;</svg>
