<?xml version="1.0" encoding="utf-8"?>
<!-- Generator: Adobe Illustrator 27.8.0, SVG Export Plug-In . SVG Version: 6.00 Build 0)  -->
<svg version="1.1" id="Calque_1" xmlns="http://www.w3.org/2000/svg" xmlns:xlink="http://www.w3.org/1999/xlink" x="0px" y="0px"
	 viewBox="0 0 264.8 327.5" style="enable-background:new 0 0 264.8 327.5;" xml:space="preserve">
<style type="text/css">
	.st0{fill:#EBF0C7;}
	.st1{fill:#95C121;}
	.st2{fill:none;stroke:#95C121;stroke-width:5;stroke-miterlimit:10;}
	.st3{fill:none;}
	.st4{font-family:'Poppins-Medium';}
	.st5{font-size:20px;}
	.st6{fill:#FFFFFF;}
</style>
<circle class="st0" cx="117.3" cy="116.7" r="114"/>
<circle class="st1" cx="117.3" cy="130.4" r="100.3"/>
<line class="st2" x1="117.5" y1="223.8" x2="94.6" y2="325.4"/>
<line class="st2" x1="97.1" y1="323.4" x2="261.1" y2="323.4"/>
<rect x="112.9" y="297.3" class="st3" width="132.4" height="14.9"/>
<text transform="matrix(1 0 0 1 115.8886 312.0734)" class="st1 st4 st5">NOS ATELIERS</text>
<g>
	<g id="XMLID_00000036937416926619936770000016919891428035867014_">
		<path id="XMLID_00000146473862729431530930000000825050347125263520_" class="st6" d="M124.1,80.9c-4.9,0-9.9,0-14.8,0
			c-0.7,0-1.5,0-2.2,0c-18.8,0-37.7,0-56.4,0c-1.2,0-2.1,1.1-2.1,2.3c0,29.9,0,59.7,0,89.6c0,1.3,0.9,2.3,2.1,2.3
			c18.1,0,36.3,0,54.3,0c0,4.6,0,9.2,0,13.6c0,1.6,1.9,3.2,3.3,2c1.5-1.3,3.1-2.5,4.6-3.8c1.2-0.9,2.2-1.9,3.4-2.7
			c0.2-0.2,0.7-0.5,1.1-0.7c0.2,0.1,0.5,0.4,0.6,0.5c0.9,0.9,2.2,1.8,3.3,2.7c1.6,1.4,3.3,2.7,5,4.1c0.9,0.8,1.9,0.5,2.5-0.2
			c0.5-0.4,0.8-0.9,0.8-1.9c0-4.6,0-9.2,0-13.6c17.8,0,35.7,0,53.5,0c0.6,0,1.2-0.2,1.4-0.6c0,0,0,0,0.1-0.1l0,0
			c0.4-0.4,0.6-0.9,0.6-1.6c0-29.9,0-59.7,0-89.6c0-1.3-0.9-2.3-2.1-2.3c-18.5,0-37.1,0-55.7,0C126.1,80.9,125.2,80.9,124.1,80.9z
			 M104.9,170.6c-17.4,0-34.7,0-52.1,0c0-28.3,0-56.5,0-84.9c17.4,0,34.7,0,52.1,0C104.9,114,104.9,142.3,104.9,170.6z M125,184.3
			c-2.2-1.9-4.5-3.6-6.7-5.5c-0.6-0.5-1.6-0.5-2.2,0c-2.2,1.9-4.6,3.8-6.8,5.5c0-32.8,0-65.7,0-98.5c0,0,0,0,0.1,0
			c4.9,0,9.9,0,14.8,0c0.2,0,0.6,0,0.8,0C125,118.6,125,151.4,125,184.3z M129.3,85.7c17.1,0,34.3,0,51.4,0c0,28.3,0,56.5,0,84.9
			c-17.1,0-34.3,0-51.4,0C129.3,142.3,129.3,114,129.3,85.7z"/>
		<path id="XMLID_00000088843428368944160310000001990447382961933212_" class="st6" d="M62.7,108c10.2,0,20.4,0,30.6,0
			c1.9,0,1.9-3.2,0-3.2c-10.2,0-20.4,0-30.6,0C60.8,104.9,60.8,108,62.7,108z"/>
		<path id="XMLID_00000142889515632214324820000000676365402761130884_" class="st6" d="M62.7,121.3c10.2,0,20.4,0,30.6,0
			c1.9,0,1.9-3.2,0-3.2c-10.2,0-20.4,0-30.6,0C60.8,118.1,60.8,121.3,62.7,121.3z"/>
		<path id="XMLID_00000085238661593189451170000004762852790300789130_" class="st6" d="M62.7,134.5c10.2,0,20.4,0,30.6,0
			c1.9,0,1.9-3.2,0-3.2c-10.2,0-20.4,0-30.6,0C60.8,131.4,60.8,134.5,62.7,134.5z"/>
		<path id="XMLID_00000010309533836121043210000013172892468932999852_" class="st6" d="M62.7,147.9c10.2,0,20.4,0,30.6,0
			c1.9,0,1.9-3.2,0-3.2c-10.2,0-20.4,0-30.6,0C60.8,144.7,60.8,147.9,62.7,147.9z"/>
		<path id="XMLID_00000147908533282396279890000018324073894701057408_" class="st6" d="M170.9,104.9c-10.2,0-20.4,0-30.6,0
			c-1.9,0-1.9,3.2,0,3.2c10.2,0,20.4,0,30.6,0C172.8,108,172.8,104.9,170.9,104.9z"/>
		<path id="XMLID_00000127019973016712137670000009842229234392644769_" class="st6" d="M170.9,118.1c-10.2,0-20.4,0-30.6,0
			c-1.9,0-1.9,3.2,0,3.2c10.2,0,20.4,0,30.6,0C172.8,121.3,172.8,118.1,170.9,118.1z"/>
		<path id="XMLID_00000155839789940756513980000018110402438391161784_" class="st6" d="M170.9,131.4c-10.2,0-20.4,0-30.6,0
			c-1.9,0-1.9,3.2,0,3.2c10.2,0,20.4,0,30.6,0C172.8,134.5,172.8,131.4,170.9,131.4z"/>
		<path id="XMLID_00000114775662973874968700000010702221503580042369_" class="st6" d="M170.9,144.7c-10.2,0-20.4,0-30.6,0
			c-1.9,0-1.9,3.2,0,3.2c10.2,0,20.4,0,30.6,0C172.8,147.9,172.8,144.7,170.9,144.7z"/>
	</g>
</g>
</svg>
