<?xml version="1.0" encoding="UTF-8" standalone="no"?>
<!-- Generator: Adobe Illustrator 27.8.0, SVG Export Plug-In . SVG Version: 6.00 Build 0)  -->

<svg
   version="1.1"
   id="Calque_1"
   x="0px"
   y="0px"
   viewBox="0 0 298.1 316.8"
   style="enable-background:new 0 0 298.1 316.8;"
   xml:space="preserve"
   sodipodi:docname="Boule_EVENEMENT_avec_icone.svg"
   inkscape:version="1.3 (0e150ed6c4, 2023-07-21)"
   xmlns:inkscape="http://www.inkscape.org/namespaces/inkscape"
   xmlns:sodipodi="http://sodipodi.sourceforge.net/DTD/sodipodi-0.dtd"
   xmlns="http://www.w3.org/2000/svg"
   xmlns:svg="http://www.w3.org/2000/svg"><defs
   id="defs15" /><sodipodi:namedview
   id="namedview15"
   pagecolor="#505050"
   bordercolor="#eeeeee"
   borderopacity="1"
   inkscape:showpageshadow="0"
   inkscape:pageopacity="0"
   inkscape:pagecheckerboard="0"
   inkscape:deskcolor="#505050"
   inkscape:zoom="2.5696075"
   inkscape:cx="149.05"
   inkscape:cy="158.19537"
   inkscape:window-width="1920"
   inkscape:window-height="1051"
   inkscape:window-x="-9"
   inkscape:window-y="562"
   inkscape:window-maximized="1"
   inkscape:current-layer="Calque_1"
   showguides="true"><sodipodi:guide
     position="124.14347,10.527532"
     orientation="0,-1"
     id="guide1"
     inkscape:locked="false" /><sodipodi:guide
     position="4.6699738,10.138368"
     orientation="1,0"
     id="guide2"
     inkscape:locked="false" /></sodipodi:namedview>&#10;<style
   type="text/css"
   id="style1">&#10;	.st0{fill:#B9E2FA;}&#10;	.st1{fill:#2C96D4;}&#10;	.st2{fill:none;stroke:#2C96D4;stroke-width:5;stroke-miterlimit:10;}&#10;	.st3{fill:none;}&#10;	.st4{font-family:'Poppins-Medium';}&#10;	.st5{font-size:20px;}&#10;	.st6{fill:#FFFFFF;}&#10;</style>&#10;<circle
   class="st0"
   cx="142.7"
   cy="115.7"
   r="114"
   id="circle1" />&#10;<circle
   class="st1"
   cx="142.7"
   cy="129.4"
   r="100.3"
   id="circle2" />&#10;<line
   class="st2"
   x1="174.3"
   y1="211.8"
   x2="185.8"
   y2="315.9"
   id="line2" />&#10;<line
   class="st2"
   x1="0.5"
   y1="313.7"
   x2="188.2"
   y2="313.7"
   id="line3" />&#10;<rect
   x="10"
   y="287.2"
   class="st3"
   width="173.1"
   height="14.9"
   id="rect3" />&#10;<rect
   x="3.4"
   y="291.4"
   class="st3"
   width="173.6"
   height="14.9"
   id="rect4" />&#10;<text
   transform="translate(3.419,306.2477)"
   class="st1 st4 st5"
   id="text4"
   style="font-size:18.6667px"><tspan
     style="font-style:normal;font-variant:normal;font-weight:bold;font-stretch:normal;font-size:18.6667px;font-family:Arial;-inkscape-font-specification:'Arial Bold'"
     id="tspan15">ÉVÉNEMENTS</tspan></text>&#10;<g
   transform="translate(-35, 0)"
   id="g15">&#10;	<g
   id="g14">&#10;		<g
   id="g13">&#10;			<path
   class="st6"
   d="M232.2,185.5c0.3-0.3-1.1,1.1,21.2-21.1l0,0c0,0,0,0,0-0.3c0,0,0-0.3,0.3-0.3v-0.3v-0.3l0,0V93.6     c0-9.3-7.6-16.6-16.9-16.6H231v-6.5c0-0.8-0.8-1.6-1.6-1.6c-0.8,0-1.6,0.8-1.6,1.6v6.4h-19.4v-6.4c0-0.8-0.8-1.6-1.6-1.6     s-1.6,0.8-1.6,1.6v6.4h-19.5v-6.4c0-0.8-0.8-1.6-1.6-1.6s-1.6,0.8-1.6,1.6v6.4h-19.5v-6.4c0-0.8-0.8-1.6-1.6-1.6     s-1.6,0.8-1.6,1.6v6.4h-19.4v-6.4c0-0.8-0.8-1.6-1.6-1.6s-1.6,0.8-1.6,1.6v6.4h-5.9c-9.3,0-16.9,7.4-16.9,16.6v90.7     c0,0.8,0.8,1.6,1.6,1.6c120.3,0,115.2,0,115.4,0h0.3C232.1,185.5,232.1,185.5,232.2,185.5z M233,180.3v-13.8l15.4-1.2L233,180.3z      M131.6,79.9h5.9v4.8c-3.6,0.8-6.5,4-6.5,7.9c0,4.3,3.6,7.9,8.1,7.9s8.1-3.6,8.1-7.9c0-3.9-2.8-7.1-6.5-7.9v-4.8H160v4.8     c-3.6,0.8-6.5,4-6.5,7.9c0,4.3,3.6,7.9,8.1,7.9c4.3,0,8.1-3.6,8.1-7.9c0-3.9-2.8-7.1-6.5-7.9v-4.8h19.4v4.8     c-3.6,0.8-6.5,4-6.5,7.9c0,4.3,3.6,7.9,8.1,7.9c4.3,0,8.1-3.6,8.1-7.9c0-3.9-2.8-7.1-6.5-7.9v-4.8h19.7v4.8     c-3.6,0.8-6.5,4-6.5,7.9c0,4.3,3.6,7.9,8.1,7.9c4.3,0,8.1-3.6,8.1-7.9c0-3.9-2.8-7.1-6.5-7.9v-4.8h19.4v4.8     c-3.6,0.8-6.5,4-6.5,7.9c0,4.3,3.6,7.9,8.1,7.9c4.3,0,8.1-3.6,8.1-7.9c0-3.9-2.8-7.1-6.5-7.9v-4.8h5.9c7.6,0,13.8,6.2,13.8,13.6     v13.8H118.1V93.6C118.1,86.1,124.2,79.9,131.6,79.9z M139.2,87.9c2.6,0,5,2,5,4.8c0,2.8-2,4.8-5,4.8c-2.8,0-5-2-5-4.8     C134.2,89.9,136.6,87.9,139.2,87.9z M161.7,87.9c2.6,0,5,2,5,4.8c0,2.8-2,4.8-5,4.8c-2.8,0-5-2-5-4.8     C156.9,89.9,159.2,87.9,161.7,87.9z M184.6,87.9c2.6,0,5,2,5,4.8c0,2.8-2,4.8-5,4.8c-2.8,0-5-2-5-4.8     C179.7,89.9,182,87.9,184.6,87.9z M207.1,87.9c2.6,0,5,2,5,4.8c0,2.8-2,4.8-5,4.8c-2.6,0-5-2-5-4.8     C202.1,89.9,204.5,87.9,207.1,87.9z M229.9,87.9c2.6,0,5,2,5,4.8c0,2.8-2,4.8-5,4.8c-2.6,0-5-2-5-4.8     C225.1,89.9,227.4,87.9,229.9,87.9z M118.1,110.5h133v51.3l-19.4,1.6c-0.8,0-1.6,0.8-1.6,1.6v17.7H118.1V110.5z"
   id="path4" />&#10;			<path
   class="st6"
   d="M142.3,119.9h-13c-0.8,0-1.6,0.8-1.6,1.6v12.9c0,0.8,0.8,1.6,1.6,1.6h13c0.8,0,1.6-0.8,1.6-1.6v-12.9     C144.2,120.7,143.4,119.9,142.3,119.9z M140.7,132.8h-9.9v-9.8h9.9V132.8z"
   id="path5" />&#10;			<path
   class="st6"
   d="M166.6,119.9h-13c-0.8,0-1.6,0.8-1.6,1.6v12.9c0,0.8,0.8,1.6,1.6,1.6h13c0.8,0,1.6-0.8,1.6-1.6v-12.9     C168.2,120.7,167.7,119.9,166.6,119.9z M165.1,132.8h-9.9v-9.8h9.9V132.8z"
   id="path6" />&#10;			<path
   class="st6"
   d="M191,119.9h-13c-0.8,0-1.6,0.8-1.6,1.6v12.9c0,0.8,0.8,1.6,1.6,1.6h13c0.8,0,1.6-0.8,1.6-1.6v-12.9     C192.5,120.7,191.8,119.9,191,119.9z M189.4,132.8h-9.9v-9.8h9.9V132.8z"
   id="path7" />&#10;			<path
   class="st6"
   d="M215.5,119.9h-13c-0.8,0-1.6,0.8-1.6,1.6v12.9c0,0.8,0.8,1.6,1.6,1.6h13c0.8,0,1.6-0.8,1.6-1.6v-12.9     C217,120.7,216.3,119.9,215.5,119.9z M213.6,132.8h-9.9v-9.8h9.9V132.8z"
   id="path8" />&#10;			<path
   class="st6"
   d="M239.5,136.1c0.8,0,1.6-0.8,1.6-1.6v-12.9c0-0.8-0.8-1.6-1.6-1.6h-13c-0.8,0-1.6,0.8-1.6,1.6v12.9     c0,0.8,0.8,1.6,1.6,1.6H239.5z M228.3,123.2h9.9v9.8h-9.9V123.2z"
   id="path9" />&#10;			<path
   class="st6"
   d="M142.3,145.5h-13c-0.8,0-1.6,0.8-1.6,1.6V160c0,0.8,0.8,1.6,1.6,1.6h13c0.8,0,1.6-0.8,1.6-1.6v-12.9     C144.2,146.3,143.4,145.5,142.3,145.5z M140.7,158.4h-9.9v-9.8h9.9V158.4z"
   id="path10" />&#10;			<path
   class="st6"
   d="M166.6,145.5h-13c-0.8,0-1.6,0.8-1.6,1.6V160c0,0.8,0.8,1.6,1.6,1.6h13c0.8,0,1.6-0.8,1.6-1.6v-12.9     C168.2,146.3,167.7,145.5,166.6,145.5z M165.1,158.4h-9.9v-9.8h9.9V158.4z"
   id="path11" />&#10;			<path
   class="st6"
   d="M191,145.5h-13c-0.8,0-1.6,0.8-1.6,1.6V160c0,0.8,0.8,1.6,1.6,1.6h13c0.8,0,1.6-0.8,1.6-1.6v-12.9     C192.5,146.3,191.8,145.5,191,145.5z M189.4,158.4h-9.9v-9.8h9.9V158.4z"
   id="path12" />&#10;			<path
   class="st6"
   d="M215.5,145.5h-13c-0.8,0-1.6,0.8-1.6,1.6V160c0,0.8,0.8,1.6,1.6,1.6h13c0.8,0,1.6-0.8,1.6-1.6v-12.9     C217,146.3,216.3,145.5,215.5,145.5z M213.6,158.4h-9.9v-9.8h9.9V158.4z"
   id="path13" />&#10;		</g>&#10;	</g>&#10;</g>&#10;</svg>
