<?xml version="1.0" encoding="utf-8"?>
<!-- Generator: Adobe Illustrator 27.8.0, SVG Export Plug-In . SVG Version: 6.00 Build 0)  -->
<svg version="1.1" id="Calque_1" xmlns="http://www.w3.org/2000/svg" xmlns:xlink="http://www.w3.org/1999/xlink" x="0px" y="0px"
	 viewBox="0 0 301.7 732.8" style="enable-background:new 0 0 301.7 732.8;" xml:space="preserve">
<style type="text/css">
	.st0{fill:#F5B4D2;}
	.st1{fill:#A4195B;}
	.st2{fill:none;stroke:#A4195B;stroke-width:3;stroke-miterlimit:10;}
	.st3{fill:none;}
	.st4{font-family:'Poppins-Medium';}
	.st5{font-size:20px;}
	.st6{fill:#FFFFFF;}
</style>
<circle class="st0" cx="116.6" cy="361" r="114"/>
<circle class="st1" cx="116.6" cy="374.7" r="100.3"/>
<line class="st2" x1="116.6" y1="466.7" x2="136.8" y2="568.8"/>
<line class="st2" x1="135.3" y1="567.6" x2="299.3" y2="567.6"/>
<rect x="143" y="546.5" class="st3" width="152.8" height="14.9"/>
<text transform="matrix(1 0 0 1 143.0199 561.3212)" class="st1 st4 st5">SE PRÉINSCRIRE</text>
<g>
	<g>
		<path class="st6" d="M108.6,344.9c-5.6,0-10.3-4.5-10.3-10.3c0-5.6,4.5-10.3,10.3-10.3c5.6,0,10.3,4.5,10.3,10.3
			C118.7,340.2,114.2,344.9,108.6,344.9z M108.6,329c-3.1,0-5.6,2.4-5.6,5.6c0,3.1,2.4,5.6,5.6,5.6s5.6-2.4,5.6-5.6
			C114,331.4,111.6,329,108.6,329z"/>
		<path class="st6" d="M125.4,369c-1.2,0-2.3-1-2.3-2.3v-9.1c0-3.5-2.8-6.3-6.3-6.3H100c-3.5,0-6.3,2.8-6.3,6.3v9.1
			c0,1.2-1,2.3-2.3,2.3c-1.2,0-2.3-1-2.3-2.3v-9.1c0-5.9,4.9-10.8,10.8-10.8h16.8c5.9,0,10.8,4.9,10.8,10.8v9.1
			C127.8,368,126.8,369,125.4,369z"/>
		<path class="st6" d="M101.2,369c-1.2,0-2.3-1-2.3-2.3v-3.3c0-1.2,1-2.3,2.3-2.3c1.2,0,2.3,1,2.3,2.3v3.3
			C103.5,368,102.5,369,101.2,369z"/>
		<path class="st6" d="M115.8,369c-1.2,0-2.3-1-2.3-2.3v-3.3c0-1.2,1-2.3,2.3-2.3c1.2,0,2.3,1,2.3,2.3v3.3
			C118.2,368,117.2,369,115.8,369z"/>
		<path class="st6" d="M139.4,377.8H77.6c-1.2,0-2.3-1-2.3-2.3s1-2.3,2.3-2.3h61.7c1.2,0,2.3,1,2.3,2.3S140.6,377.8,139.4,377.8z"/>
		<path class="st6" d="M139.4,390H77.6c-1.2,0-2.3-1-2.3-2.3s1-2.3,2.3-2.3h61.7c1.2,0,2.3,1,2.3,2.3S140.6,390,139.4,390z"/>
		<path class="st6" d="M146.2,402.3H77.6c-1.2,0-2.3-1-2.3-2.3s1-2.3,2.3-2.3h68.6c1.2,0,2.3,1,2.3,2.3S147.4,402.3,146.2,402.3z"/>
		<path class="st6" d="M132.9,414.5H77.6c-1.2,0-2.3-1-2.3-2.3s1-2.3,2.3-2.3h55.1c1.2,0,2.3,1,2.3,2.3
			C135.2,413.5,134.1,414.5,132.9,414.5z"/>
		<path class="st6" d="M131.7,426.8H77.6c-1.2,0-2.3-1-2.3-2.3c0-1.2,1-2.3,2.3-2.3h53.9c1.2,0,2.3,1,2.3,2.3
			C134,425.7,132.9,426.8,131.7,426.8z"/>
		<path class="st6" d="M144.8,442.5H64.5c-1.2,0-2.3-1-2.3-2.3V318.7c0-1.2,0.9-2.3,2.3-2.3h88c1.2,0,2.3,1,2.3,2.3V399
			c0,1.2-1,2.3-2.3,2.3c-10.5,0-19.1,8.6-19.1,19.1c0,7.9,4.7,14.9,12.1,17.7c1,0.3,1.6,1.6,1.4,2.6S145.9,442.5,144.8,442.5z
			 M66.8,437.8h69.8c-4.9-4.4-7.7-10.7-7.7-17.5c0-12.2,9.4-22.4,21.3-23.6v-75.6H66.8V437.8z"/>
		<path class="st6" d="M152.5,443.9c-13.1,0-23.6-10.7-23.6-23.6c0-13.1,10.7-23.6,23.6-23.6c13.1,0,23.6,10.7,23.6,23.6
			C176.3,433.4,165.6,443.9,152.5,443.9z M152.5,401.4c-10.5,0-19.1,8.6-19.1,19.1s8.6,19.1,19.1,19.1s19.1-8.7,19.1-19.2
			S163,401.4,152.5,401.4z"/>
		<path class="st6" d="M150.4,431.5c-0.7,0-1.4-0.3-1.9-0.9l-8.2-11.4c-0.7-1-0.5-2.4,0.5-3.3c1-0.7,2.4-0.5,3.3,0.5l6.5,8.9
			l10-12.9c0.7-1,2.3-1.2,3.3-0.3c1,0.7,1.2,2.3,0.3,3.3l-11.9,15.2C151.8,431.1,151.1,431.5,150.4,431.5z"/>
		<path class="st6" d="M162.3,403.7c-0.3,0-0.7,0-1-0.2c-2.8-1.4-5.6-2.1-8.6-2.1c-1.2,0-2.3-1-2.3-2.3v-78H74.1
			c-1.2,0-2.3-1-2.3-2.4v-8.6c0-1.2,1-2.3,2.3-2.3h88c1.2,0,2.3,1,2.3,2.3v91.3c0,0.9-0.3,1.6-1,1.9
			C163.2,403.5,162.6,403.7,162.3,403.7z M154.9,396.9c1.7,0.2,3.5,0.5,5.1,1v-85.5H76.6v4h76.1c1.2,0,2.3,1,2.3,2.3V396.9z"/>
	</g>
</g>
</svg>
