<?xml version="1.0" encoding="utf-8"?>
<!-- Generator: Adobe Illustrator 27.8.0, SVG Export Plug-In . SVG Version: 6.00 Build 0)  -->
<svg version="1.1" id="Calque_1" xmlns="http://www.w3.org/2000/svg" xmlns:xlink="http://www.w3.org/1999/xlink" x="0px" y="0px"
	 viewBox="0 0 298.1 704.1" style="enable-background:new 0 0 298.1 704.1;" xml:space="preserve">
<style type="text/css">
	.st0{fill:#B9E2FA;}
	.st1{fill:#2C96D4;}
	.st2{fill:none;stroke:#2C96D4;stroke-width:5;stroke-miterlimit:10;}
	.st3{fill:none;}
	.st4{font-family:'Poppins-Medium';}
	.st5{font-size:20px;}
	.st6{fill:#FFFFFF;}
</style>
<circle class="st0" cx="182.7" cy="452" r="114"/>
<circle class="st1" cx="182.7" cy="465.7" r="100.3"/>
<line class="st2" x1="184.3" y1="548.1" x2="185.8" y2="652.2"/>
<line class="st2" x1="0.5" y1="650" x2="188.2" y2="650"/>
<rect x="10" y="623.5" class="st3" width="173.1" height="14.9"/>
<rect x="3.4" y="627.7" class="st3" width="173.6" height="14.9"/>
<text transform="matrix(1 0 0 1 3.419 642.5477)" class="st1 st4 st5">NOS ÉVÉNEMENTS</text>
<g>
	<g>
		<g>
			<path class="st6" d="M232.2,521.8c0.3-0.3-1.1,1.1,21.2-21.1l0,0c0,0,0,0,0-0.3c0,0,0-0.3,0.3-0.3v-0.3v-0.3l0,0v-69.6
				c0-9.3-7.6-16.6-16.9-16.6H231v-6.5c0-0.8-0.8-1.6-1.6-1.6c-0.8,0-1.6,0.8-1.6,1.6v6.4h-19.4v-6.4c0-0.8-0.8-1.6-1.6-1.6
				s-1.6,0.8-1.6,1.6v6.4h-19.5v-6.4c0-0.8-0.8-1.6-1.6-1.6s-1.6,0.8-1.6,1.6v6.4h-19.5v-6.4c0-0.8-0.8-1.6-1.6-1.6
				s-1.6,0.8-1.6,1.6v6.4h-19.4v-6.4c0-0.8-0.8-1.6-1.6-1.6s-1.6,0.8-1.6,1.6v6.4h-5.9c-9.3,0-16.9,7.4-16.9,16.6v90.7
				c0,0.8,0.8,1.6,1.6,1.6c120.3,0,115.2,0,115.4,0h0.3C232.1,521.8,232.1,521.8,232.2,521.8z M233,516.6v-13.8l15.4-1.2L233,516.6z
				 M131.6,416.2h5.9v4.8c-3.6,0.8-6.5,4-6.5,7.9c0,4.3,3.6,7.9,8.1,7.9s8.1-3.6,8.1-7.9c0-3.9-2.8-7.1-6.5-7.9v-4.8H160v4.8
				c-3.6,0.8-6.5,4-6.5,7.9c0,4.3,3.6,7.9,8.1,7.9c4.3,0,8.1-3.6,8.1-7.9c0-3.9-2.8-7.1-6.5-7.9v-4.8h19.4v4.8
				c-3.6,0.8-6.5,4-6.5,7.9c0,4.3,3.6,7.9,8.1,7.9c4.3,0,8.1-3.6,8.1-7.9c0-3.9-2.8-7.1-6.5-7.9v-4.8h19.7v4.8
				c-3.6,0.8-6.5,4-6.5,7.9c0,4.3,3.6,7.9,8.1,7.9c4.3,0,8.1-3.6,8.1-7.9c0-3.9-2.8-7.1-6.5-7.9v-4.8h19.4v4.8
				c-3.6,0.8-6.5,4-6.5,7.9c0,4.3,3.6,7.9,8.1,7.9c4.3,0,8.1-3.6,8.1-7.9c0-3.9-2.8-7.1-6.5-7.9v-4.8h5.9c7.6,0,13.8,6.2,13.8,13.6
				v13.8H118.1v-13.8C118.1,422.4,124.2,416.2,131.6,416.2z M139.2,424.2c2.6,0,5,2,5,4.8c0,2.8-2,4.8-5,4.8c-2.8,0-5-2-5-4.8
				C134.2,426.2,136.6,424.2,139.2,424.2z M161.7,424.2c2.6,0,5,2,5,4.8c0,2.8-2,4.8-5,4.8c-2.8,0-5-2-5-4.8
				C156.9,426.2,159.2,424.2,161.7,424.2z M184.6,424.2c2.6,0,5,2,5,4.8c0,2.8-2,4.8-5,4.8c-2.8,0-5-2-5-4.8
				C179.7,426.2,182,424.2,184.6,424.2z M207.1,424.2c2.6,0,5,2,5,4.8c0,2.8-2,4.8-5,4.8c-2.6,0-5-2-5-4.8
				C202.1,426.2,204.5,424.2,207.1,424.2z M229.9,424.2c2.6,0,5,2,5,4.8c0,2.8-2,4.8-5,4.8c-2.6,0-5-2-5-4.8
				C225.1,426.2,227.4,424.2,229.9,424.2z M118.1,446.8h133v51.3l-19.4,1.6c-0.8,0-1.6,0.8-1.6,1.6v17.7H118.1V446.8z"/>
			<path class="st6" d="M142.3,456.2h-13c-0.8,0-1.6,0.8-1.6,1.6v12.9c0,0.8,0.8,1.6,1.6,1.6h13c0.8,0,1.6-0.8,1.6-1.6v-12.9
				C144.2,457,143.4,456.2,142.3,456.2z M140.7,469.1h-9.9v-9.8h9.9V469.1z"/>
			<path class="st6" d="M166.6,456.2h-13c-0.8,0-1.6,0.8-1.6,1.6v12.9c0,0.8,0.8,1.6,1.6,1.6h13c0.8,0,1.6-0.8,1.6-1.6v-12.9
				C168.2,457,167.7,456.2,166.6,456.2z M165.1,469.1h-9.9v-9.8h9.9V469.1z"/>
			<path class="st6" d="M191,456.2h-13c-0.8,0-1.6,0.8-1.6,1.6v12.9c0,0.8,0.8,1.6,1.6,1.6h13c0.8,0,1.6-0.8,1.6-1.6v-12.9
				C192.5,457,191.8,456.2,191,456.2z M189.4,469.1h-9.9v-9.8h9.9V469.1z"/>
			<path class="st6" d="M215.5,456.2h-13c-0.8,0-1.6,0.8-1.6,1.6v12.9c0,0.8,0.8,1.6,1.6,1.6h13c0.8,0,1.6-0.8,1.6-1.6v-12.9
				C217,457,216.3,456.2,215.5,456.2z M213.6,469.1h-9.9v-9.8h9.9V469.1z"/>
			<path class="st6" d="M239.5,472.4c0.8,0,1.6-0.8,1.6-1.6V458c0-0.8-0.8-1.6-1.6-1.6h-13c-0.8,0-1.6,0.8-1.6,1.6v12.9
				c0,0.8,0.8,1.6,1.6,1.6H239.5z M228.3,459.5h9.9v9.8h-9.9V459.5z"/>
			<path class="st6" d="M142.3,481.8h-13c-0.8,0-1.6,0.8-1.6,1.6v12.9c0,0.8,0.8,1.6,1.6,1.6h13c0.8,0,1.6-0.8,1.6-1.6v-12.9
				C144.2,482.6,143.4,481.8,142.3,481.8z M140.7,494.7h-9.9v-9.8h9.9V494.7z"/>
			<path class="st6" d="M166.6,481.8h-13c-0.8,0-1.6,0.8-1.6,1.6v12.9c0,0.8,0.8,1.6,1.6,1.6h13c0.8,0,1.6-0.8,1.6-1.6v-12.9
				C168.2,482.6,167.7,481.8,166.6,481.8z M165.1,494.7h-9.9v-9.8h9.9V494.7z"/>
			<path class="st6" d="M191,481.8h-13c-0.8,0-1.6,0.8-1.6,1.6v12.9c0,0.8,0.8,1.6,1.6,1.6h13c0.8,0,1.6-0.8,1.6-1.6v-12.9
				C192.5,482.6,191.8,481.8,191,481.8z M189.4,494.7h-9.9v-9.8h9.9V494.7z"/>
			<path class="st6" d="M215.5,481.8h-13c-0.8,0-1.6,0.8-1.6,1.6v12.9c0,0.8,0.8,1.6,1.6,1.6h13c0.8,0,1.6-0.8,1.6-1.6v-12.9
				C217,482.6,216.3,481.8,215.5,481.8z M213.6,494.7h-9.9v-9.8h9.9V494.7z"/>
		</g>
	</g>
</g>
</svg>
