<?xml version="1.0" encoding="utf-8"?>
<!-- Generator: Adobe Illustrator 27.8.0, SVG Export Plug-In . SVG Version: 6.00 Build 0)  -->
<svg version="1.1" id="Calque_1" xmlns="http://www.w3.org/2000/svg" xmlns:xlink="http://www.w3.org/1999/xlink" x="0px" y="0px"
	 viewBox="0 0 330 714.2" style="enable-background:new 0 0 330 714.2;" xml:space="preserve">
<style type="text/css">
	.st0{fill:#F7C5DA;}
	.st1{fill:#D60B53;}
	.st2{fill:none;stroke:#D60B53;stroke-width:5;stroke-miterlimit:10;}
	.st3{fill:none;}
	.st4{font-family:'Poppins-Medium';}
	.st5{font-size:20px;}
	.st6{fill:#FFFFFF;}
</style>
<circle class="st0" cx="115.2" cy="421.2" r="114"/>
<circle class="st1" cx="115.2" cy="407.5" r="100.3"/>
<line class="st2" x1="110.9" y1="243.4" x2="121.9" y2="346.8"/>
<line class="st2" x1="108.6" y1="244.1" x2="327.5" y2="244.1"/>
<rect x="111.6" y="224.1" class="st3" width="212.9" height="14.9"/>
<text transform="matrix(1 0 0 1 111.6068 238.9228)" class="st1 st4 st5">NOS OFFRES D’EMPLOI</text>
<g>
	<g id="XMLID_00000120522678454933634580000002936931825721927581_">
		<path id="XMLID_00000100344366704633656750000004505092164290517898_" class="st6" d="M175.4,370.4h-31.8V351
			c0-2.6-2.5-4.6-5.7-4.6c-0.4,0-0.7,0-0.9,0.1c-0.4,0-0.6-0.1-0.9-0.1H93.3c-0.1,0-0.2,0-0.4,0c-0.1,0-0.2,0-0.4,0
			c-3.2,0-5.7,2-5.7,4.6v19.4H55.2c-5.2,0-9.4,4.2-9.4,9.4v42.7c0,5.1,3.9,9.1,8.9,9.4v34.1c0,5.2,3.8,9.4,8.5,9.4h104.2
			c4.7,0,8.5-4.2,8.5-9.4V432c5-0.4,8.9-4.4,8.9-9.4v-42.6C184.8,374.6,180.6,370.4,175.4,370.4z M91.7,351.4
			c0.2-0.1,0.7-0.2,1.2-0.2c0.1,0,0.2,0,0.4,0h0.1h42.7c0.1,0,0.2,0,0.4,0c0.4,0.1,0.7,0.1,1.1,0c0.6-0.1,1.2,0,1.5,0.1v23.4
			c-0.2,0.1-0.5,0.2-0.9,0.2c-0.5,0-0.8-0.1-0.9-0.2v-17.8c0-1.3-1.1-2.4-2.4-2.4H95.9c-1.3,0-2.4,1.1-2.4,2.4v17.9
			c-0.2,0.1-0.5,0.2-0.9,0.2c-0.5,0-0.8-0.1-0.9-0.2V351.4z M132.3,359.2v11.2h-34V359h34V359.2z M171.2,466.2
			c0,2.6-1.7,4.7-3.8,4.7H63.1c-2.1,0-3.8-2.1-3.8-4.7v-34.1h37.1v4.4c0,5.2,4.2,9.4,9.4,9.4h16.9c5.2,0,9.4-4.2,9.4-9.4v-4.4H171
			v34.1H171.2z M101.2,436.3V423c0-2.6,2.1-4.7,4.7-4.7h16.9c2.6,0,4.7,2.1,4.7,4.7v13.3c0,2.6-2.1,4.7-4.7,4.7H106
			C103.4,441.1,101.2,438.9,101.2,436.3z M180.1,422.5c0,2.6-2.1,4.7-4.7,4.7h-43.1v-4.4c0-5.2-4.2-9.4-9.4-9.4H106
			c-5.2,0-9.4,4.2-9.4,9.4v4.4H55.2c-2.6,0-4.7-2.1-4.7-4.7v-42.6c0-2.6,2.1-4.7,4.7-4.7H87c0.1,2.5,2.5,4.5,5.7,4.5
			c3.1,0,5.5-1.9,5.7-4.5h34c0.1,2.5,2.5,4.5,5.7,4.5c3.1,0,5.5-1.9,5.7-4.5h31.8c2.6,0,4.7,2.1,4.7,4.7
			C180.1,379.9,180.1,422.5,180.1,422.5z"/>
		<path id="XMLID_00000088821992420426563790000000502397695128062371_" class="st6" d="M114.5,438c4.6,0,8.3-3.8,8.3-8.3
			c0-4.6-3.8-8.3-8.3-8.3c-4.5,0-8.3,3.8-8.3,8.3C106.1,434.2,109.9,438,114.5,438z M114.5,423.7c3.3,0,5.9,2.7,5.9,5.9
			c0,3.3-2.7,5.9-5.9,5.9c-3.3,0-5.9-2.7-5.9-5.9C108.4,426.4,111.2,423.7,114.5,423.7z"/>
	</g>
</g>
</svg>
