<?xml version="1.0" encoding="utf-8"?>
<!-- Generator: Adobe Illustrator 27.8.0, SVG Export Plug-In . SVG Version: 6.00 Build 0)  -->
<svg version="1.1" id="Calque_1" xmlns="http://www.w3.org/2000/svg" xmlns:xlink="http://www.w3.org/1999/xlink" x="0px" y="0px"
	 viewBox="0 0 1000 1000" style="enable-background:new 0 0 1000 1000;" xml:space="preserve">
<style type="text/css">
	.st0{fill-rule:evenodd;clip-rule:evenodd;fill:#FFFFFF;stroke:#646464;stroke-width:1.5;}
	.st1{font-family:'ArialMT';}
	.st2{font-size:20.9667px;}
	.st3{fill:#A3195B;}
	.st4{fill:#F39200;}
	.st5{fill:#2897D5;}
</style>
<image style="overflow:visible;opacity:0.2;enable-background:new    ;" width="3469" height="3795" xlink:href="FAE8B3F9C3079CBB.png"  transform="matrix(0.24 0 0 0.24 117.8348 36.7144)">
</image>
<path id="path24374_00000051382434418405987660000005746330266257786503_" class="st0" d="M315.8,746.5l-13.3,4l5.3,27l15.9,45.6
	c0,0,4.1,16,4.4,18.4c0.1,0.5,0.5,1,1.2,1.4c0.7,0.3,1.5,0.4,2.3,0.5c1.6,0.3,3.3,0.1,3.3,0.1l11.1,5.9l12-4.4l9.6-6.4l-2.9-18.4
	l-12.9,0.5l-2.9-16l-7.5-23.3l-7.3-25.6l-6.2-7l-2.6-2.3H315.8z"/>
<path id="path24282_00000178894851830370100450000003974862767872128166_" class="st0" d="M609.3,650.4c1,2.7,1.4,5.2,1.5,7.3
	s0,3.7-0.4,4.9l-4.5,1.6l-5.1,14.9l-6.2,1.2l-0.8,27l-7.5,17.1l-2.9,15.3l-21.2-6.3l-8.8-1.6l-20.8,38.6l7.1,4.9l-4.5,18.4l0.4,25.8
	l1.2,6.7l-7.1,23.3l27,13.7v5.5l54.5,24.1l6.2,1c0,0,2.5-7.3,5.5-14.8c1.5-3.8,3-7.7,4.5-10.8c0.7-1.5,1.4-2.9,2.1-4
	c0.5-1.1,1.1-1.9,1.6-2.2c3.6-2.9,18.2-14.7,18.2-14.7l10.5-30l8.8,3l30-18.2l1.2-11.8h18.8l6.4-7.1l24.1-12.3v-11.8l8.2-8.8
	l-14.7-14.7l-4.1-10.5l-10.5,7.1l-7.1-10c0,0-1.1-9.5-1.8-12.9c-0.1-0.4-0.7-0.8-1.5-1.1c-1-0.3-2.2-0.4-3.7-0.5
	c-3-0.3-7.1-0.1-11.1,0c-8.1,0.3-15.9,1-15.9,1l-17.7,4.1L657,696.4h-17.7l-1.2-22.3l-11.8-10c-1.1-1-2.2-2.6-3.3-4.1
	c-0.5-0.8-1.2-1.5-1.9-2.1c-0.7-0.5-1.4-1-2.2-1.1c-1-0.1-2.1-0.5-3.2-1.1c-1.1-0.5-2.2-1.4-3.2-2.1
	C610.8,652.1,609.4,650.6,609.3,650.4z"/>
<path id="path24276_00000077299235513742850940000014881952672234465416_" class="st0" d="M385.5,545.7l7.1,23.7l6.7,26.2
	c0,0,2.3,1.6,4.8,3.8c1.2,1.1,2.3,2.3,3.3,3.6c0.4,0.7,0.8,1.2,1.1,1.9c0.3,0.5,0.4,1.2,0.4,1.6l-9.2,4.8c0,0,1,4,1.9,8.2
	s1.9,8.6,1.9,9.7c0,0.5-0.4,1-1.1,1.5c-0.7,0.4-1.5,0.8-2.5,1.2c-1.8,0.7-3.6,1.1-3.6,1.1l14.5,42.5l-6.3,5.5l4.5,4.1
	c0,0,2.3,9.9,4.8,19.9c2.3,10,4.8,20.3,4.8,21.4c0,2.1-2.1,13.7-2.1,15.8c0,0.5,1,1.5,2.3,2.9s3.3,2.9,5.1,4.4
	c3.7,3,7.5,5.6,7.5,5.6l14.9,3.7c0,0-0.7,4.4-1.4,9.2c-0.7,4.8-1.2,10-1.1,11.6c0,0,1.5,5.8,2.9,11.8c1.5,6,2.9,12.5,2.9,13.7
	c0,0.3,0.3,0.5,0.8,0.7c0.5,0.1,1.4,0.1,2.2,0.1c1.8,0,4.2-0.3,6.7-0.5c4.9-0.7,9.7-1.5,9.7-1.5l5.9-5.3l24.5,7.9
	c0,0-1.1-5.5-2.3-11.4c-1.1-5.9-2.2-12.1-2.2-13.6s-0.7-5.9-1.5-10s-1.5-7.8-1.5-7.8l8.8-29.2l7.4-19.6l-10-0.8l-2.5-32.1h7.9
	l-4.2-12.1l4.2-10l-5.5-7.5l-1.6-15.3c0.3-12.5,0.4-18.1,0.7-20c0.1-0.8,1.2-2.2,3.4-4.8c2.2-2.6,5.5-6.3,10-11.8l-13.7-12.1
	l-14.9-2.9L463,576c0-1,0.1-1.9,0.4-2.9s0.5-1.9,0.8-2.7c0.3-1,0.5-1.9,0.8-2.7s0.4-1.9,0.4-2.7l5.9-12.5c-1.4-1.9-2.6-3.8-3.6-5.9
	c-1-2.1-1.6-3.8-2.2-5.9c-1.2-3.8-1.8-7.8-2.6-11.6v-6.2l-17.9,7.9l-20.4,6.2c0,0-2.5,0.7-5.3,1.5c-2.9,0.7-6,1.5-7.5,1.5
	s-8.1,1.5-14.4,3.2C391.4,544.1,385.5,545.7,385.5,545.7z"/>
<path id="path24156_00000116930188339299057460000013369687258945934516_" class="st0" d="M682,438.8l-34.5,1.6l-20.8,4.2L603,452
	l-27.5,10l-30,16.2l-29.2,13.7l-29.2,16.7l-13.3,6.2l-10.8,7.5v6.2c0.7,3.8,1.4,7.8,2.6,11.6c0.5,1.9,1.4,3.8,2.2,5.9
	c0.8,2.1,2.1,3.8,3.6,5.9l-5.9,12.5c0,1-0.1,1.9-0.4,2.7s-0.5,1.9-0.8,2.7c-0.3,1-0.7,1.9-0.8,2.7c-0.3,1-0.4,1.9-0.4,2.9l19.2,9.6
	l14.9,2.9l13.7,12.1l9.2-11.2l5.9-7.9c0,0,3.7-0.1,7.5,0.1c1.9,0.1,3.8,0.3,5.3,0.5c0.7,0.1,1.4,0.4,1.8,0.5
	c0.4,0.3,0.7,0.5,0.8,0.8c0.4,2.5,1.6,7.9,1.6,7.9l32.9,0.8l1.2,12.9l15.3-8.4l6.7,7.1l-4.5,14.5l10,22.5c0,0,0.8,1.4,1.8,3.3
	c1,1.9,2.2,4.4,2.9,6.6c0.1-0.4,1-1,2.3-1.4s3.2-1,5.1-1.4c4-0.8,8.8-1.8,11.9-2.6l8.2-13l-5.9-22.9l7.7-6.4l9.5,0.5l20,0.7l-3-22.3
	l3.6-15.9l12.3,8.8l10.5,2.3l6.2-47.4l8.8-24.5l1.6-20.4c0.7-1,1.2-2.6,1.6-4.8c0.4-2.1,0.7-4.5,1-7.1c0.3-2.5,0.5-5.1,0.8-7.3
	s0.7-4.1,1.2-5.5c1.1-2.5,2.3-6.6,3.3-10s1.6-6.2,1.6-6.2l-23.3-5.5L682,438.8z"/>
<path id="path24152_00000010294969669898682100000016667138819330056099_" class="st0" d="M369.2,380.9l-3.3,4.1l2.5,13.3l-3.7,2.5
	c0,0,0,4.1,0,5.9c0,0.8,0.4,4.5,0.7,8.2c0.1,1.8,0.1,3.7,0.1,5.1c0,1.5-0.1,2.5-0.4,2.7l12.5,14.1c0,0,1.1,2.7,2.1,5.6
	c1.1,2.9,2.1,6,2.1,6.8s3.4,7.4,6.8,13.7s6.8,12.5,6.8,12.5l11.6,5.9l3.3,9.2l-9.2,4.9l0.8,4.5l14.1-3.3l9.2,19.6l-0.4,20l20.4-6.2
	l17.9-7.9l0.8-7.1c0,0,2.3-2.3,4.8-4.7c2.5-2.3,5.2-4.7,6-4.9c0.4-0.1,1.1-0.7,1.8-1.5s1.6-1.9,2.3-3c1.5-2.2,2.9-4.2,2.9-4.2
	s0.1-1.1,0.7-2.5c0.3-0.7,0.5-1.2,1-1.8c0.4-0.5,0.8-1,1.4-1.2c2.1-0.8,19.2-7.5,19.2-7.5l-3.3-7.1l0.8-32.9l-7.1-3.3l-1.6-7.9v-9.2
	l-12.5-4.9l-5.9-2.9v-12.9c-0.8-0.4-32.5-2.1-32.5-2.1l-44.1-0.8h-7.9l-2.7-3.4l-8.5-3.2L369.2,380.9z"/>
<path id="path24148_00000031201131248983955330000008822126433076819868_" class="st0" d="M255.7,233.7L264,247v14.1l32.5,15.8
	l4.9-9.2l4.9-30.8l13.3-12.5h14.9c0,0,0-30,0-35.7c0-1.5-0.3-3.7-0.7-6.4c-0.4-2.7-1-5.5-1.4-8.4c-1.1-5.5-2.1-10.3-2.1-10.3
	l-10-15.8l-18.4,4.9c0,0-5.6,2.1-11.5,4.1c-5.9,2.1-12.2,4.2-13.4,4.2l-37.4,2.5c0,0-0.4,3.6-1,7.5c-0.3,1.9-0.7,4.1-1.1,5.9
	c-0.4,1.8-0.8,3.3-1.2,4.1c-0.3,0.4-0.1,0.8,0.1,1.1c0.3,0.3,0.7,0.5,1.2,0.8c1.2,0.4,2.9,0.8,4.7,1c3.6,0.4,7.3,0.4,7.3,0.4l6.7,10
	c0,0,0.1,6.7,0.1,14.9c0,4.1,0,8.6-0.1,12.9C256.3,226.6,256.1,230.6,255.7,233.7z"/>
<path id="path24146_00000080177358398149650170000007718055331658414268_" class="st0" d="M126.8,321c0,0,6.3,13.1,12.5,26.7
	c3.2,6.8,6.2,13.7,8.5,19.2s4,9.6,4,10.7c0,0.5,0.1,0.8,0.5,0.8s1-0.1,1.5-0.4c1.2-0.5,2.9-1.8,4.5-3c3.3-2.6,6.7-5.8,6.7-5.8
	l11.9,14.7l7.3-7.1l18.4,21.6l34.1,10.8l11.6-7.5l5.5,14.5l14.5-3.7l20,5.9l7.5-2.5l2.5-45.7c0-0.4,0.3-0.8,0.4-1.4
	c0.1-0.5,0.1-1.2-0.3-2.2c-0.7-1.9-2.1-4.2-3.6-7c-1.5-2.7-3.4-5.6-5.1-8.5c-1.6-2.9-3.2-5.6-4.1-7.8c-0.4-1.1-0.8-2.2-1-3
	c-0.1-0.8-0.1-1.6,0.1-2.2c0.8-1.6,1.9-4.2,3-7.5c1.2-3.2,2.5-6.8,3.6-10.5c1.1-3.6,2.2-7.1,3-10s1.2-4.9,1.2-5.8
	c0-3.3,0.8-27.4,0.8-27.4L264,261.1V247l-8.4-13.3L236.5,247c0,0-2.1,1.5-4.2,2.5c-1.1,0.5-2.2,1-3.2,1c-0.4,0-0.8,0-1.2-0.1
	s-0.5-0.4-0.7-0.8l-21.6,28.2l-20,24.1c0,0-12.7,0.3-25.9,1c-6.6,0.3-13.3,0.8-18.5,1.4c-2.6,0.3-4.8,0.5-6.6,0.8
	c-1.6,0.3-2.9,0.7-3.2,1c-0.4,0.4-1,1.6-1.5,3.2c-0.5,1.5-1.1,3.3-1.6,5.1C127.6,317.7,126.8,321.1,126.8,321z"/>
<path id="path24002_00000093886939000156075460000000767396626449027204_" class="st0" d="M595.9,251.8c-1,0.7-2.3,1.6-2.6,1.8
	c-1,0.7-2.1,1.5-2.9,2.3c-0.8,0.7-1.4,1.4-1.5,1.9c-0.4,1.6-11.2,30.4-11.2,30.4l-17,39.6L569,349l4.5,27l-7.5,31.2l1.6,7.1
	c0,0,10.8-10,12.9-11.6c0.5-0.4,1.5-2.2,2.9-4.5c1.2-2.3,2.7-5.3,4.2-8.4c2.9-5.9,5.5-11.6,5.5-11.6l9.2,0.8l17.8,7.9l1.2-8.4
	c0,0,6.3,1.1,12.9,2.2c3.3,0.5,6.7,1.1,9.5,1.4s4.8,0.4,5.6,0.3c0.7-0.3,1.9-0.8,3.3-1.8c1.4-1,3-2.1,4.8-3.2c3.4-2.3,6.8-4.7,9-5.5
	c2.1-0.8,9.2-4.8,15.8-8.5s12.6-7.3,12.6-7.3l-1-4.8v-3.7l-0.7,0.7l-4.1-5.9l-11.2-17.7c0,0-16.4-14.1-18.8-14.7
	c-2.3-0.5-2.3-15.9-2.3-15.9l-20.5-5.9l-12.3-17.7l-7.7-12.3l-20-5.3L595.9,251.8z"/>
<path id="path23996_00000129169006260956984920000015717059161604295591_" class="st0" d="M364.4,292.7l-5.3,0.5l-31.8-5.6
	l-15.8-8.4l-14.9-2.5c0,0-0.8,24.1-0.8,27.4c0,0.8-0.4,3-1.2,5.8c-0.8,2.9-1.8,6.3-3,10c-1.1,3.6-2.5,7.3-3.6,10.5
	c-1.2,3.2-2.2,5.9-3,7.5c-0.3,0.5-0.3,1.2-0.1,2.2c0.1,0.8,0.4,1.9,1,3c1,2.3,2.5,5.1,4.1,7.8c1.6,2.9,3.4,5.8,5.1,8.5
	c1.5,2.7,2.9,5.1,3.6,7c0.4,1,0.3,1.6,0.3,2.2c-0.1,0.5-0.4,1-0.4,1.4l32.5-9.2l3.3,14.1h6.7l4.9-11.6l23.7,17.5l9.6,12.5l8.5,3.2
	l0.3-0.4l0,0l1.8-10l-2.3-11.2v-8.8l17.1-11.8l-4.1-7.1l-11.2-3l-3-11.2l0.5-11.8l2.3-21.8l-10-3l-14.7-1.2L364.4,292.7z"/>
<path id="path23994_00000107554716917551747200000017598185717917289369_" class="st0" d="M338.7,119.5l-1.4,11.9l5.9,10l-22.5,6.7
	l10,15.8c0,0,1.1,4.8,2.1,10.3c0.5,2.7,1.1,5.8,1.4,8.4s0.7,4.9,0.7,6.4c0,5.9,0,35.7,0,35.7H320l-13.3,12.5l-4.9,30.8l-4.9,9.2
	l14.9,2.5l15.8,8.4l31.8,5.6l5.3-0.5l1.4-11.2l13,4.8l8.8-4.1l6.4-23.6l4.7-17.7l11.8-62.3l5.9-18.8l-18.2-6.4l-12.3-6.4l-20.5-18.2
	l-11.2,5.3l-13.6-13L338.7,119.5z"/>
<path id="path23992_00000016054333127222576440000017760030052604843412_" class="st0" d="M157.2,156.3l1.6,1.5l6.8,10.1l20,11.6
	L213,212c0,0,3.3,8.5,6.7,17.5c3.4,8.9,7,18.4,7.4,20c0.1,0.4,0.3,0.7,0.7,0.8s0.7,0.1,1.2,0.1c1-0.1,2.1-0.4,3.2-1
	c2.2-1.1,4.2-2.5,4.2-2.5l19.2-13.3c0.4-3.2,0.7-7.1,0.8-11.4c0.1-4.2,0.1-8.8,0.1-12.9c0-8.2-0.1-14.9-0.1-14.9l-6.7-10
	c0,0-3.7,0-7.3-0.4c-1.8-0.3-3.4-0.5-4.7-1c-0.5-0.3-1-0.5-1.2-0.8c-0.3-0.3-0.3-0.7-0.1-1.1c0.4-0.8,0.8-2.3,1.2-4.1
	s0.7-3.8,1.1-5.9c0.7-4,1-7.5,1-7.5l37.4-2.5c1.2,0,7.5-2.1,13.4-4.2c5.9-2.1,11.5-4.1,11.5-4.1l18.4-4.9l22.5-6.7l-5.9-10l1.4-11.9
	l-7-5.6v-8.8l1.2-14.1l-17.1-13.6c0,0-7.7-10.5-11.2-12.9C300.7,62,289,49,289,49l-5.3-3.6l-15.9,4.8l-7.1,5.9h-15.3l-12.9,1.2
	l-4.8,4.1l-15.3,9.5l-10-0.5l-12.3-4.7L168.3,71c0,0,0.5,10.5,0.5,14.1s6.4,15.9,6.4,15.9l8.2,8.8l-4.7,7.1L164,130.7v7.7l-7.7,8.2
	l1.2,10L157.2,156.3z"/>
<path id="path24376_00000148629871239124218040000003498715107291437712_" class="st0" d="M367.4,838.4l-9.6,6.4l-11.9,4.4
	l-11.1-5.9c0,0-1.6,0.1-3.3-0.1c-0.8-0.1-1.6-0.3-2.3-0.5c-0.7-0.3-1.1-0.7-1.2-1.4c-0.3-2.3-4.4-18.4-4.4-18.4l-8.5,4.4v4.8
	l-9.5,8.8l6.4,13l-8.2,7.7c0,0-2.6-1.5-5.6-3c-1.5-0.7-3-1.5-4.4-2.1s-2.5-1-3-1s-1.8,0.8-3.3,2.1c-1.5,1.2-3.3,3-4.9,4.7
	c-3.4,3.4-6.4,6.7-6.4,6.7l10.1,18.4c0,0,0.3,4.8,1.1,9.7c0.4,2.5,1,4.9,1.8,6.8c0.4,1,0.8,1.8,1.4,2.3s1.1,1,1.6,1.1
	c1.2,0.3,3.7,0.1,6.8,0.1c3-0.1,6.6-0.4,10-0.7c6.8-0.5,13.1-1.1,13.1-1.1l8.4,11.6L363,914l4.2-0.8l10-10.8l5.9-10
	c-0.7-2.2-1-4.5-1.4-6.8c-0.3-2.3-0.5-4.7-1.2-6.8c-0.3-1.1-0.7-2.2-1.4-3.2c-0.5-1.1-1.2-2.1-2.2-3c-1-1-1.9-1.8-3.3-2.6
	s-2.9-1.5-4.8-2.1l4.9-12.9l0.5-14.1L367.4,838.4z"/>
<path id="path24278_00000006666705319526947920000008253851036941872029_" class="st0" d="M511.1,600.1c-4.5,5.5-7.8,9.2-10,11.8
	s-3.3,4-3.4,4.8c-0.3,1.9-0.4,7.5-0.7,20l1.6,15.3l5.5,7.5l-4.2,10l4.2,12.1h-7.9l2.5,32.1l10,0.8l-7.4,19.6l-8.8,29.2
	c0,0,0.7,3.7,1.5,7.8s1.5,8.5,1.5,10s1.1,7.7,2.2,13.6c1.1,5.9,2.3,11.4,2.3,11.4l10.8,6.7c0,0-1.9,6.7-4,13.6c-1.9,7-4,14.2-4,15.5
	c0,0.3,0.4,0.7,1.2,1.1c0.7,0.4,1.8,0.8,3,1.2c2.6,0.8,5.9,1.8,9.3,2.6c6.7,1.6,13.6,3,13.6,3l7.1-23.3l-1.2-6.7l-0.4-25.8l4.5-18.4
	l-7.1-4.9l20.8-38.6l8.8,1.6l21.2,6.3l2.9-15.3l7.5-17.1l0.8-27l6.2-1.2l5.1-14.9l4.5-1.6c0.4-1.1,0.5-2.9,0.4-4.9
	c-0.1-2.1-0.7-4.5-1.5-7.3c-0.7-2.2-1.9-4.7-2.9-6.6c-1-1.9-1.8-3.3-1.8-3.3l-10-22.5l4.5-14.5l-6.7-7.1l-15.3,8.4l-1.2-12.9
	l-32.9-0.8c0,0-1.2-5.3-1.6-7.9c0-0.3-0.3-0.5-0.8-0.8c-0.4-0.3-1.1-0.4-1.8-0.5c-1.5-0.3-3.4-0.4-5.3-0.5c-3.8-0.3-7.5-0.1-7.5-0.1
	l-5.9,7.9L511.1,600.1z"/>
<path id="path24274_00000090273995869073243170000003586321213856506556_" class="st0" d="M286.1,583.1l1.6,7.9l-15.2,8.8l-10.7,4.1
	c0,0,0.1,1.2,0.5,2.5c0.3,0.7,0.5,1.2,1,1.6c0.4,0.4,1,0.8,1.8,0.8s1.6-0.3,2.7-0.7s2.2-0.8,3.2-1.4c2.1-1,3.7-1.9,3.7-1.9l4.5,2.3
	l7-6.2l22.3-12.3l4.1,6.4l7.1,25.9l3.6-1.2l7.7,11.8l1.2,10.5l-7.7,5.3l9.5,35.3l7.7,24.1c0,0-4.4,0.4-8.9,1.2
	c-2.2,0.4-4.5,0.8-6.2,1.4c-0.8,0.3-1.6,0.5-2.2,0.8c-0.5,0.3-0.8,0.5-1,0.8l-3.6,15.3l-9.5,5.9l4.7,10l0.7,4.2h9.3l2.6,2.3l6.2,7
	l7.3,25.6l7.5,23.3l2.9,16l12.9-0.5l2.9,18.4l7,2.6l3.6-7.1l12.1-16.3l-2.9-7.5l12.1-29.2l19.6,8.4l7.1-12.5l18.4,2.5
	c-0.3-1.6,0.4-6.8,1.1-11.6s1.4-9.2,1.4-9.2l-14.9-3.7c0,0-3.7-2.7-7.5-5.6c-1.9-1.5-3.7-3-5.1-4.4s-2.3-2.3-2.3-2.9
	c0-2.1,2.1-13.7,2.1-15.8c0-1.1-2.5-11.4-4.8-21.4s-4.8-19.9-4.8-19.9l-4.5-4.1l6.3-5.5l-14.5-42.5c0,0,1.8-0.4,3.6-1.1
	c0.8-0.3,1.8-0.7,2.5-1.2c0.7-0.4,1.1-1,1.1-1.5c0-1.1-1-5.5-1.9-9.7s-1.9-8.2-1.9-8.2l9.2-4.8c0-0.5-0.1-1.1-0.4-1.6
	s-0.7-1.2-1.1-1.9c-1-1.2-2.1-2.5-3.3-3.6c-2.3-2.2-4.8-3.8-4.8-3.8l-6.7-26.2l-7.1-23.7l-13.7,3.3l-20.4,5.5c0,0-18.4,6.3-20.4,6.7
	c-1.1,0.3-6,2.3-10.7,4.5c-4.8,2.2-9.2,4.2-9.2,4.2L286.1,583.1z"/>
<path id="path24154_00000069377474125509904440000010441585699661837210_" class="st0" d="M504,484.1c0,0-17.1,6.7-19.2,7.5
	c-0.5,0.3-1,0.7-1.4,1.2s-0.7,1.2-1,1.8c-0.4,1.2-0.7,2.5-0.7,2.5s-1.4,2.1-2.9,4.2c-0.8,1.1-1.6,2.2-2.3,3
	c-0.7,0.8-1.4,1.5-1.8,1.5c-0.8,0.3-3.6,2.6-6,4.9s-4.8,4.7-4.8,4.7l-0.8,7.1L474,515l13.3-6.2l29.2-16.7l29.2-13.7l30-16.2l27.5-10
	l23.7-7.4l20.8-4.2l34.5-1.6v-11.6l-2.9-17.1l-8.8,3.7l-20,1.2v-4.8l12.5-9.2l-2.9-8.4l-9.2,5.9l-2.5-5.3l-16.2-2.9l-12.1-3.7
	l-17.8-7.9l-9.2-0.8c0,0-2.6,5.8-5.5,11.6c-1.4,3-2.9,6-4.2,8.4c-1.2,2.3-2.3,4.1-2.9,4.5c-2.1,1.6-12.9,11.6-12.9,11.6l-10-7.1
	l-8.4-11.2L538,393l7.1,17.9l9.6,12.1c0,0,0.1,3.3,0.7,6.7c0.3,1.8,0.4,3.6,0.8,5.1c0.4,1.5,0.7,2.7,1.1,3.3c0.8,1.1,2.5,5.3,4,9.3
	s2.7,7.8,2.7,7.8l-19.6,9.6l-20.4,8.4L504,484.1z"/>
<path id="path24150_00000127732192274555887200000015703397749637780378_" class="st0" d="M298.1,370.1l-2.5,45.7l-7.5,2.5l-20-5.9
	l-14.5,3.7c0,0-1.1,2.1-2.1,4.4c-0.4,1.2-0.8,2.5-1,3.6c0,0.5-0.1,1.1,0,1.6s0.3,1,0.4,1.4c1.1,1.5,2.2,3.7,3,5.6s1.5,3.6,1.5,3.6
	l-2.9,7.9c0,0,5.3,4.1,10.7,8.6c2.7,2.2,5.3,4.5,7.4,6.3c2.1,1.9,3.4,3.3,3.6,3.8c0.3,1.1,0.1,5.1,0.3,8.9c0,3.8,0.1,7.7,0.5,8.5
	c0.8,1.6,7.1,20,7.9,22.1c0.4,1.1,1.1,4.7,1.5,8.4c0.5,3.7,1,7.3,1,8.4s0.1,5.9,0.1,10.7c0,2.3,0,4.8-0.1,6.6s-0.4,3.2-0.8,3.6
	c-0.8,0.7-2.5,1.5-3.7,2.6c-0.7,0.5-1.2,1-1.8,1.5c-0.4,0.5-0.8,1-0.8,1.4l-10.3,19l-7.5,11.6l1.2,11.6l-8.8,6.7l4.4,4.1
	c0,0,3.7-1.9,7.7-4s8.2-4.1,9.2-4.2c1-0.1,4-2.1,6.6-3.7c2.6-1.8,5.1-3.4,5.1-3.4l24.9-13.3c0,0,4.5-2.1,9.2-4.2
	c4.8-2.2,9.7-4.2,10.7-4.5c2.1-0.4,20.4-6.7,20.4-6.7l20.4-5.5l13.7-3.3c0,0,5.9-1.5,12.2-3.2c6.3-1.5,13-3.2,14.4-3.2
	s4.7-0.7,7.5-1.5c2.9-0.7,5.3-1.5,5.3-1.5l0.4-20l-9.2-19.6l-14.1,3.3l-0.8-4.5l9.2-4.9l-3.3-9.2l-11.6-5.9c0,0-3.4-6.2-6.8-12.5
	s-6.8-12.9-6.8-13.7s-1.1-4-2.1-6.8c-1.1-2.9-2.1-5.6-2.1-5.6l-12.6-14c0.3-0.3,0.4-1.4,0.4-2.7c0-1.5,0-3.3-0.1-5.1
	c-0.3-3.7-0.7-7.4-0.7-8.2c0-1.6,0-5.9,0-5.9l3.7-2.5l-2.5-13.3l3.3-4.1l-23.7-17.5l-4.9,11.6h-6.7l-3.3-14.1L298.1,370.1z"/>
<path id="path24006_00000083085912575008664020000013502725452439866293_" class="st0" d="M757,345.1l-0.4,1.2l7.4,8.1l0.4,12.9
	c0,0-5.9-0.4-11.2-0.4c-1.4,0-2.5-0.4-3.3-1c-0.8-0.5-1.5-1.4-1.9-2.2c-0.8-1.5-1.1-3.2-1.1-3.2l-7.5,2.5c0,0,0,4.9,0,6.6
	c0,0.4,0.8,0.8,1.9,1.2s2.6,0.7,4.1,1.1c3,0.7,6,1.1,6,1.1l-6.7,19.2l-2.1,8.4l-6.7,2.5l-2.9,6.7l-10-6.3l-12.9-2.9l-0.8,10.4
	l-30.4-0.8l2.9,17.1v11.6l12.5-0.4l23.3,5.5l20,4.5l20.8,7.5l26.2,14.5l26.2,12.9l22.5,15.9l25.3,18.4l7.1-10l2.5-7.9l-1.2-7.9
	l11-17.9l-1.6-2.5l-5.9-1.6l0.8-4.5l12.1-7.5l10-8.8l12.1-2.5L903,435l0.8-11.2l13.3-0.4l7-4.5l3-2.7L916,398.9c0,0-5.9-10.5-6.4-13
	c-0.5-2.3-16.4-13.6-16.4-13.6l-5.9-14.7l-28.8,3.6c0,0-27.1,11.8-29.4,11.8c-2.3,0,0-11.2,0-11.2l-24.7-6.4l-7.7-11.2l-18.2-13.6
	c0,0-4.1,7.1-7.1,10c-2.9,2.9-13.6,5.3-13.6,5.3L757,345.1z"/>
<path id="path24004_00000074419341727628060160000008174368913093225140_" class="st0" d="M693.5,347.4v3.7l1,4.8
	c0,0-6,3.6-12.6,7.3c-6.6,3.7-13.6,7.7-15.8,8.5c-2.1,0.8-5.6,3.2-9,5.5c-1.6,1.1-3.4,2.2-4.8,3.2c-1.4,1-2.6,1.5-3.3,1.8
	s-2.9,0.1-5.6-0.3c-2.7-0.3-6.2-0.8-9.5-1.4c-6.6-1.1-12.9-2.2-12.9-2.2l-1.2,8.4l12.1,3.7l16.2,2.9l2.5,5.3l9.2-5.9l2.9,8.4
	l-12.5,9.2v4.5l20-1.2l8.8-3.7l30.4,0.8l0.8-10.4L723,403l10,6.3l2.9-6.7l6.7-2.5l2.1-8.4l6.7-19.2c0,0-3-0.4-6-1.1
	c-1.5-0.3-3-0.7-4.1-1.1s-1.9-0.8-1.9-1.2c0-1.6,0-6.6,0-6.6l7.5-2.5c0,0,0.3,1.5,1.1,3.2c0.4,0.8,1.1,1.5,1.9,2.2
	c0.8,0.5,1.9,1,3.3,1c5.3,0,11.2,0.4,11.2,0.4l-0.4-12.9l-7.4-8.1l0.4-1.2l-13.6-7.5L727,324.8c0,0-11.2,1.2-14.1,1.2
	c-2.9,0-0.5,11.8-0.5,11.8l-9.5,1.2L693.5,347.4z"/>
<path id="path24000_00000141428493834112249160000001932074963951520190_" class="st0" d="M473.4,366l6,0.3l22.9,9.6l10.4-10
	l9.6,7.9l10-1.2l5.9,20.4l11.2,2.9l8.4,11.2l10,7.1l-1.6-7.1l7.5-31.2l-4.5-27l-8.4-21.2l17-39.6c0,0,10.8-28.6,11.2-30.4
	c0.1-0.4,0.7-1.1,1.5-1.9c0.8-0.7,1.9-1.5,2.9-2.3c0.3-0.3,1.8-1.2,2.6-1.8l2.2-14.4l0.7-12.9l-12.3-11.8l-17-11.8l-7.7,7.1l1.2,13
	c0,0-14.1,8.8-16.4,10.5c-2.3,1.8-3.6,8.8-3.6,8.8l-15.3,8.9l-8.2,5.3v17.1l-31.2,20v11.8l-8.2,23.6v18.2L473.4,366z"/>
<path id="path23998_00000041292364815610805340000014696724610769255344_" class="st0" d="M387.6,396.3l-0.3,0.4l2.7,3.4h7.9
	l44.1,0.8c0,0,31.6,1.6,32.5,2.1v12.9l5.9,2.9l12.5,4.9v9.2l1.6,7.9l7.1,3.3l-0.8,32.9l3.3,7.1l20-11.2l20.4-8.4l19.6-9.6
	c0,0-1.2-3.7-2.7-7.8c-1.5-4-3.2-8.2-4-9.3c-0.4-0.5-0.8-1.8-1.1-3.3s-0.5-3.3-0.8-5.1c-0.4-3.4-0.7-6.7-0.7-6.7l-9.6-12.1
	l-7.1-17.9l-5.9-20.4l-10,1.2l-9.6-7.9l-10.4,10l-22.9-9.6l-6-0.3v0.1c0,0-19.4-2.3-21.8-1.8c-2.3,0.5-11.8,15.3-11.8,15.3l-3-7.1
	l-12.3-10.5l-4.1,18.2h-8.8l-9.5,10L387.6,396.3z"/>
<text transform="matrix(1 0 0 1 503.9331 550.6064)" class="st1 st2">Les Mureaux</text>
<text transform="matrix(1 0 0 1 739.2915 435.7989)" class="st1 st2">Vaux-sur-Seine</text>
<text transform="matrix(1 0 0 1 470.6089 304.7603)" class="st1 st2">Gaillon-</text>
<text transform="matrix(1 0 0 1 470.6089 330.9683)" class="st1 st2">sur-</text>
<text transform="matrix(1 0 0 1 470.6089 357.1763)" class="st1 st2">Montcient</text>
<text transform="matrix(1 0 0 1 584.189 313.0064)" class="st1 st2">Tessancourt-</text>
<text transform="matrix(1 0 0 1 584.189 339.2154)" class="st1 st2">sur-</text>
<text transform="matrix(1 0 0 1 584.189 365.4224)" class="st1 st2">Aubette</text>
<text transform="matrix(1 0 0 1 656.9702 393.148)" class="st1 st2">Évecquemont</text>
<text transform="matrix(1 0 0 1 578.3276 435.7989)" class="st1 st2">Meulan</text>
<text transform="matrix(1 0 0 1 435.3604 408.6568)" class="st1 st2">Hardricourt</text>
<text transform="matrix(1 0 0 1 417.9048 451.0869)" class="st1 st2">Mézy-</text>
<text transform="matrix(1 0 0 1 417.9048 477.295)" class="st1 st2">sur-</text>
<text transform="matrix(1 0 0 1 417.9048 503.503)" class="st1 st2">Seine</text>
<text transform="matrix(1 0 0 1 511.2056 678.1304)" class="st1 st2">Bouafle</text>
<text transform="matrix(1 0 0 1 578.9917 782.2515)" class="st1 st2">Ecquevilly</text>
<text transform="matrix(1 0 0 1 431.7891 636.4077)" class="st1 st2">Flins-</text>
<text transform="matrix(1 0 0 1 431.7891 662.6157)" class="st1 st2">sur-</text>
<text transform="matrix(1 0 0 1 431.7891 688.8247)" class="st1 st2">Seine</text>
<g>
	<text transform="matrix(1 0 0 1 330.6851 737.4683)" class="st1 st2">Auber</text>
	<text transform="matrix(1 0 0 1 330.6851 763.6763)" class="st1 st2">-genville</text>
</g>
<text transform="matrix(1 0 0 1 315.0113 810.5728)" class="st1 st2">Nézel</text>
<g>
	<text transform="matrix(1 0 0 1 291.3394 892.48)" class="st1 st2">Aulnay-</text>
	<text transform="matrix(1 0 0 1 291.3394 918.688)" class="st1 st2">sur-Mauldre</text>
</g>
<text transform="matrix(1 0 0 1 296.7471 488.2398)" class="st1 st2">Juziers</text>
<text transform="matrix(1 0 0 1 165.9917 330.2915)" class="st1 st2">Brueil-</text>
<text transform="matrix(1 0 0 1 165.9917 356.5)" class="st1 st2">en-Vexin</text>
<text transform="matrix(1 0 0 1 296.9644 321.5493)" class="st1 st2">Oinville-</text>
<text transform="matrix(1 0 0 1 296.9644 347.7583)" class="st1 st2">sur-</text>
<text transform="matrix(1 0 0 1 296.9644 373.9659)" class="st1 st2">Moncient</text>
<text transform="matrix(1 0 0 1 308.8775 251.7886)" class="st1 st2">Jambville</text>
<text transform="matrix(1 0 0 1 237.7681 201.439)" class="st1 st2">Montalet-</text>
<text transform="matrix(1 0 0 1 237.7681 227.647)" class="st1 st2">le-Bois</text>
<text transform="matrix(1 0 0 1 204.7149 116.6026)" class="st1 st2">Lainville-</text>
<text transform="matrix(1 0 0 1 204.7149 142.8111)" class="st1 st2">en-Vexin</text>
<g>
	<path class="st3" d="M627.7,482c-4.4,0-8,3.6-8,8s3.6,8,8,8s8-3.6,8-8S632.1,482,627.7,482z"/>
	<path class="st3" d="M627.7,464.4c-14.8,0-26.9,12-26.9,26.9c0,12.7,19.5,35.6,25.3,42c0.8,0.9,2.3,0.9,3.2,0
		c5.8-6.5,25.3-29.4,25.3-42C654.6,476.5,642.6,464.4,627.7,464.4z M627.7,503.3c-7.3,0-13.3-6-13.3-13.3s6-13.3,13.3-13.3
		s13.3,6,13.3,13.3C641,497.4,635.1,503.3,627.7,503.3z"/>
</g>
<g>
	<path class="st4" d="M600.9,391.4c-2.6,0-4.8,2.1-4.8,4.8c0,2.6,2.1,4.8,4.8,4.8c2.6,0,4.8-2.1,4.8-4.8
		C605.6,393.5,603.5,391.4,600.9,391.4z"/>
	<path class="st4" d="M600.9,380.9c-8.8,0-15.9,7.1-15.9,15.9c0,7.5,11.6,21.1,15,24.9c0.5,0.6,1.4,0.6,1.9,0
		c3.4-3.8,15-17.4,15-24.9C616.8,388.1,609.7,380.9,600.9,380.9z M600.9,404c-4.3,0-7.9-3.5-7.9-7.9c0-4.3,3.5-7.9,7.9-7.9
		c4.3,0,7.9,3.5,7.9,7.9C608.7,400.5,605.2,404,600.9,404z"/>
</g>
<g>
	<path class="st5" d="M545,271.2c-1.5,0-2.6,1.2-2.6,2.6c0,1.5,1.2,2.6,2.6,2.6c1.5,0,2.6-1.2,2.6-2.6
		C547.6,272.4,546.5,271.2,545,271.2z"/>
	<path class="st5" d="M545,265.4c-4.9,0-8.8,4-8.8,8.8c0,4.2,6.4,11.7,8.3,13.8c0.3,0.3,0.8,0.3,1,0c1.9-2.1,8.3-9.7,8.3-13.8
		C553.9,269.4,549.9,265.4,545,265.4z M545,278.2c-2.4,0-4.4-2-4.4-4.4s2-4.4,4.4-4.4s4.4,2,4.4,4.4S547.4,278.2,545,278.2z"/>
</g>
<g>
	<path class="st5" d="M479.5,375.3c-1.5,0-2.6,1.2-2.6,2.6c0,1.5,1.2,2.6,2.6,2.6c1.5,0,2.6-1.2,2.6-2.6S480.9,375.3,479.5,375.3z"
		/>
	<path class="st5" d="M479.5,369.5c-4.9,0-8.8,4-8.8,8.8c0,4.2,6.4,11.7,8.3,13.8c0.3,0.3,0.8,0.3,1,0c1.9-2.1,8.3-9.7,8.3-13.8
		C488.3,373.5,484.4,369.5,479.5,369.5z M479.5,382.3c-2.4,0-4.4-2-4.4-4.4s2-4.4,4.4-4.4s4.4,2,4.4,4.4S481.9,382.3,479.5,382.3z"
		/>
</g>
<g>
	<path class="st5" d="M424.9,414.4c-1.5,0-2.6,1.2-2.6,2.6c0,1.5,1.2,2.6,2.6,2.6c1.5,0,2.6-1.2,2.6-2.6
		C427.6,415.6,426.4,414.4,424.9,414.4z"/>
	<path class="st5" d="M424.9,408.7c-4.9,0-8.8,4-8.8,8.8c0,4.2,6.4,11.7,8.3,13.8c0.3,0.3,0.8,0.3,1,0c1.9-2.1,8.3-9.7,8.3-13.8
		C433.8,412.6,429.8,408.7,424.9,408.7z M424.9,421.4c-2.4,0-4.4-2-4.4-4.4s2-4.4,4.4-4.4s4.4,2,4.4,4.4
		C429.3,419.5,427.4,421.4,424.9,421.4z"/>
</g>
<g>
	<path class="st5" d="M337.7,452.9c-1.5,0-2.6,1.2-2.6,2.6c0,1.5,1.2,2.6,2.6,2.6c1.5,0,2.6-1.2,2.6-2.6
		C340.4,454.1,339.2,452.9,337.7,452.9z"/>
	<path class="st5" d="M337.7,447.2c-4.9,0-8.8,4-8.8,8.8c0,4.2,6.4,11.7,8.3,13.8c0.3,0.3,0.8,0.3,1,0c1.9-2.1,8.3-9.7,8.3-13.8
		C346.6,451.1,342.6,447.2,337.7,447.2z M337.7,459.9c-2.4,0-4.4-2-4.4-4.4s2-4.4,4.4-4.4s4.4,2,4.4,4.4
		C342.1,458,340.1,459.9,337.7,459.9z"/>
</g>
<g>
	<path class="st5" d="M446.6,595.7c-1.5,0-2.6,1.2-2.6,2.6c0,1.5,1.2,2.6,2.6,2.6c1.5,0,2.6-1.2,2.6-2.6S448,595.7,446.6,595.7z"/>
	<path class="st5" d="M446.6,589.9c-4.9,0-8.8,4-8.8,8.8c0,4.2,6.4,11.7,8.3,13.8c0.3,0.3,0.8,0.3,1,0c1.9-2.1,8.3-9.7,8.3-13.8
		C455.4,593.9,451.5,589.9,446.6,589.9z M446.6,602.7c-2.4,0-4.4-2-4.4-4.4s2-4.4,4.4-4.4s4.4,2,4.4,4.4S449,602.7,446.6,602.7z"/>
</g>
<g>
	<path class="st5" d="M614.4,746.6c-1.5,0-2.6,1.2-2.6,2.6c0,1.5,1.2,2.6,2.6,2.6c1.5,0,2.6-1.2,2.6-2.6
		C617.1,747.7,615.9,746.6,614.4,746.6z"/>
	<path class="st5" d="M614.4,740.8c-4.9,0-8.8,4-8.8,8.8c0,4.2,6.4,11.7,8.3,13.8c0.3,0.3,0.8,0.3,1,0c1.9-2.1,8.3-9.7,8.3-13.8
		C623.3,744.7,619.3,740.8,614.4,740.8z M614.4,753.6c-2.4,0-4.4-2-4.4-4.4s2-4.4,4.4-4.4s4.4,2,4.4,4.4
		C618.8,751.6,616.9,753.6,614.4,753.6z"/>
</g>
<g>
	<path class="st5" d="M329.7,776.6c-1.5,0-2.6,1.2-2.6,2.6c0,1.5,1.2,2.6,2.6,2.6c1.5,0,2.6-1.2,2.6-2.6
		C332.3,777.8,331.1,776.6,329.7,776.6z"/>
	<path class="st5" d="M329.7,770.8c-4.9,0-8.8,4-8.8,8.8c0,4.2,6.4,11.7,8.3,13.8c0.3,0.3,0.8,0.3,1,0c1.9-2.1,8.3-9.7,8.3-13.8
		C338.5,774.8,334.6,770.8,329.7,770.8z M329.7,783.6c-2.4,0-4.4-2-4.4-4.4s2-4.4,4.4-4.4s4.4,2,4.4,4.4S332.1,783.6,329.7,783.6z"
		/>
</g>
<g>
	<path class="st5" d="M328.9,855.4c-1.5,0-2.6,1.2-2.6,2.6c0,1.5,1.2,2.6,2.6,2.6c1.5,0,2.6-1.2,2.6-2.6
		C331.5,856.6,330.3,855.4,328.9,855.4z"/>
	<path class="st5" d="M328.9,849.7c-4.9,0-8.8,4-8.8,8.8c0,4.2,6.4,11.7,8.3,13.8c0.3,0.3,0.8,0.3,1,0c1.9-2.1,8.3-9.7,8.3-13.8
		C337.7,853.6,333.8,849.7,328.9,849.7z M328.9,862.4c-2.4,0-4.4-2-4.4-4.4s2-4.4,4.4-4.4s4.4,2,4.4,4.4
		C333.3,860.5,331.3,862.4,328.9,862.4z"/>
</g>
<g>
	<path class="st5" d="M536.2,644.4c-1.5,0-2.6,1.2-2.6,2.6c0,1.5,1.2,2.6,2.6,2.6c1.5,0,2.6-1.2,2.6-2.6
		C538.8,645.6,537.6,644.4,536.2,644.4z"/>
	<path class="st5" d="M536.2,638.6c-4.9,0-8.8,4-8.8,8.8c0,4.2,6.4,11.7,8.3,13.8c0.3,0.3,0.8,0.3,1,0c1.9-2.1,8.3-9.7,8.3-13.8
		C545,642.6,541.1,638.6,536.2,638.6z M536.2,651.4c-2.4,0-4.4-2-4.4-4.4s2-4.4,4.4-4.4s4.4,2,4.4,4.4
		C540.5,649.5,538.6,651.4,536.2,651.4z"/>
</g>
<g>
	<path class="st5" d="M328.9,287.9c-1.5,0-2.6,1.2-2.6,2.6c0,1.5,1.2,2.6,2.6,2.6c1.5,0,2.6-1.2,2.6-2.6S330.3,287.9,328.9,287.9z"
		/>
	<path class="st5" d="M328.9,282.1c-4.9,0-8.8,4-8.8,8.8c0,4.2,6.4,11.7,8.3,13.8c0.3,0.3,0.8,0.3,1,0c1.9-2.1,8.3-9.7,8.3-13.8
		C337.7,286.1,333.8,282.1,328.9,282.1z M328.9,294.9c-2.4,0-4.4-2-4.4-4.4s2-4.4,4.4-4.4s4.4,2,4.4,4.4S331.3,294.9,328.9,294.9z"
		/>
</g>
<g>
	<path class="st5" d="M362.4,212.3c-1.5,0-2.6,1.2-2.6,2.6c0,1.5,1.2,2.6,2.6,2.6c1.5,0,2.6-1.2,2.6-2.6S363.8,212.3,362.4,212.3z"
		/>
	<path class="st5" d="M362.4,206.5c-4.9,0-8.8,4-8.8,8.8c0,4.2,6.4,11.7,8.3,13.8c0.3,0.3,0.8,0.3,1,0c1.9-2.1,8.3-9.7,8.3-13.8
		C371.2,210.5,367.2,206.5,362.4,206.5z M362.4,219.3c-2.4,0-4.4-2-4.4-4.4s2-4.4,4.4-4.4s4.4,2,4.4,4.4
		C366.7,217.3,364.8,219.3,362.4,219.3z"/>
</g>
<g>
	<path class="st5" d="M293.6,169.3c-1.5,0-2.6,1.2-2.6,2.6c0,1.5,1.2,2.6,2.6,2.6c1.5,0,2.6-1.2,2.6-2.6S295,169.3,293.6,169.3z"/>
	<path class="st5" d="M293.6,163.5c-4.9,0-8.8,4-8.8,8.8c0,4.2,6.4,11.7,8.3,13.8c0.3,0.3,0.8,0.3,1,0c1.9-2.1,8.3-9.7,8.3-13.8
		C302.4,167.5,298.5,163.5,293.6,163.5z M293.6,176.3c-2.4,0-4.4-2-4.4-4.4s2-4.4,4.4-4.4s4.4,2,4.4,4.4
		C298,174.4,296,176.3,293.6,176.3z"/>
</g>
<g>
	<path class="st5" d="M267.4,77.2c-1.5,0-2.6,1.2-2.6,2.6c0,1.5,1.2,2.6,2.6,2.6c1.5,0,2.6-1.2,2.6-2.6
		C270.1,78.4,268.9,77.2,267.4,77.2z"/>
	<path class="st5" d="M267.4,71.4c-4.9,0-8.8,4-8.8,8.8c0,4.2,6.4,11.7,8.3,13.8c0.3,0.3,0.8,0.3,1,0c1.9-2.1,8.3-9.7,8.3-13.8
		C276.3,75.4,272.3,71.4,267.4,71.4z M267.4,84.2c-2.4,0-4.4-2-4.4-4.4s2-4.4,4.4-4.4s4.4,2,4.4,4.4
		C271.8,82.3,269.8,84.2,267.4,84.2z"/>
</g>
<g>
	<path class="st5" d="M225.9,289.2c-1.5,0-2.6,1.2-2.6,2.6c0,1.5,1.2,2.6,2.6,2.6c1.5,0,2.6-1.2,2.6-2.6
		C228.6,290.4,227.4,289.2,225.9,289.2z"/>
	<path class="st5" d="M225.9,283.5c-4.9,0-8.8,4-8.8,8.8c0,4.2,6.4,11.7,8.3,13.8c0.3,0.3,0.8,0.3,1,0c1.9-2.1,8.3-9.7,8.3-13.8
		C234.8,287.4,230.8,283.5,225.9,283.5z M225.9,296.2c-2.4,0-4.4-2-4.4-4.4s2-4.4,4.4-4.4s4.4,2,4.4,4.4
		C230.3,294.3,228.4,296.2,225.9,296.2z"/>
</g>
<g>
	<path class="st5" d="M614.4,276.5c-1.5,0-2.6,1.2-2.6,2.6c0,1.5,1.2,2.6,2.6,2.6c1.5,0,2.6-1.2,2.6-2.6
		C617.1,277.7,615.9,276.5,614.4,276.5z"/>
	<path class="st5" d="M614.4,270.7c-4.9,0-8.8,4-8.8,8.8c0,4.2,6.4,11.7,8.3,13.8c0.3,0.3,0.8,0.3,1,0c1.9-2.1,8.3-9.7,8.3-13.8
		C623.3,274.7,619.3,270.7,614.4,270.7z M614.4,283.5c-2.4,0-4.4-2-4.4-4.4s2-4.4,4.4-4.4s4.4,2,4.4,4.4
		C618.8,281.5,616.9,283.5,614.4,283.5z"/>
</g>
<g>
	<path class="st5" d="M703.6,360c-1.5,0-2.6,1.2-2.6,2.6c0,1.5,1.2,2.6,2.6,2.6c1.5,0,2.6-1.2,2.6-2.6
		C706.2,361.2,705,360,703.6,360z"/>
	<path class="st5" d="M703.6,354.2c-4.9,0-8.8,4-8.8,8.8c0,4.2,6.4,11.7,8.3,13.8c0.3,0.3,0.8,0.3,1,0c1.9-2.1,8.3-9.7,8.3-13.8
		C712.4,358.2,708.5,354.2,703.6,354.2z M703.6,367c-2.4,0-4.4-2-4.4-4.4s2-4.4,4.4-4.4s4.4,2,4.4,4.4S706,367,703.6,367z"/>
</g>
<g>
	<path class="st5" d="M808.7,403c-1.5,0-2.6,1.2-2.6,2.6c0,1.5,1.2,2.6,2.6,2.6c1.5,0,2.6-1.2,2.6-2.6
		C811.4,404.2,810.2,403,808.7,403z"/>
	<path class="st5" d="M808.7,397.2c-4.9,0-8.8,4-8.8,8.8c0,4.2,6.4,11.7,8.3,13.8c0.3,0.3,0.8,0.3,1,0c1.9-2.1,8.3-9.7,8.3-13.8
		C817.6,401.2,813.6,397.2,808.7,397.2z M808.7,410c-2.4,0-4.4-2-4.4-4.4s2-4.4,4.4-4.4s4.4,2,4.4,4.4
		C813.1,408,811.2,410,808.7,410z"/>
</g>
<g>
	<path class="st4" d="M364.7,683.3c-2.6,0-4.8,2.1-4.8,4.8c0,2.6,2.1,4.8,4.8,4.8c2.6,0,4.8-2.1,4.8-4.8
		C369.4,685.4,367.3,683.3,364.7,683.3z"/>
	<path class="st4" d="M364.7,672.9c-8.8,0-15.9,7.1-15.9,15.9c0,7.5,11.6,21.1,15,24.9c0.5,0.6,1.4,0.6,1.9,0
		c3.4-3.8,15-17.4,15-24.9C380.6,680,373.5,672.9,364.7,672.9z M364.7,695.9c-4.3,0-7.9-3.5-7.9-7.9c0-4.3,3.5-7.9,7.9-7.9
		c4.3,0,7.9,3.5,7.9,7.9S369,695.9,364.7,695.9z"/>
</g>
</svg>
