<?xml version="1.0" encoding="utf-8"?>
<!-- Generator: Adobe Illustrator 27.8.0, SVG Export Plug-In . SVG Version: 6.00 Build 0)  -->
<svg version="1.1" id="Layer_1" xmlns="http://www.w3.org/2000/svg" xmlns:xlink="http://www.w3.org/1999/xlink" x="0px" y="0px"
	 viewBox="0 0 2000 2000" style="enable-background:new 0 0 2000 2000;" xml:space="preserve">
<style type="text/css">
	.st0{fill:#FFFFFF;}
	.st1{fill:#F39200;}
</style>
<rect class="st0" width="2000" height="2000"/>
<g>
	<path class="st1" d="M3695.6,2422.6c33.3,31.8,71.7,53.6,119,56.2c4.1,0.2,8.1,0.3,12.1,0.3c58.7-0.3,104.6-28.3,142.5-72
		c57.9-66.8,81.5-146.5,83.8-245.1c-1.5-13.2-2.7-38.1-7.3-62.4c-19.7-102.4-92.5-169.1-194.9-180c-9.8-1-19.5-1.5-29-1.5
		c-91.2,0.2-167.6,49.5-202.9,133C3570.3,2166.3,3605.1,2336.2,3695.6,2422.6z"/>
	<path class="st1" d="M3984,2598.4c0-41.6,10.9-80.6,30.1-114.3c-11.9-2.2-24-3.9-36.3-5l0,0.1c-0.2,0-0.4,0-0.6-0.1
		c-40,46.7-96.2,70-152.2,70c-56.1,0-112.2-23.3-152.3-70c-0.2,0-0.4,0.1-0.6,0.1l0-0.1c-94.3,8.4-177.2,51-233.2,113.8
		c-46.7,52.4-74.7,118.8-74.7,191.2v272.8c27.8,23.4,62.6,44.6,102.9,62.7c13.5,6.1,27.6,11.8,42.3,17.2c3.8,1.4,7.6,2.7,11.4,4.1
		v-234.6l46.1,248.9c76.5,21.1,164.5,33.2,258.2,33.2c93.6,0,181.6-12,258.1-33.1l46.1-248.9v234.6c3.8-1.3,7.6-2.7,11.4-4.1
		c14.7-5.4,28.8-11.1,42.3-17.2c40.3-18.1,75.1-39.3,102.9-62.7v-237.2c-22,7-45.5,10.7-69.9,10.7
		C4087.9,2830.3,3984,2726.4,3984,2598.4z"/>
	<path class="st1" d="M4215.1,2397.1c-71.9,0-134.9,37.6-170.5,94.3c-19.5,31-30.8,67.7-30.8,107.1c0,111.2,90.1,201.3,201.3,201.3
		c24.6,0,48.1-4.4,69.9-12.5c76.8-28.4,131.5-102.2,131.5-188.9C4416.4,2487.2,4326.3,2397.1,4215.1,2397.1z M4212,2461.1
		c16.6,0,29.9,12.5,29.9,29.5c0,16.2-13.3,29.5-30.4,29.5c-15.8,0-29.9-13.3-29.9-29.5C4181.6,2473.6,4195.8,2461.1,4212,2461.1z
		 M4267.3,2735.7h-104.4v-14.1c22.5-2.9,25-4.6,25-34.1v-81.1c0-27.9-2.1-29.5-21.6-32v-13.7c26.2-2.9,52.4-8.3,75.3-15
		c0,17.5,0,34.5,0,51.6v90.3c0,28.3,1.7,31.2,25.8,34.1V2735.7z"/>
</g>
<g>
	<g>
		<path class="st1" d="M1000.4,816.7c-56.6,0-105.2-48.8-130.6-104.8c-34.3-75.6-34.7-164.5-34.7-166.1
			c0-122.5,46.5-172.6,165.3-172.6c118.9,0,166.2,53.8,166.2,176.3c0,0.9-1.6,76.1-29.6,145.9
			C1111.8,758.4,1063.6,816.7,1000.4,816.7z"/>
		<g>
			<g>
				<path class="st1" d="M643.5,1084.9c0-22.5,18.4-41,41-41h298l15.1-56.3c1.1-4.2,2.2-7.8,3.3-10.8h-26.6
					c-14.7,0-26.6-11.9-26.6-26.6v-55.5c0-14.7,11.9-26.6,26.6-26.6h26.6h26.6c14.7,0,26.6,11.9,26.6,26.6v55.5
					c0,14.7-11.9,26.6-26.6,26.6h-26.6c1.1,3,2.2,6.5,3.3,10.8l15.1,56.3h283c22.5,0,41,18.4,41,41l-27.3,405.9h117.8l-22-484.8
					c-5.2-34.3-27.5-61.7-57-74.9h0.2c0,0-195.3-103.6-358.9-101.1c-145.5,2.2-315.1,82.8-350.7,100.5
					c-30.1,12.9-53.1,40.6-58.3,75.4l-20.7,484.8h104.6L643.5,1084.9z"/>
				<path class="st1" d="M1329.6,1097.2l-27.3,393.6H684.5l-27.3-393.6c0-22.5,18.4-41,41-41h590.4
					C1311.1,1056.2,1329.6,1074.7,1329.6,1097.2z"/>
			</g>
			<path class="st1" d="M1329.6,1529.4c0,4.1-4.9,7.4-10.9,7.4H668.1c-6,0-10.9-3.3-10.9-7.4v-16.6c0-4.1,4.9-7.4,10.9-7.4h650.5
				c6,0,10.9,3.3,10.9,7.4V1529.4z"/>
		</g>
		<line class="st1" x1="629.8" y1="1490.8" x2="616.2" y2="1490.8"/>
		<line class="st1" x1="1384.3" y1="1490.8" x2="1370.6" y2="1490.8"/>
	</g>
</g>
</svg>
