<?xml version="1.0" encoding="utf-8"?>
<!-- Generator: Adobe Illustrator 27.8.0, SVG Export Plug-In . SVG Version: 6.00 Build 0)  -->
<svg version="1.1" id="Calque_1" xmlns="http://www.w3.org/2000/svg" xmlns:xlink="http://www.w3.org/1999/xlink" x="0px" y="0px"
	 viewBox="0 0 229.6 230.5" style="enable-background:new 0 0 229.6 230.5;" xml:space="preserve">
<style type="text/css">
	.st0{fill:#B9E2FA;}
	.st1{fill:#2C96D4;}
	.st2{fill:#FFFFFF;}
</style>
<circle class="st0" cx="114.8" cy="115.3" r="114"/>
<circle class="st1" cx="114.8" cy="115.3" r="100.3"/>
<g>
	<g>
		<path class="st2" d="M167,178.7c0.3-0.3-1.2,1.2,23.1-23l0,0c0,0,0,0,0-0.3c0,0,0-0.3,0.3-0.3v-0.3v-0.3l0,0V78.6
			c0-10.1-8.3-18.1-18.4-18.1h-6.4v-7.1c0-0.8-0.8-1.7-1.7-1.7s-1.7,0.8-1.7,1.7v6.9h-21.1v-6.9c0-0.8-0.8-1.7-1.7-1.7
			s-1.7,0.8-1.7,1.7v6.9h-21.3v-6.9c0-0.8-0.8-1.7-1.7-1.7s-1.7,0.8-1.7,1.7v6.9H91.7v-6.9c0-0.8-0.8-1.7-1.7-1.7s-1.7,0.8-1.7,1.7
			v6.9H67.4v-6.9c0-0.8-0.8-1.7-1.7-1.7S64,52.5,64,53.4v6.9h-6.4c-10.1,0-18.4,8.1-18.4,18.1v98.8c0,0.8,0.8,1.7,1.7,1.7
			c131.1,0,125.5,0,125.7,0h0.3C166.9,178.7,166.9,178.7,167,178.7z M167.9,173v-15l16.7-1.4L167.9,173z M57.4,63.7h6.4v5.2
			c-3.9,0.8-7.1,4.4-7.1,8.6c0,4.7,3.9,8.6,8.8,8.6c4.9,0,8.8-3.9,8.8-8.6c0-4.2-3-7.8-7.1-8.6v-5.2h21.1v5.2
			c-3.9,0.8-7.1,4.4-7.1,8.6c0,4.7,3.9,8.6,8.8,8.6c4.7,0,8.8-3.9,8.8-8.6c0-4.2-3-7.8-7.1-8.6v-5.2h21.1v5.2
			c-3.9,0.8-7.1,4.4-7.1,8.6c0,4.7,3.9,8.6,8.8,8.6c4.7,0,8.8-3.9,8.8-8.6c0-4.2-3-7.8-7.1-8.6v-5.2h21.5v5.2
			c-3.9,0.8-7.1,4.4-7.1,8.6c0,4.7,3.9,8.6,8.8,8.6c4.7,0,8.8-3.9,8.8-8.6c0-4.2-3-7.8-7.1-8.6v-5.2h21.1v5.2
			c-3.9,0.8-7.1,4.4-7.1,8.6c0,4.7,3.9,8.6,8.8,8.6c4.7,0,8.8-3.9,8.8-8.6c0-4.2-3-7.8-7.1-8.6v-5.2h6.4c8.3,0,15,6.8,15,14.9v15
			H42.7v-15C42.7,70.5,49.3,63.7,57.4,63.7z M65.7,72.3c2.9,0,5.4,2.2,5.4,5.2s-2.2,5.2-5.4,5.2c-3,0-5.4-2.2-5.4-5.2
			C60.3,74.5,62.8,72.3,65.7,72.3z M90.2,72.3c2.9,0,5.4,2.2,5.4,5.2s-2.2,5.2-5.4,5.2c-3,0-5.4-2.2-5.4-5.2
			C84.9,74.5,87.5,72.3,90.2,72.3z M115.2,72.3c2.9,0,5.4,2.2,5.4,5.2s-2.2,5.2-5.4,5.2c-3,0-5.4-2.2-5.4-5.2
			C109.8,74.5,112.3,72.3,115.2,72.3z M139.7,72.3c2.9,0,5.4,2.2,5.4,5.2s-2.2,5.2-5.4,5.2c-2.9,0-5.4-2.2-5.4-5.2
			C134.3,74.5,136.8,72.3,139.7,72.3z M164.5,72.3c2.9,0,5.4,2.2,5.4,5.2s-2.2,5.2-5.4,5.2c-2.9,0-5.4-2.2-5.4-5.2
			C159.3,74.5,161.8,72.3,164.5,72.3z M42.7,97h144.9v55.9l-21.1,1.7c-0.8,0-1.7,0.8-1.7,1.7v19.3H42.7V97z"/>
		<path class="st2" d="M69.1,107.3H54.9c-0.8,0-1.7,0.8-1.7,1.7v14c0,0.8,0.8,1.7,1.7,1.7h14.2c0.8,0,1.7-0.8,1.7-1.7v-14
			C71.1,108.1,70.3,107.3,69.1,107.3z M67.4,121.3H56.6v-10.6h10.8V121.3z"/>
		<path class="st2" d="M95.6,107.3H81.4c-0.8,0-1.7,0.8-1.7,1.7v14c0,0.8,0.8,1.7,1.7,1.7h14.2c0.8,0,1.7-0.8,1.7-1.7v-14
			C97.3,108.1,96.8,107.3,95.6,107.3z M93.9,121.3H83.1v-10.6h10.8V121.3z"/>
		<path class="st2" d="M122.1,107.3h-14.2c-0.8,0-1.7,0.8-1.7,1.7v14c0,0.8,0.8,1.7,1.7,1.7h14.2c0.8,0,1.7-0.8,1.7-1.7v-14
			C123.8,108.1,123,107.3,122.1,107.3z M120.4,121.3h-10.8v-10.6h10.8V121.3z"/>
		<path class="st2" d="M148.8,107.3h-14.2c-0.8,0-1.7,0.8-1.7,1.7v14c0,0.8,0.8,1.7,1.7,1.7h14.2c0.8,0,1.7-0.8,1.7-1.7v-14
			C150.5,108.1,149.6,107.3,148.8,107.3z M146.8,121.3H136v-10.6h10.8V121.3z"/>
		<path class="st2" d="M175,124.9c0.8,0,1.7-0.8,1.7-1.7v-14c0-0.8-0.8-1.7-1.7-1.7h-14.2c-0.8,0-1.7,0.8-1.7,1.7v14
			c0,0.8,0.8,1.7,1.7,1.7H175z M162.8,110.8h10.8v10.6h-10.8V110.8z"/>
		<path class="st2" d="M69.1,135.2H54.9c-0.8,0-1.7,0.8-1.7,1.7v14c0,0.8,0.8,1.7,1.7,1.7h14.2c0.8,0,1.7-0.8,1.7-1.7v-14
			C71.1,136,70.3,135.2,69.1,135.2z M67.4,149.2H56.6v-10.6h10.8V149.2z"/>
		<path class="st2" d="M95.6,135.2H81.4c-0.8,0-1.7,0.8-1.7,1.7v14c0,0.8,0.8,1.7,1.7,1.7h14.2c0.8,0,1.7-0.8,1.7-1.7v-14
			C97.3,136,96.8,135.2,95.6,135.2z M93.9,149.2H83.1v-10.6h10.8V149.2z"/>
		<path class="st2" d="M122.1,135.2h-14.2c-0.8,0-1.7,0.8-1.7,1.7v14c0,0.8,0.8,1.7,1.7,1.7h14.2c0.8,0,1.7-0.8,1.7-1.7v-14
			C123.8,136,123,135.2,122.1,135.2z M120.4,149.2h-10.8v-10.6h10.8V149.2z"/>
		<path class="st2" d="M148.8,135.2h-14.2c-0.8,0-1.7,0.8-1.7,1.7v14c0,0.8,0.8,1.7,1.7,1.7h14.2c0.8,0,1.7-0.8,1.7-1.7v-14
			C150.5,136,149.6,135.2,148.8,135.2z M146.8,149.2H136v-10.6h10.8V149.2z"/>
	</g>
</g>
</svg>
