<?xml version="1.0" encoding="utf-8"?>
<!-- Generator: Adobe Illustrator 27.8.0, SVG Export Plug-In . SVG Version: 6.00 Build 0)  -->
<svg version="1.1" id="Calque_1" xmlns="http://www.w3.org/2000/svg" xmlns:xlink="http://www.w3.org/1999/xlink" x="0px" y="0px"
	 viewBox="0 0 229.6 230.5" style="enable-background:new 0 0 229.6 230.5;" xml:space="preserve">
<style type="text/css">
	.st0{fill:#FBE0B8;}
	.st1{fill:#F39204;}
	.st2{fill:#FFFFFF;}
</style>
<circle class="st0" cx="114.8" cy="115.3" r="114"/>
<circle class="st1" cx="114.8" cy="115.3" r="100.3"/>
<g id="XMLID_5865_">
	<path id="XMLID_5866_" class="st2" d="M48.5,119.4c-3.4,0.7-5.8,3.6-5.8,7.3c0,1.6,0.5,3.2,1.5,4.4l-3.1,18.3
		c-0.1,0.8,0.1,1.6,0.5,2.2c0.5,0.7,1.2,0.9,2,0.9h12.6c0.8,0,1.5-0.3,2-0.9c0.5-0.5,0.8-1.3,0.7-2.2l-2.7-18.9
		c0.7-1.1,1.1-2.4,1.1-3.8c0-2.7-1.5-5-3.5-6.3v-9.8l16.7,7.3v41.3c0,5.1,4.2,9.3,9.3,9.3h75.8c5.1,0,9.3-4.2,9.3-9.3v-43.9
		l39.5-17.2c1.1-0.4,1.6-1.5,1.6-2.6s-0.8-2-1.9-2.4l-90-30.8c-0.5-0.3-1.2-0.1-1.9,0C81.4,74,30.9,92.7,26.2,92.9
		c-1.2,0-2.4,0.9-2.6,2.2c-0.3,1.2,0.4,2.6,1.6,3l23.4,10.2v11.1H48.5z M46.9,146.9l2.8-16.4c0.1-0.9-0.1-1.9-0.9-2.6
		c-0.4-0.4-0.7-0.9-0.7-1.5c0-1.1,0.9-2,2-2s2,0.9,2,2c0,0.7-0.3,1.1-0.5,1.3c-0.5,0.5-0.8,1.3-0.7,2.2l2.3,17.1h-6.3L46.9,146.9
		L46.9,146.9z M159.4,158.7c0,2.2-1.7,3.9-3.9,3.9H79.7c-2.2,0-3.9-1.7-3.9-3.9v-39l37.8,16.4c0.4,0.1,0.7,0.3,1.1,0.3
		c0.4,0,0.7-0.1,1.1-0.3l43.5-18.9L159.4,158.7L159.4,158.7z M34.4,96c19.4-6,66.1-23.7,78.9-28.5l82.5,28.2l-81,35.2l-53.6-23.2
		l45.3-6c2,1.2,5,2,8.3,2c6.2,0,10.9-2.4,10.9-5.8c0-3.2-4.7-5.8-10.9-5.8c-5.4,0-9.5,1.9-10.6,4.4l-52.4,7L34.4,96z M106.5,97.9
		c0-1.2,3.2-3.1,8.2-3.1s8.2,1.9,8.2,3.1c0,1.2-3.2,3.1-8.2,3.1C109.7,100.9,106.5,99.1,106.5,97.9z"/>
</g>
</svg>
