<?xml version="1.0" encoding="utf-8"?>
<!-- Generator: Adobe Illustrator 27.8.0, SVG Export Plug-In . SVG Version: 6.00 Build 0)  -->
<svg version="1.1" id="_x2014_ÎÓÈ_x5F_1" xmlns="http://www.w3.org/2000/svg" xmlns:xlink="http://www.w3.org/1999/xlink"
	 x="0px" y="0px" viewBox="0 0 5000 5000" style="enable-background:new 0 0 5000 5000;" xml:space="preserve">
<style type="text/css">
	.st0{fill:#D60B52;}
</style>
<g>
	<g>
		<g>
			<g>
				<g>
					<g>
						<path class="st0" d="M2926.2,1980.1H1859.7c-25.6,0-46.4-20.8-46.4-46.4s20.8-46.4,46.4-46.4h1066.5
							c25.6,0,46.4,20.8,46.4,46.4S2951.8,1980.1,2926.2,1980.1z"/>
					</g>
					<g>
						<path class="st0" d="M2749.2,1753.1h-712.5c-25.6,0-46.4-20.8-46.4-46.4c0-25.6,20.8-46.4,46.4-46.4h712.5
							c25.6,0,46.4,20.8,46.4,46.4C2795.6,1732.3,2774.8,1753.1,2749.2,1753.1z"/>
					</g>
					<g>
						<path class="st0" d="M2860.9,2207h-936c-25.6,0-46.4-20.8-46.4-46.4s20.8-46.4,46.4-46.4h936c25.6,0,46.4,20.8,46.4,46.4
							S2886.5,2207,2860.9,2207z"/>
					</g>
					<g>
						<path class="st0" d="M2860.9,2434h-936c-25.6,0-46.4-20.8-46.4-46.4c0-25.6,20.8-46.4,46.4-46.4h936
							c25.6,0,46.4,20.8,46.4,46.4C2907.3,2413.2,2886.5,2434,2860.9,2434z"/>
					</g>
					<g>
						<path class="st0" d="M2465.8,2660.9h-540.8c-25.6,0-46.4-20.8-46.4-46.4c0-25.6,20.8-46.4,46.4-46.4h540.8
							c25.6,0,46.4,20.8,46.4,46.4C2512.1,2640.2,2491.4,2660.9,2465.8,2660.9z"/>
					</g>
					<g>
						<path class="st0" d="M2288,2887.9h-363.1c-25.6,0-46.4-20.8-46.4-46.4c0-25.6,20.8-46.4,46.4-46.4H2288
							c25.6,0,46.4,20.8,46.4,46.4C2334.4,2867.1,2313.6,2887.9,2288,2887.9z"/>
					</g>
					<g>
						<path class="st0" d="M2288,3114.8h-363.1c-25.6,0-46.4-20.8-46.4-46.4c0-25.6,20.8-46.4,46.4-46.4H2288
							c25.6,0,46.4,20.8,46.4,46.4C2334.4,3094.1,2313.6,3114.8,2288,3114.8z"/>
					</g>
				</g>
				<g>
					<path class="st0" d="M2613.9,3361.7H1594.8c-25.6,0-46.4-20.8-46.4-46.4V1459.9c0-25.6,20.8-46.4,46.4-46.4h1596.8
						c25.6,0,46.4,20.8,46.4,46.4v998.9c0,25.6-20.8,46.4-46.4,46.4s-46.4-20.8-46.4-46.4v-952.5h-1504v1762.7h972.7
						c25.6,0,46.4,20.8,46.4,46.4C2660.3,3340.9,2639.5,3361.7,2613.9,3361.7z"/>
				</g>
			</g>
		</g>
		<g>
			<g>
				<path class="st0" d="M2877.8,3513.5c-9.2,0-18.5-1-27.6-2.9c-36.6-7.8-67.2-30.6-85.7-61.3c-36.4,7.8-75.2-0.2-105.5-22.3
					c-30.2-22-49-55.3-53.4-90.9c-36.4-7.7-68.4-30.5-87.3-63.3c-18.7-32.3-22.2-70.4-11.8-104.7c-29.7-21.6-50-55-54-93.3
					c-3.9-37.2,8.4-73.4,31.8-100.5c-18.4-31.8-23.3-70.6-11.4-107.2c11.6-35.8,37.4-63.9,69.9-79c-3.8-36.4,7.5-73.8,33.2-102.4
					c24.5-27.2,59.4-43.1,96-43.7c11.3-34.9,36.9-64.5,72.1-80.1c33.7-15,72.6-14.9,105.5-0.9c24.5-27.2,59.9-43.9,98.4-43.9
					c37.4,0,72,15.9,96.5,42.1c33.2-14.9,73.3-15.5,107.9-0.1c34.2,15.2,59.4,43.9,71.1,77.8c0.1,0,0.2,0,0.2,0
					c37.5,0,73.3,16,98.3,43.8c25,27.7,36.4,64.2,33.3,99.9c33.7,14.9,60.4,43.5,72.3,80.1c11.5,35.5,7.1,73.5-10.2,104.9
					c24.6,27.2,37.5,64.2,33.5,102.5c-3.9,37.2-23.4,70.1-52,91.7c11.4,34.9,8.1,73.9-11.1,107.3c-18.5,32-49.5,54.4-84.8,62.6
					c-3.8,36.5-22.7,70.8-53.8,93.4c-29.7,21.5-67.4,29.7-103,22.7c-18.3,31.8-49.5,55.4-87.1,63.4c-36.4,7.8-74.4-0.6-103.6-21.1
					C2933.1,3504.2,2906,3513.5,2877.8,3513.5z M2791.9,3339.6c6.3,0,12.5,1.3,18.4,3.8c16,6.9,26.7,22.3,27.8,39.7
					c1.1,18,14,33.1,31.3,36.8c17.8,3.8,35.9-5.4,44-21.5c7.8-15.6,23.6-25.5,41.1-25.7c18.2,0.7,33.5,9.5,41.5,24.9
					c8.2,15.7,26.1,24.7,43.6,20.8c17.7-3.8,30.6-19.2,31.4-37.5c0.8-17.4,11.2-32.9,27.1-40.2c15.8-7.2,34.4-5,48.1,5.8
					c13.7,10.9,34.1,11.7,48.4,1.3c14.6-10.6,20.1-30,13.4-47.1c-6.4-16.2-3.1-34.6,8.4-47.7c11.6-13,29.5-18.5,46.3-14.2
					c17.3,4.3,35.8-3.2,44.6-18.5c9.1-15.7,6.3-35.6-6.8-48.4c-12.5-12.2-17-30.4-11.8-47c5.2-16.6,19.4-28.9,36.6-31.8
					c17.7-3,31.4-17.4,33.3-35c1.9-18-8.8-35.1-26-41.5c-16.3-6.1-27.8-20.8-29.8-38.2c-2-17.3,5.9-34.3,20.4-43.9
					c15-9.9,21.7-28.7,16.2-45.5c-5.6-17.3-22.7-27.3-41-27.3c-16.4,0-32.8-8.6-41.1-22.8c-8.8-15-9.8-33.7-0.4-48.4
					c9.6-15.2,8.1-35-3.7-48.1c-11.9-13.2-32.3-16.7-48.2-8.5c-15.4,8-34.1,6.8-48.3-3.3c-14.2-10.1-21.5-27.3-19-44.6
					c2.7-17.8-6.8-35.3-23-42.5c-16.3-7.2-36.4-2-47.5,11.9c-10.8,13.7-28.3,20.2-45.5,16.6c-17.1-3.5-30.8-16.2-35.5-33
					c-4.8-17.3-20.6-29.4-38.3-29.4c-18.1,0-34,12.4-38.5,30.1c-4.4,16.9-17.8,29.9-34.8,33.7c-17,3.9-34.7-2.3-45.8-15.7
					c-11.2-13.5-30.8-18.5-47-11.3c-16.5,7.4-26,25.1-23,43.2c2.9,17.2-4.1,34.5-18.1,44.9c-14,10.3-32.6,11.9-48.2,4.3
					c-15.8-7.9-35.8-4.3-47.5,8.8c-12.1,13.4-13.5,33.5-3.4,48.8c9.6,14.5,10.3,33.2,1.7,48.4c-8.6,15.2-24.8,24-42.3,23.5
					c0,0-0.1,0-0.1,0c-19.2,0-34.5,11-39.8,27.3c-5.6,17.2,1.3,36.2,16.8,46c14.7,9.3,22.9,26.2,21.3,43.5
					c-1.7,17.4-12.9,32.3-29.1,38.7c-16.7,6.6-27.1,23.5-25.3,41.2c1.9,18,15.9,32.5,34,35.2c17.2,2.6,31.6,14.6,37.1,31.1
					c5.5,16.5,1.3,34.8-10.9,47.2c-12.6,12.8-15.2,32.5-6.4,47.8c9,15.6,28,23.1,45.4,18.3c16.7-4.8,34.7,0.5,46.6,13.3
					c11.8,12.8,15.4,31.2,9.3,47.5c-6.3,16.9-0.6,36,13.7,46.4c14.4,10.4,35.2,9.5,48.9-1.8
					C2770.9,3343.2,2781.4,3339.6,2791.9,3339.6z"/>
			</g>
			<g>
				<path class="st0" d="M2951.6,3318.4c-167.1,0-303.1-136-303.1-303.2c0-167.1,136-303.1,303.1-303.1
					c167.2,0,303.2,136,303.2,303.1C3254.8,3182.4,3118.8,3318.4,2951.6,3318.4z M2951.6,2804.8c-116,0-210.4,94.4-210.4,210.4
					c0,116,94.4,210.4,210.4,210.4s210.4-94.4,210.4-210.4C3162.1,2899.2,3067.7,2804.8,2951.6,2804.8z"/>
			</g>
		</g>
		<g>
			<path class="st0" d="M2687.4,3778.1c-9.8,0-19.5-3.1-27.7-9.2c-13.6-10.1-20.5-26.8-18.2-43.5l44.4-323.7
				c3.5-25.4,26.6-43.1,52.2-39.6c25.4,3.5,43.1,26.9,39.6,52.2l-33,240.3l187.6-85.5c12.2-5.6,26.2-5.6,38.4,0l187.6,85.5
				l-33-240.3c-3.5-25.4,14.3-48.8,39.6-52.2c25.4-3.5,48.7,14.2,52.2,39.6l44.4,323.7c2.3,16.8-4.7,33.4-18.2,43.5
				c-13.6,10.1-31.6,12-46.9,5l-245-111.6l-245,111.6C2700.5,3776.7,2693.9,3778.1,2687.4,3778.1z"/>
		</g>
	</g>
</g>
</svg>
