<?xml version="1.0" encoding="utf-8"?>
<!-- Generator: Adobe Illustrator 27.8.0, SVG Export Plug-In . SVG Version: 6.00 Build 0)  -->
<svg version="1.1" id="_x2014_ÎÓÈ_x5F_1" xmlns="http://www.w3.org/2000/svg" xmlns:xlink="http://www.w3.org/1999/xlink"
	 x="0px" y="0px" viewBox="0 0 5000 5000" style="enable-background:new 0 0 5000 5000;" xml:space="preserve">
<style type="text/css">
	.st0{fill:#D60B52;}
	.st1{fill:#D50853;}
	.st2{fill:#FFFFFF;}
	.st3{fill:none;}
</style>
<g>
	<path class="st0" d="M370.4-2434.4c4.1,1.3,8.3,1.9,12.8,1.9h1.3c4.5,0,8.8-0.6,12.9-1.9c17.8-5.5,30.6-22,30.6-41.6v-147.7
		c0-19.6-12.8-36.1-30.6-41.6c-4.1-1.3-8.4-1.9-12.9-1.9h-1.3c-4.5,0-8.8,0.6-12.8,1.9c-17.8,5.5-30.5,22-30.5,41.6v147.7
		C339.8-2456.5,352.6-2439.9,370.4-2434.4z"/>
	<path class="st0" d="M-382.9-2432.5h0.9c24.1,0,43.6-19.5,43.6-43.6v-147.5c0-24.1-19.5-43.6-43.6-43.6h-0.9
		c-24.1,0-43.6,19.5-43.6,43.6v147.5C-426.5-2452-407-2432.5-382.9-2432.5z"/>
	<path class="st0" d="M-602.3-1595.6v-677.6H606.2v296.4c28.6,1.9,56,7.4,81.5,16.1v-437c0-58-47.3-105.4-105.3-105.4H465.1v27
		c0,44.5-36.1,80.6-80.6,80.6h-1.3c-44.5,0-80.5-36.2-80.5-80.6v-27h-603.4v27c0,44.5-36.3,80.6-80.8,80.6h-1.3
		c-44.5,0-80.3-36.2-80.3-80.6v-27h-117.6c-58,0-105.6,47.4-105.6,105.4v778.7c0,58,47.6,105.5,105.6,105.5h863.9
		c-11.6-25.5-20-52.9-24.6-82.1H-602.3z"/>
	<path class="st0" d="M-330.7-2075.9c0-51.9-42.1-94.1-94.1-94.1l0,0c-51.9,0-94.1,42.1-94.1,94.1v0c0,51.9,42.1,94.1,94.1,94.1l0,0
		C-372.8-1981.8-330.7-2023.9-330.7-2075.9L-330.7-2075.9z"/>
	<rect x="-235" y="-2169.9" class="st0" width="188.1" height="188.1"/>
	<rect x="-518.8" y="-1887" class="st0" width="188.1" height="188.1"/>
	<rect x="-235" y="-1887" class="st0" width="188.1" height="188.1"/>
	<rect x="48.7" y="-1887" class="st0" width="188.1" height="188.1"/>
	<rect x="48.7" y="-2169.9" class="st0" width="188.1" height="188.1"/>
	<rect x="332.5" y="-2169.9" class="st0" width="188.1" height="188.1"/>
	<path class="st0" d="M589.1-1933.8c-160.6,0-290.8,130.2-290.8,290.8s130.2,290.8,290.8,290.8S880-1482.3,880-1643
		S749.7-1933.8,589.1-1933.8z M589.1-1415.7c-125.3,0-227.2-101.9-227.2-227.2s101.9-227.2,227.2-227.2s227.2,101.9,227.2,227.2
		S714.4-1415.7,589.1-1415.7z"/>
	<path class="st0" d="M729.6-1649.9h-127v-149c0-12.5-10.2-22.7-22.7-22.7c-12.5,0-22.7,10.2-22.7,22.7v191.3c0,12.5,7,21.4,33,21.4
		h139.5c17.6,0,31.8-14.2,31.8-31.8C761.4-1635.6,747.2-1649.9,729.6-1649.9z"/>
</g>
<g>
	<polygon class="st1" points="4053.7,-3030.9 3869.8,-3030.9 3869.8,-3139.5 3566.1,-3139.5 3566.1,-3030.9 3070.6,-3030.9 
		3070.6,-1365.4 4369.6,-1365.4 4369.6,-2750.8 	"/>
	<polygon class="st2" points="4256.6,-1468.9 3183.6,-1468.9 3183.6,-2927.4 4070.7,-2927.4 4072.1,-2750.8 4256.6,-2750.8 	"/>
	<g>
		<path class="st1" d="M3852.7-2575.9c-2.3,0-4.7,0.4-7.2,1.2l-7.4,2.4l0.4-7.8c0.8-16.9-15.2-35.3-28.1-43.3
			c-10.7,3.5-54.7,16.8-103.5,16.8c0,0,0,0,0,0c-37.7,0-68.8-8-92.6-23.8c-5,6.1-14.7,20.4-13.5,38.4l0.5,8.3l-7.8-2.8
			c-1.4-0.5-3-0.8-4.6-0.8c-4.2,0-9.4,1.9-12.6,6.9c0,0.2,0,0.4,0,0.5c0,1.4,0.4,81.9,30.8,150.3c22.5,50.7,65.6,94.8,115.8,94.8
			c56,0,98.7-52.8,121.2-109.8c19-48.3,24.3-99.5,25.8-121.2C3867.3-2569.4,3861.7-2575.9,3852.7-2575.9z"/>
		<path class="st1" d="M3810.9-2629.2c0,0-125.6,44-197.6-8.2c0,0-19.8,18.9-18,45.9c-9.9-3.6-23.6,1.5-26.9,16.2
			c0,0-21.7-139.5,69.6-144.3c49.2-52.8,250.7-60,238.3,154.3c0,0-9.9-21.6-32.4-14.4C3844.7-2599.6,3826.2-2620.8,3810.9-2629.2z"
			/>
		<path class="st1" d="M4093.2-2163.3c-4.7-31-24.9-55.8-51.6-67.7c0.1,0,0.1,0,0.2,0c0,0-176.7-93.7-324.8-91.5
			c-131.7,2-285.1,74.9-317.4,91c-27.3,11.7-48,36.8-52.8,68.3l-0.6,14.5H3703l18.1-67.6c0.7-2.8,1.4-5.1,2.1-7h-17.3
			c-9.6,0-17.3-7.8-17.3-17.3v-36.1c0-9.6,7.8-17.3,17.3-17.3h17.3h17.3c9.6,0,17.3,7.8,17.3,17.3v36.1c0,9.6-7.8,17.3-17.3,17.3
			h-17.3c0.7,1.9,1.4,4.3,2.1,7l18.1,67.6h350.4L4093.2-2163.3z"/>
	</g>
	<g>
		<path class="st1" d="M4118.4-1937.8h-796.7c-12.5,0-22.6-10.1-22.6-22.6c0-12.5,10.1-22.6,22.6-22.6h796.7
			c12.5,0,22.6,10.1,22.6,22.6C4141.1-1947.9,4130.9-1937.8,4118.4-1937.8z"/>
		<path class="st1" d="M4118.4-1830.4h-796.7c-12.5,0-22.6-10.1-22.6-22.6c0-12.5,10.1-22.6,22.6-22.6h796.7
			c12.5,0,22.6,10.1,22.6,22.6C4141.1-1840.5,4130.9-1830.4,4118.4-1830.4z"/>
		<path class="st1" d="M4118.4-1722.9h-796.7c-12.5,0-22.6-10.1-22.6-22.6s10.1-22.6,22.6-22.6h796.7c12.5,0,22.6,10.1,22.6,22.6
			S4130.9-1722.9,4118.4-1722.9z"/>
		<path class="st1" d="M4118.4-1615.5h-796.7c-12.5,0-22.6-10.1-22.6-22.6s10.1-22.6,22.6-22.6h796.7c12.5,0,22.6,10.1,22.6,22.6
			S4130.9-1615.5,4118.4-1615.5z"/>
	</g>
</g>
<g>
	<g>
		<g>
			<g>
				<g>
					<g>
						<path class="st0" d="M9352.4,758.6H8319.5c-24.8,0-44.9-20.1-44.9-44.9s20.1-44.9,44.9-44.9h1032.9
							c24.8,0,44.9,20.1,44.9,44.9S9377.2,758.6,9352.4,758.6z"/>
					</g>
					<g>
						<path class="st0" d="M9181,538.8h-690.1c-24.8,0-44.9-20.1-44.9-44.9c0-24.8,20.1-44.9,44.9-44.9H9181
							c24.8,0,44.9,20.1,44.9,44.9C9225.9,518.7,9205.8,538.8,9181,538.8z"/>
					</g>
					<g>
						<path class="st0" d="M9289.2,978.4h-906.5c-24.8,0-44.9-20.1-44.9-44.9c0-24.8,20.1-44.9,44.9-44.9h906.5
							c24.8,0,44.9,20.1,44.9,44.9C9334.1,958.3,9314,978.4,9289.2,978.4z"/>
					</g>
					<g>
						<path class="st0" d="M9289.2,1198.2h-906.5c-24.8,0-44.9-20.1-44.9-44.9c0-24.8,20.1-44.9,44.9-44.9h906.5
							c24.8,0,44.9,20.1,44.9,44.9C9334.1,1178.1,9314,1198.2,9289.2,1198.2z"/>
					</g>
					<g>
						<path class="st0" d="M8906.5,1418h-523.8c-24.8,0-44.9-20.1-44.9-44.9c0-24.8,20.1-44.9,44.9-44.9h523.8
							c24.8,0,44.9,20.1,44.9,44.9C8951.4,1397.9,8931.3,1418,8906.5,1418z"/>
					</g>
					<g>
						<path class="st0" d="M8734.4,1637.9h-351.7c-24.8,0-44.9-20.1-44.9-44.9c0-24.8,20.1-44.9,44.9-44.9h351.7
							c24.8,0,44.9,20.1,44.9,44.9C8779.3,1617.8,8759.2,1637.9,8734.4,1637.9z"/>
					</g>
					<g>
						<path class="st0" d="M8734.4,1857.7h-351.7c-24.8,0-44.9-20.1-44.9-44.9c0-24.8,20.1-44.9,44.9-44.9h351.7
							c24.8,0,44.9,20.1,44.9,44.9C8779.3,1837.6,8759.2,1857.7,8734.4,1857.7z"/>
					</g>
				</g>
				<g>
					<path class="st0" d="M9050,2096.7h-987c-24.8,0-44.9-20.1-44.9-44.9v-1797c0-24.8,20.1-44.9,44.9-44.9h1546.5
						c24.8,0,44.9,20.1,44.9,44.9v967.4c0,24.8-20.1,44.9-44.9,44.9c-24.8,0-44.9-20.1-44.9-44.9V299.7H8107.8v1707.2H9050
						c24.8,0,44.9,20.1,44.9,44.9C9094.9,2076.6,9074.8,2096.7,9050,2096.7z"/>
				</g>
			</g>
		</g>
		<g>
			<g>
				<path class="st0" d="M9305.6,2243.8c-8.9,0-17.9-0.9-26.7-2.8c-35.4-7.5-65.1-29.6-83-59.4c-35.2,7.5-72.8-0.2-102.2-21.6
					c-29.3-21.3-47.4-53.6-51.7-88.1c-35.2-7.5-66.3-29.6-84.6-61.3c-18.1-31.3-21.5-68.2-11.4-101.4
					c-28.8-20.9-48.4-53.3-52.3-90.4c-3.8-36,8.1-71.1,30.8-97.3c-17.8-30.8-22.6-68.4-11-103.8c11.2-34.6,36.2-61.9,67.7-76.5
					c-3.7-35.3,7.2-71.5,32.1-99.2c23.8-26.4,57.5-41.7,93-42.3c11-33.8,35.7-62.5,69.8-77.6c32.6-14.5,70.4-14.4,102.2-0.9
					c23.7-26.4,58-42.5,95.3-42.5c36.2,0,69.7,15.4,93.5,40.7c32.2-14.4,71-15,104.5-0.1c33.1,14.7,57.5,42.5,68.9,75.4
					c0.1,0,0.2,0,0.2,0c36.3,0,71,15.5,95.2,42.4c24.2,26.9,35.2,62.2,32.3,96.8c32.6,14.4,58.5,42.1,70,77.6
					c11.2,34.4,6.9,71.2-9.9,101.6c23.8,26.4,36.3,62.2,32.4,99.3c-3.8,36-22.7,67.8-50.4,88.8c11,33.8,7.9,71.6-10.8,103.9
					c-17.9,31-47.9,52.7-82.2,60.7c-3.7,35.4-21.9,68.6-52.1,90.5c-28.8,20.8-65.2,28.7-99.7,22c-17.8,30.8-47.9,53.7-84.4,61.4
					c-35.3,7.5-72.1-0.6-100.3-20.4C9359.1,2234.8,9332.9,2243.8,9305.6,2243.8z M9222.4,2075.4c6.1,0,12.1,1.2,17.9,3.7
					c15.5,6.7,25.9,21.6,26.9,38.4c1.1,17.4,13.6,32,30.3,35.6c17.2,3.7,34.8-5.2,42.6-20.8c7.5-15.1,22.9-24.7,39.8-24.9
					c17.6,0.7,32.4,9.2,40.2,24.1c8,15.2,25.3,23.9,42.3,20.2c17.1-3.7,29.7-18.6,30.4-36.3c0.7-16.9,10.9-31.9,26.2-38.9
					c15.3-7,33.3-4.8,46.6,5.7c13.3,10.5,33,11.3,46.8,1.3c14.1-10.3,19.5-29,13-45.6c-6.2-15.7-3-33.6,8.1-46.2
					c11.2-12.6,28.6-17.9,44.8-13.7c16.8,4.2,34.7-3.1,43.2-17.9c8.8-15.2,6.1-34.5-6.6-46.9c-12.1-11.8-16.5-29.4-11.4-45.5
					c5.1-16.1,18.8-28,35.4-30.8c17.2-2.9,30.4-16.8,32.2-33.9c1.8-17.4-8.5-33.9-25.2-40.2c-15.8-5.9-27-20.2-28.9-37
					c-1.9-16.8,5.7-33.2,19.8-42.5c14.5-9.6,21-27.8,15.7-44.1c-5.4-16.8-22-26.4-39.7-26.5c-15.9,0-31.7-8.3-39.8-22.1
					c-8.6-14.5-9.5-32.6-0.4-46.9c9.3-14.7,7.8-33.9-3.6-46.6c-11.5-12.8-31.3-16.1-46.7-8.2c-15,7.8-33.1,6.6-46.8-3.2
					c-13.8-9.8-20.8-26.5-18.4-43.2c2.6-17.3-6.6-34.2-22.3-41.2c-15.8-7-35.2-2-46,11.5c-10.5,13.2-27.4,19.5-44.1,16.1
					c-16.5-3.4-29.8-15.7-34.3-31.9c-4.7-16.8-19.9-28.5-37.1-28.5c-17.5,0-32.9,12-37.3,29.2c-4.2,16.3-17.2,28.9-33.7,32.6
					c-16.5,3.7-33.6-2.2-44.4-15.2c-10.8-13-29.8-17.9-45.5-11c-16,7.1-25.2,24.3-22.2,41.9c2.8,16.6-4,33.4-17.6,43.5
					c-13.6,10-31.6,11.6-46.7,4.1c-15.3-7.6-34.7-4.1-46,8.5c-11.7,13-13.1,32.5-3.3,47.3c9.3,14.1,10,32.2,1.7,46.9
					c-8.3,14.7-24,23.2-41,22.8c0,0-0.1,0-0.1,0c-18.6,0-33.4,10.6-38.5,26.5c-5.4,16.7,1.2,35,16.2,44.6
					c14.2,9.1,22.2,25.3,20.6,42.1c-1.6,16.8-12.5,31.3-28.2,37.5c-16.2,6.4-26.3,22.8-24.5,39.9c1.8,17.5,15.4,31.5,33,34.1
					c16.7,2.5,30.6,14.2,36,30.1c5.4,16,1.3,33.7-10.5,45.7c-12.2,12.4-14.7,31.5-6.2,46.3c8.7,15.1,27.1,22.4,43.9,17.8
					c16.2-4.6,33.7,0.4,45.1,12.9c11.4,12.4,14.9,30.2,9,46c-6.1,16.4-0.6,34.8,13.3,45c13.9,10.1,34.1,9.2,47.4-1.7
					C9202,2078.9,9212.1,2075.4,9222.4,2075.4z"/>
			</g>
			<g>
				<path class="st0" d="M9377.1,2054.8c-161.9,0-293.6-131.7-293.6-293.6c0-161.9,131.7-293.6,293.6-293.6
					c161.9,0,293.6,131.7,293.6,293.6C9670.7,1923.1,9539,2054.8,9377.1,2054.8z M9377.1,1557.4c-112.4,0-203.8,91.4-203.8,203.8
					c0,112.4,91.4,203.8,203.8,203.8c112.4,0,203.8-91.4,203.8-203.8C9580.9,1648.8,9489.4,1557.4,9377.1,1557.4z"/>
			</g>
		</g>
		<g>
			<path class="st0" d="M9121.2,2500c-9.5,0-18.9-3-26.8-8.9c-13.1-9.8-19.9-25.9-17.7-42.1l43-313.5c3.4-24.6,25.8-41.7,50.6-38.4
				c24.6,3.4,41.8,26,38.4,50.6l-31.9,232.7l181.7-82.8c11.8-5.4,25.4-5.4,37.2,0l181.7,82.8l-31.9-232.7
				c-3.4-24.6,13.8-47.2,38.4-50.6c24.6-3.4,47.2,13.8,50.6,38.4l43,313.5c2.2,16.2-4.5,32.4-17.7,42.1
				c-13.2,9.8-30.6,11.6-45.4,4.8l-237.3-108.1L9139.8,2496C9133.8,2498.7,9127.5,2500,9121.2,2500z"/>
		</g>
	</g>
</g>
<g>
	<g>
		<path class="st1" d="M8559.5,4315.3c-119.9,0-222.7-103.3-276.5-221.9c-72.6-160-73.6-348.3-73.6-351.6
			c0-259.3,98.4-365.6,350.1-365.6c251.7,0,352,114,352,373.3c0,1.9-3.4,161.2-62.7,308.9
			C8795.2,4191.8,8693.1,4315.3,8559.5,4315.3z"/>
		<g>
			<g>
				<path class="st1" d="M7803.6,4883.3c0-47.7,39.1-86.8,86.8-86.8h631.1l31.9-119.2c2.4-8.9,4.7-16.4,7-22.8H8504
					c-31.1,0-56.4-25.2-56.4-56.4v-117.4c0-31.1,25.2-56.4,56.4-56.4h56.4h56.4c31.1,0,56.4,25.2,56.4,56.4v117.4
					c0,31.1-25.2,56.4-56.4,56.4h-56.4c2.2,6.3,4.6,13.8,7,22.8l31.9,119.2h599.3c47.7,0,86.8,39.1,86.8,86.8l-57.9,859.5H9477
					l-46.7-1026.6c-10.9-72.6-58.3-130.7-120.7-158.5h0.4c0,0-413.6-219.3-759.9-214.1c-308.1,4.6-667.1,175.3-742.6,212.9
					c-63.8,27.3-112.4,86.1-123.4,159.7l-43.9,1026.6h221.4L7803.6,4883.3z"/>
				<path class="st1" d="M9256.4,4909.3l-57.9,833.4H7890.5l-57.9-833.4c0-47.7,39.1-86.8,86.8-86.8h1250.2
					C9217.4,4822.5,9256.4,4861.6,9256.4,4909.3z"/>
			</g>
			<path class="st1" d="M9256.4,5824.4c0,8.7-10.4,15.7-23.2,15.7H7855.7c-12.8,0-23.2-7-23.2-15.7v-35.2c0-8.7,10.4-15.7,23.2-15.7
				h1377.6c12.8,0,23.2,7,23.2,15.7V5824.4z"/>
		</g>
		<line class="st3" x1="7774.7" y1="5742.8" x2="7745.8" y2="5742.8"/>
		<line class="st3" x1="9372.2" y1="5742.8" x2="9343.3" y2="5742.8"/>
	</g>
</g>
<path class="st0" d="M9210.7-2912H7089.5c-73.2,0-132.6,59.3-132.6,132.6v2121.2c0,73.2,59.3,132.6,132.6,132.6h2121.2
	c73.2,0,132.6-59.3,132.6-132.6v-2121.2C9343.3-2852.7,9283.9-2912,9210.7-2912z M7089.5-658.3v-1992.5
	c0,73.2,59.3,132.6,132.6,132.6h397.7c73.2,0,132.6-59.3,132.6-132.6h1458.4v1992.5H7089.5z M9078.1-1984v1060.6
	c0,73.2-59.3,132.6-132.6,132.6H7354.6c-73.2,0-132.6-59.3-132.6-132.6V-1984c0-73.2,59.3-132.6,132.6-132.6H8283
	c0-1.1-0.3-2.2-0.3-3.3c0-73.2,59.3-132.6,132.6-132.6H8813c73.2,0,132.6,59.3,132.6,132.6c0,1.1-0.3,2.2-0.3,3.3h0.3
	C9018.8-2116.6,9078.1-2057.2,9078.1-1984z"/>
<g>
	<path class="st0" d="M-2784,232.9c-119.3-481,173.9-967.6,654.9-1086.9c200.6-49.8,402.1-27.5,577.7,50
		c-73.9-279.4-252-531.6-519.1-692.6c-545.1-328.5-1253.4-152.9-1581.9,392.3c-289.3,480.1-187.4,1086.5,213.3,1448.8l-8.4,446.7
		l391.6-216.4c161.5,58.4,330.5,78.3,495.3,63.2C-2665.9,528.4-2744.9,390.9-2784,232.9z"/>
	<g>
		<path class="st0" d="M-1138-161.6c106.1,428.1-154.8,861.2-583,967.4C-2149,911.9-2582.1,651-2688.3,222.8
			c-106.1-428.1,154.8-861.2,582.9-967.4C-1677.2-850.7-1244.1-589.7-1138-161.6z"/>
		<polygon class="st0" points="-1659.1,1051.3 -1559.9,706.9 -1907.6,793.2 -1659.1,1051.3 -1559.9,706.9 -1907.6,793.2 		"/>
	</g>
</g>
<g>
	<path class="st0" d="M-2199.5,3076.4c39,0,74.5-13.3,105.5-39.3c33-27.7,49.6-66.1,49.6-114.1c0-44-15.4-81.2-45.8-110.9
		c-30.2-29.3-67-44.2-109.3-44.2c-43.3,0-80.5,15.6-110.4,46.3c-29.6,30.4-44.7,67.1-44.7,108.9c0,41.7,14.5,78,43.2,107.8
		C-2282.4,3061-2244.7,3076.4-2199.5,3076.4z"/>
	<polygon class="st0" points="-2032.9,3130.3 -2466.1,3130.3 -2466.1,3349.8 -2315,3349.8 -2315,3926.7 -2425.1,3926.7 
		-2425.1,4171.7 -1932.9,4171.7 -1932.9,3926.7 -2032.9,3926.7 	"/>
	<path class="st0" d="M-1137.6,2672.9c-110.3-141.7-245-257.6-396.6-343.7c-151.6-86.1-320.1-142.4-498.3-164.7
		c-351.6-44-701.1,50.9-984,267.2c-282.9,216.3-466.1,528.7-515.7,879.5c-47.1,333.5,30.8,668.2,219.7,945.6l-152.6,449.2
		c-13.5,39.7-2.2,83.8,28.7,112.2c31,28.4,75.9,35.8,114.3,19l424.5-186.1c162.9,99,342.1,161.1,533,184.8
		c56.1,6.9,112.1,10.4,167.8,10.4c298.2,0,586.2-98.5,825.1-284.9c283.5-221.1,463.9-539.4,508-896.2
		C-819.6,3308.7-916.9,2956.3-1137.6,2672.9z M-1020.4,3645.8c-39,314.9-198.2,595.8-448.4,791
		c-250.3,195.1-561.5,281.2-876.4,242.3c-176.7-21.8-342-81-491.2-175.9c-17.4-11.1-37.1-16.6-57-16.6c-14.4,0-28.9,2.9-42.5,8.9
		l-341.7,149.8l123.2-362.6c10.9-32.1,5.6-67.7-14-95.5c-176.3-248.5-250-551.8-207.2-853.9c90.2-638.1,684-1092,1323.7-1012.1
		C-1403,2402.3-940.2,2996.5-1020.4,3645.8z"/>
</g>
<g>
	<path class="st0" d="M2139.3,2258.2c61.7,58.9,132.7,99.2,220.5,104.1c7.6,0.4,15.1,0.6,22.5,0.5c108.7-0.5,193.8-52.5,264-133.4
		c107.2-123.8,150.9-271.3,155.3-454.1c-2.8-24.5-4.9-70.6-13.6-115.5c-36.5-189.7-171.5-313.2-361.2-333.4
		c-18.1-1.9-36-2.8-53.6-2.7c-168.9,0.3-310.5,91.7-375.8,246.3C1907.1,1783.4,1971.6,2098.1,2139.3,2258.2z"/>
	<path class="st0" d="M2673.7,2583.8c0-77,20.3-149.3,55.8-211.8c-22-4.1-44.4-7.2-67.2-9.2l-0.1,0.2c-0.4,0-0.7-0.1-1.1-0.2
		c-74.1,86.5-178.1,129.7-282,129.7c-104,0-207.9-43.2-282.1-129.7c-0.3,0.1-0.7,0.2-1.1,0.2l-0.1-0.2
		c-174.6,15.5-328.4,94.4-432.1,210.8c-86.6,97.1-138.4,220.2-138.4,354.1v505.4c51.4,43.4,115.9,82.6,190.5,116.1
		c25,11.3,51.1,21.9,78.3,31.9c7,2.5,14,5,21.1,7.5v-434.6l85.5,461.1c141.8,39.1,304.8,61.4,478.3,61.4
		c173.4,0,336.4-22.3,478.2-61.4l85.5-461.1v434.6c7.1-2.5,14.2-5,21.1-7.5c27.2-10,53.3-20.6,78.3-31.8
		c74.7-33.6,139.1-72.7,190.6-116.2v-439.5c-40.8,12.9-84.4,19.8-129.5,19.8C2866,3013.4,2673.7,2821.1,2673.7,2583.8z"/>
	<path class="st0" d="M3101.7,2210.8c-133.1,0-250,69.7-315.9,174.6c-36.2,57.4-57.1,125.5-57.1,198.4c0,206,167,373,373,373
		c45.5,0,89.2-8.2,129.5-23.1c142.2-52.6,243.5-189.4,243.5-349.9C3474.7,2377.8,3307.7,2210.8,3101.7,2210.8z M3095.9,2329.5
		c30.8,0,55.5,23.1,55.5,54.7c0,30.1-24.7,54.7-56.3,54.7c-29.3,0-55.5-24.7-55.5-54.7C3039.7,2352.7,3065.9,2329.5,3095.9,2329.5z
		 M3198.4,2838.1H3005v-26.2c41.6-5.4,46.2-8.5,46.2-63.2v-150.3c0-51.6-3.9-54.7-40.1-59.3v-25.4c48.5-5.4,97.1-15.4,139.5-27.7
		c0,32.4,0,64,0,95.5v167.2c0,52.4,3.1,57.8,47.8,63.2V2838.1z"/>
</g>
</svg>
