<?xml version="1.0" encoding="utf-8"?>
<!-- Generator: Adobe Illustrator 27.8.0, SVG Export Plug-In . SVG Version: 6.00 Build 0)  -->
<svg version="1.1" id="Layer_1" xmlns="http://www.w3.org/2000/svg" xmlns:xlink="http://www.w3.org/1999/xlink" x="0px" y="0px"
	 viewBox="0 0 2000 2000" style="enable-background:new 0 0 2000 2000;" xml:space="preserve">
<style type="text/css">
	.st0{fill:#FFFFFF;}
	.st1{fill:#F39200;}
</style>
<rect class="st0" width="2000" height="2000"/>
<g>
	<path class="st1" d="M805.3,869.5c33.3,31.8,71.7,53.6,119,56.2c4.1,0.2,8.1,0.3,12.1,0.3c58.7-0.3,104.6-28.3,142.5-72
		c57.9-66.8,81.5-146.5,83.8-245.1c-1.5-13.2-2.7-38.1-7.3-62.4c-19.7-102.4-92.5-169.1-194.9-180c-9.8-1-19.5-1.5-29-1.5
		c-91.2,0.2-167.6,49.5-202.9,133C680,613.2,714.8,783,805.3,869.5z"/>
	<path class="st1" d="M1093.8,1045.2c0-41.6,10.9-80.6,30.1-114.3c-11.9-2.2-24-3.9-36.3-5l0,0.1c-0.2,0-0.4,0-0.6-0.1
		c-40,46.7-96.2,70-152.2,70c-56.1,0-112.2-23.3-152.3-70c-0.2,0-0.4,0.1-0.6,0.1l0-0.1c-94.3,8.4-177.2,51-233.2,113.8
		c-46.7,52.4-74.7,118.8-74.7,191.2v272.8c27.8,23.4,62.6,44.6,102.9,62.7c13.5,6.1,27.6,11.8,42.3,17.2c3.8,1.4,7.6,2.7,11.4,4.1
		V1353l46.1,248.9c76.5,21.1,164.5,33.2,258.2,33.2c93.6,0,181.6-12,258.1-33.1L1239,1353v234.6c3.8-1.3,7.6-2.7,11.4-4.1
		c14.7-5.4,28.8-11.1,42.3-17.2c40.3-18.1,75.1-39.3,102.9-62.7v-237.2c-22,7-45.5,10.7-69.9,10.7
		C1197.6,1277.1,1093.8,1173.3,1093.8,1045.2z"/>
	<path class="st1" d="M1324.8,843.9c-71.9,0-134.9,37.6-170.5,94.3c-19.5,31-30.8,67.7-30.8,107.1c0,111.2,90.1,201.3,201.3,201.3
		c24.6,0,48.1-4.4,69.9-12.5c76.8-28.4,131.5-102.2,131.5-188.9C1526.1,934,1436,843.9,1324.8,843.9z M1321.7,908
		c16.6,0,29.9,12.5,29.9,29.5c0,16.2-13.3,29.5-30.4,29.5c-15.8,0-29.9-13.3-29.9-29.5C1291.3,920.5,1305.5,908,1321.7,908z
		 M1377,1182.5h-104.4v-14.1c22.5-2.9,25-4.6,25-34.1v-81.1c0-27.9-2.1-29.5-21.6-32v-13.7c26.2-2.9,52.4-8.3,75.3-15
		c0,17.5,0,34.5,0,51.6v90.3c0,28.3,1.7,31.2,25.8,34.1V1182.5z"/>
</g>
</svg>
