<?xml version="1.0" encoding="utf-8"?>
<!-- Generator: Adobe Illustrator 27.8.0, SVG Export Plug-In . SVG Version: 6.00 Build 0)  -->
<svg version="1.1" id="Calque_1" xmlns="http://www.w3.org/2000/svg" xmlns:xlink="http://www.w3.org/1999/xlink" x="0px" y="0px"
	 viewBox="0 0 265.5 346.6" style="enable-background:new 0 0 265.5 346.6;" xml:space="preserve">
<style type="text/css">
	.st0{fill:#2B96D4;}
</style>
<g>
	<path class="st0" d="M254.1,345.1H6.9c-3.1,0-5.7-2.5-5.7-5.7V7.2c0-3.1,2.5-5.7,5.7-5.7H254c3.1,0,5.7,2.5,5.7,5.7v25.1
		c0,3.1-2.5,5.7-5.7,5.7c-3.1,0-5.7-2.5-5.7-5.7V12.9H12.6v320.9h235.8V176.3c0-3.1,2.5-5.7,5.7-5.7c3.1,0,5.7,2.5,5.7,5.7v163.1
		C259.8,342.6,257.2,345.1,254.1,345.1"/>
	<path class="st0" d="M176.6,75.2H63.8c-3.1,0-5.7-2.5-5.7-5.7c0-3.1,2.5-5.7,5.7-5.7h112.8c3.1,0,5.7,2.5,5.7,5.7
		C182.3,72.6,179.8,75.2,176.6,75.2"/>
	<path class="st0" d="M171.2,132.2H39.1c-3.1,0-5.7-2.5-5.7-5.7c0-3.1,2.5-5.7,5.7-5.7h132.2c3.1,0,5.7,2.5,5.7,5.7
		C176.9,129.7,174.4,132.2,171.2,132.2"/>
	<path class="st0" d="M164.7,170.8H39.1c-3.1,0-5.7-2.5-5.7-5.7c0-3.1,2.5-5.7,5.7-5.7h125.6c3.1,0,5.7,2.5,5.7,5.7
		C170.4,168.2,167.9,170.8,164.7,170.8"/>
	<path class="st0" d="M158.2,209.3H39.1c-3.1,0-5.7-2.5-5.7-5.7c0-3.1,2.5-5.7,5.7-5.7h119.1c3.1,0,5.7,2.5,5.7,5.7
		S161.3,209.3,158.2,209.3"/>
	<path class="st0" d="M151.7,247.9H39.1c-3.1,0-5.7-2.5-5.7-5.7c0-3.1,2.5-5.7,5.7-5.7h112.6c3.1,0,5.7,2.5,5.7,5.7
		C157.3,245.4,154.8,247.9,151.7,247.9"/>
	<path class="st0" d="M210.5,305.2h-79c-3.1,0-5.7-2.5-5.7-5.7c0-3.1,2.5-5.7,5.7-5.7h79c3.1,0,5.7,2.5,5.7,5.7
		S213.7,305.2,210.5,305.2"/>
	<path class="st0" d="M212.2,271c-0.3,0-0.6,0-1-0.1l-32.3-5.5c-1.5-0.3-2.8-1.1-3.7-2.3c-0.9-1.2-1.2-2.8-1-4.2l34-201.2
		c0.9-5.4,6-9,11.4-8.1l24.1,4.1c5.4,0.9,9,6,8.1,11.4l-34.1,201.2C217.4,269,215,271,212.2,271 M186.5,255.2l21.1,3.6l32.8-194.1
		l-21.1-3.6L186.5,255.2z"/>
	<path class="st0" d="M189.8,305.2c-0.3,0-0.6,0-1-0.1c-2.2-0.4-4-2-4.6-4.2l-9.9-39.7c-0.5-1.9,0-3.8,1.3-5.2
		c1.3-1.4,3.2-2,5.1-1.7l32.3,5.5c1.9,0.3,3.5,1.6,4.3,3.3c0.8,1.8,0.6,3.8-0.5,5.4l-22.4,34.2C193.5,304.3,191.7,305.2,189.8,305.2
		 M187.6,266.9l4.6,18.6l10.5-16.1L187.6,266.9z"/>
	<path class="st0" d="M241.5,64.8c-0.3,0-0.6,0-1-0.1l-22.7-3.8c-3.1-0.5-5.2-3.5-4.7-6.6l1.7-9.9c0.8-4.5,3.3-8.5,7-11.2
		c3.8-2.7,8.3-3.7,12.8-2.9c4.5,0.8,8.5,3.3,11.2,7s3.7,8.3,2.9,12.8L247,60c-0.2,1.5-1.1,2.8-2.3,3.7
		C243.8,64.4,242.6,64.8,241.5,64.8 M225.3,50.6l11.5,1.9l0.7-4.3c0.3-1.5-0.1-3.1-1-4.4c-0.9-1.3-2.2-2.1-3.8-2.4
		c-1.5-0.3-3.1,0.1-4.4,1c-1.3,0.9-2.1,2.3-2.4,3.8L225.3,50.6z"/>
	<path class="st0" d="M248.3,163.9c-0.3,0-0.6,0-1-0.1c-3.1-0.5-5.2-3.5-4.7-6.6l10-59.1c0.4-2.5-1.3-4.9-3.8-5.4L209.3,86
		c-3.1-0.5-5.2-3.5-4.7-6.6s3.4-5.1,6.6-4.7l39.5,6.7c8.7,1.5,14.6,9.8,13.1,18.5l-10,59.1C253.4,161.9,251,163.9,248.3,163.9"/>
	<path class="st0" d="M239.5,110.2c-0.3,0-0.6,0-1-0.1l-32.3-5.5c-3.1-0.5-5.2-3.5-4.7-6.6s3.4-5.1,6.6-4.7l32.3,5.5
		c3.1,0.5,5.2,3.5,4.7,6.6C244.6,108.2,242.2,110.2,239.5,110.2"/>
</g>
</svg>
