<?xml version="1.0" encoding="utf-8"?>
<!-- Generator: Adobe Illustrator 27.8.0, SVG Export Plug-In . SVG Version: 6.00 Build 0)  -->
<svg version="1.1" id="Calque_1" xmlns="http://www.w3.org/2000/svg" xmlns:xlink="http://www.w3.org/1999/xlink" x="0px" y="0px"
	 viewBox="0 0 376.7 355.5" style="enable-background:new 0 0 376.7 355.5;" xml:space="preserve">
<style type="text/css">
	.st0{fill:#A41B5C;}
</style>
<g>
	<path class="st0" d="M368.3,194.2c-4.8-5.7-11.7-9.5-19-10.3c8.2-20.7,11.3-43.6,9.4-65.7c-1-12.3-3.5-24.6-8-36
		c-4.5-11.3-11-21.4-18.7-30.8c-16-19.4-37.3-34.9-61.2-43c-21.3-7.2-44.7-7.5-66.7-3.8c-27,4.6-52.8,16.7-72.4,36
		c-0.4,0.4-0.8,0.9-1,1.4c-20.9-3.5-42.3-4.5-63.2-1.3c-17,2.6-34.7,8.3-48.4,18.9C7.3,69-2.5,83.9,2.5,99.6
		c5.2,16.4,22.1,27.2,37.4,32.9c14.7,5.4,30.4,7.7,45.8,10.3c-1.8,17.4-3.1,34.9-3.8,52.4c-0.7,17.4-1.1,34.9,0.4,52.2
		c2.8,30.6,12.6,61.5,37.1,81.6c21.2,17.3,49,25.3,76.2,24.2c28.9-1.3,55.7-13.3,77.5-32.1c20.5-17.7,35.9-40.7,46.2-65.7
		c0.7,0.6,1.6,1,2.7,1.1c11.2,0.9,20.6-1.5,30.2-7.1c9.9-5.8,17.9-13.8,21.6-24.9C377.4,213.9,375.5,202.6,368.3,194.2 M320.1,171
		c1.2,0.9,2.4,1,3.5,0.7c4.2,4.1,7.9,8.7,11.1,13.7c0,0.1,0.1,0.1,0.1,0.2c-10.2,4.8-22.3,1-30.5-6.8c-8.3-7.8-12.9-18.3-16.7-28.9
		C298.9,156.2,309.7,163.2,320.1,171 M318.5,49.9c7.9,8.3,15.1,17.6,20.3,27.9c5.1,10,8.1,20.9,9.8,31.9c3.6,23,1.3,47.8-7.2,69.7
		c-4.2-6.3-9.1-11.9-14.7-16.9c-0.1-0.6-0.3-1.3-0.7-2c-7.7-11.8-16.4-22.7-25.9-32.7c8.2-30.1,9-61.8,2.3-92.2
		C308.2,39.9,313.6,44.7,318.5,49.9 M258.9,14.5c11.5,2.8,22.4,7.4,32.5,13.5c0,0.4,0,0.8,0.2,1.3c8,29.8,8.4,61.1,1.1,90.9
		c-33.9-32.7-77.2-55.6-122.4-68.9c-9.4-2.8-19.1-5.3-28.8-7.3C171.9,16.2,218.9,4.8,258.9,14.5 M15.6,105.2
		c-4.4-5.7-6.5-12.7-4.6-19.7c1.9-7.1,6.9-12.9,12.4-17.5c12.1-10.2,28.7-15.3,44.1-18c32.2-5.6,65.9,0.3,97,9.1
		c28.9,8.2,56.7,20.2,82.1,36.3c24,15.3,45.6,34.4,62.8,57c-25.4-16.6-53.4-29.2-82.7-37.2c-31.3-8.6-66.7-14.2-98.6-5.6
		c-14.6,3.9-27.8,11.3-37.6,22.6c-1.1,0.2-2.1,0.8-2.9,1.7c-12.3-2-24.6-4-36.5-7.4C37.5,122.7,24.3,116.6,15.6,105.2 M363.9,225.1
		c-4,8.3-10.8,13.5-18.7,17.9c-7.4,4.1-14.5,5.1-22.8,4.5c1.3-3.5,2.4-7,3.5-10.5c1.7-5.6-7-8-8.8-2.4
		c-15.9,51.6-56.4,102.2-113.2,108.8c-25.3,2.9-51.8-2.4-72.9-17c-24.2-16.7-35.5-44.4-39-72.8c-2.2-18.1-1.9-36.5-1.2-54.7
		c0.7-18.7,2-37.5,3.9-56.1c1.3-1,2-2.7,2-4.2c17.7-21.4,48.9-25.2,75-23.7c33.9,2,67.9,11.7,98.5,26.1c1.9,0.9,3.7,1.8,5.6,2.7
		c0,0,0,0,0,0c5.3,15.9,11.2,32.8,24.7,43.8c10.9,8.8,26.6,12.5,39.2,5.8c0.8,0.4,1.8,0.5,2.9,0.2c7.6-2,15.3,1.8,19.8,7.9
		C367.6,208.3,367.6,217.4,363.9,225.1"/>
	<path class="st0" d="M167.7,227.6c3.5-9.5,3.9-19.7,1.3-29.5c-1.5-5.7-10.2-3.3-8.8,2.4c2.2,8.3,1.6,16.6-1.3,24.7
		C156.9,230.6,165.7,233,167.7,227.6"/>
	<path class="st0" d="M207.9,260.6c-17.5,8.8-38.8,8.5-56.1-0.8c-5.1-2.8-9.7,5.1-4.6,7.8c20.2,10.9,44.7,11.2,65.3,0.8
		C217.7,265.8,213.1,258,207.9,260.6"/>
	<path class="st0" d="M128.4,177.4c-4.5,0-8.2,3.7-8.2,8.2c0,4.5,3.7,8.2,8.2,8.2c4.5,0,8.2-3.7,8.2-8.2
		C136.6,181,132.9,177.4,128.4,177.4"/>
	<path class="st0" d="M220.6,180.5c-4.5,0-8.2,3.7-8.2,8.2c0,4.5,3.7,8.2,8.2,8.2c4.5,0,8.2-3.7,8.2-8.2
		C228.8,184.2,225.1,180.5,220.6,180.5"/>
	<path class="st0" d="M203.3,133.1c-5.7,0.7-5.8,9.8,0,9.1c10-1.3,19.6,1.8,26.7,9c4.1,4.2,10.5-2.3,6.4-6.4
		C227.8,136,215.5,131.5,203.3,133.1"/>
	<path class="st0" d="M341.7,210.1c3.5,5.5-0.8,13.9-7.5,13.9c-4.9,0-4.9,7.6,0,7.6c12.2,0,20.6-14.9,14-25.2
		C345.6,202.2,339.1,206,341.7,210.1"/>
</g>
</svg>
