<?xml version="1.0" encoding="utf-8"?>
<!-- Generator: Adobe Illustrator 27.8.0, SVG Export Plug-In . SVG Version: 6.00 Build 0)  -->
<svg version="1.1" id="Calque_1" xmlns="http://www.w3.org/2000/svg" xmlns:xlink="http://www.w3.org/1999/xlink" x="0px" y="0px"
	 viewBox="0 0 1000 1000" style="enable-background:new 0 0 1000 1000;" xml:space="preserve">
<style type="text/css">
	.st0{fill:#2696D4;}
	.st1{fill:#D60B51;}
	.st2{fill:#A2195B;}
	.st3{fill:#F29100;}
	.st4{fill:#93C01F;}
</style>
<g>
	<path class="st0" d="M377.1,385.5c0-56.2,45.7-101.9,101.8-101.9c56.2,0,101.8,45.7,101.8,101.9c0,56.2-45.7,101.8-101.8,101.8
		C422.8,487.3,377.1,441.6,377.1,385.5 M494,648.2V509.1c61.6-7.4,109.6-60,109.6-123.6c0-68.7-55.9-124.6-124.6-124.6
		c-68.8,0-124.6,55.9-124.6,124.6c0,66.1,51.8,120.2,116.9,124.2v138.5c3.7-0.6,7.5-1,11.4-1C486.5,647.2,490.2,647.6,494,648.2"/>
	<path class="st1" d="M697,432.1c39.4,0,71.5,32.1,71.5,71.5c0,39.4-32,71.4-71.5,71.4c-39.4,0-71.4-32-71.4-71.4
		C625.5,464.2,657.6,432.1,697,432.1 M639,577.7c16,12.6,36.1,20.1,58,20.1c52,0,94.3-42.3,94.3-94.3c0-52-42.3-94.3-94.3-94.3
		c-52,0-94.2,42.3-94.2,94.3c0,21.9,7.6,42,20.1,58L523.4,661c6.1,4.6,11.4,10.2,15.6,16.7L639,577.7z"/>
	<path class="st2" d="M900.9,698.8c0,14.5-3.5,28.3-9.5,40.5h24.8c4.8-12.6,7.5-26.2,7.5-40.5c0-63.4-51.6-114.9-114.9-114.9
		c-63.4,0-114.9,51.6-114.9,114.9c0,1.5,0.2,2.9,0.2,4.4H549c0.6,3.7,1,7.5,1,11.4c0,3.9-0.4,7.7-1,11.4h148.2
		c1.1,4.6,2.5,9,4.1,13.3h24.8c-6-12.3-9.5-26-9.5-40.5c0-50.8,41.3-92.1,92.1-92.1C859.5,606.7,900.9,648,900.9,698.8"/>
	<path class="st3" d="M251.9,711.2c0,9.9-2,19.4-5.4,28.1h24.1c1.6-5.4,2.7-11,3.4-16.7h141.7c-0.3-2.6-0.5-5.3-0.5-8
		c0-5.1,0.6-10,1.7-14.8H274c-5.7-49.3-47.6-87.7-98.4-87.7c-54.7,0-99.1,44.5-99.1,99.1c0,9.7,1.5,19.2,4.1,28.1h24.1
		c-3.5-8.7-5.4-18.2-5.4-28.1c0-42.1,34.2-76.3,76.3-76.3C217.6,634.9,251.9,669.1,251.9,711.2"/>
	<path class="st4" d="M242.9,575c-51.5,0-93.3-41.8-93.3-93.3c0-51.5,41.9-93.3,93.3-93.3c51.5,0,93.4,41.9,93.4,93.3
		C336.2,533.2,294.4,575,242.9,575 M424.9,679.8c4-6.6,9-12.5,14.9-17.3L332.6,555.3c16.5-20.1,26.4-45.7,26.4-73.6
		c0-64-52.1-116.1-116.2-116.1c-64,0-116.1,52.1-116.1,116.1c0,64,52.1,116.1,116.1,116.1c27.9,0,53.6-9.9,73.6-26.4L424.9,679.8z"
		/>
</g>
</svg>
