<?xml version="1.0" encoding="utf-8"?>
<!-- Generator: Adobe Illustrator 27.8.0, SVG Export Plug-In . SVG Version: 6.00 Build 0)  -->
<svg version="1.1" id="_x2014_ÎÓÈ_x5F_1" xmlns="http://www.w3.org/2000/svg" xmlns:xlink="http://www.w3.org/1999/xlink"
	 x="0px" y="0px" viewBox="0 0 5000 5000" style="enable-background:new 0 0 5000 5000;" xml:space="preserve">
<style type="text/css">
	.st0{fill:#D60B52;}
</style>
<g>
	<path class="st0" d="M2773.5,2075.3c4.1,1.3,8.3,1.9,12.8,1.9h1.3c4.5,0,8.8-0.6,12.9-1.9c17.8-5.5,30.6-22,30.6-41.6v-147.7
		c0-19.6-12.8-36.1-30.6-41.6c-4.1-1.3-8.4-1.9-12.9-1.9h-1.3c-4.5,0-8.8,0.6-12.8,1.9c-17.8,5.5-30.5,22-30.5,41.6v147.7
		C2743,2053.2,2755.7,2069.8,2773.5,2075.3z"/>
	<path class="st0" d="M2020.2,2077.2h0.9c24.1,0,43.6-19.5,43.6-43.6v-147.5c0-24.1-19.5-43.6-43.6-43.6h-0.9
		c-24.1,0-43.6,19.5-43.6,43.6v147.5C1976.6,2057.7,1996.1,2077.2,2020.2,2077.2z"/>
	<path class="st0" d="M1800.8,2914.1v-677.6h1208.5v296.4c28.6,1.9,56,7.4,81.5,16.1v-437c0-58-47.3-105.4-105.3-105.4h-117.3v27
		c0,44.5-36.1,80.6-80.6,80.6h-1.3c-44.5,0-80.5-36.2-80.5-80.6v-27h-603.4v27c0,44.5-36.3,80.6-80.8,80.6h-1.3
		c-44.5,0-80.3-36.2-80.3-80.6v-27h-117.6c-58,0-105.6,47.4-105.6,105.4v778.7c0,58,47.6,105.5,105.6,105.5h863.9
		c-11.6-25.5-20-52.9-24.6-82.1H1800.8z"/>
	<path class="st0" d="M2072.5,2433.8c0-51.9-42.1-94.1-94.1-94.1l0,0c-51.9,0-94.1,42.1-94.1,94.1v0c0,51.9,42.1,94.1,94.1,94.1l0,0
		C2030.3,2527.9,2072.5,2485.8,2072.5,2433.8L2072.5,2433.8z"/>
	<rect x="2168.1" y="2339.8" class="st0" width="188.1" height="188.1"/>
	<rect x="1884.3" y="2622.7" class="st0" width="188.1" height="188.1"/>
	<rect x="2168.1" y="2622.7" class="st0" width="188.1" height="188.1"/>
	<rect x="2451.9" y="2622.7" class="st0" width="188.1" height="188.1"/>
	<rect x="2451.9" y="2339.8" class="st0" width="188.1" height="188.1"/>
	<rect x="2735.6" y="2339.8" class="st0" width="188.1" height="188.1"/>
	<path class="st0" d="M2992.3,2575.9c-160.6,0-290.8,130.2-290.8,290.8s130.2,290.8,290.8,290.8s290.8-130.2,290.8-290.8
		S3152.9,2575.9,2992.3,2575.9z M2992.3,3094C2867,3094,2765,2992,2765,2866.7s101.9-227.2,227.2-227.2s227.2,101.9,227.2,227.2
		S3117.5,3094,2992.3,3094z"/>
	<path class="st0" d="M3132.7,2859.8h-127v-149c0-12.5-10.2-22.7-22.7-22.7c-12.5,0-22.7,10.2-22.7,22.7v191.3
		c0,12.5,7,21.4,33,21.4h139.5c17.6,0,31.8-14.2,31.8-31.8C3164.5,2874.1,3150.3,2859.8,3132.7,2859.8z"/>
</g>
</svg>
